<?xml version="1.0" encoding="utf-8" standalone="no"?>
<!DOCTYPE svg PUBLIC "-//W3C//DTD SVG 1.1//EN"
  "http://www.w3.org/Graphics/SVG/1.1/DTD/svg11.dtd">
<!-- Created with matplotlib (https://matplotlib.org/) -->
<svg height="247.985312pt" version="1.1" viewBox="0 0 370.1 247.985312" width="370.1pt" xmlns="http://www.w3.org/2000/svg" xmlns:xlink="http://www.w3.org/1999/xlink">
 <defs>
  <style type="text/css">
*{stroke-linecap:butt;stroke-linejoin:round;}
  </style>
 </defs>
 <g id="figure_1">
  <g id="patch_1">
   <path d="M 0 247.985312 
L 370.1 247.985312 
L 370.1 0 
L 0 0 
z
" style="fill:#ffffff;"/>
  </g>
  <g id="axes_1">
   <g id="patch_2">
    <path d="M 28.1 224.64 
L 362.9 224.64 
L 362.9 7.2 
L 28.1 7.2 
z
" style="fill:#ffffff;"/>
   </g>
   <g id="matplotlib.axis_1">
    <g id="xtick_1">
     <g id="line2d_1">
      <path clip-path="url(#pe23a08fd9e)" d="M 39.719415 224.64 
L 39.719415 7.2 
" style="fill:none;stroke:#cccccc;stroke-linecap:round;stroke-width:0.8;"/>
     </g>
     <g id="text_1">
      <!-- 0.0 -->
      <defs>
       <path d="M 4.15625 35.296875 
Q 4.15625 48 6.765625 55.734375 
Q 9.375 63.484375 14.515625 67.671875 
Q 19.671875 71.875 27.484375 71.875 
Q 33.25 71.875 37.59375 69.546875 
Q 41.9375 67.234375 44.765625 62.859375 
Q 47.609375 58.5 49.21875 52.21875 
Q 50.828125 45.953125 50.828125 35.296875 
Q 50.828125 22.703125 48.234375 14.96875 
Q 45.65625 7.234375 40.5 3 
Q 35.359375 -1.21875 27.484375 -1.21875 
Q 17.140625 -1.21875 11.234375 6.203125 
Q 4.15625 15.140625 4.15625 35.296875 
z
M 13.1875 35.296875 
Q 13.1875 17.671875 17.3125 11.828125 
Q 21.4375 6 27.484375 6 
Q 33.546875 6 37.671875 11.859375 
Q 41.796875 17.71875 41.796875 35.296875 
Q 41.796875 52.984375 37.671875 58.78125 
Q 33.546875 64.59375 27.390625 64.59375 
Q 21.34375 64.59375 17.71875 59.46875 
Q 13.1875 52.9375 13.1875 35.296875 
z
" id="ArialMT-48"/>
       <path d="M 9.078125 0 
L 9.078125 10.015625 
L 19.09375 10.015625 
L 19.09375 0 
z
" id="ArialMT-46"/>
      </defs>
      <g style="fill:#262626;" transform="translate(32.769415 238.797812)scale(0.1 -0.1)">
       <use xlink:href="#ArialMT-48"/>
       <use x="55.615234" xlink:href="#ArialMT-46"/>
       <use x="83.398438" xlink:href="#ArialMT-48"/>
      </g>
     </g>
    </g>
    <g id="xtick_2">
     <g id="line2d_2">
      <path clip-path="url(#pe23a08fd9e)" d="M 101.366264 224.64 
L 101.366264 7.2 
" style="fill:none;stroke:#cccccc;stroke-linecap:round;stroke-width:0.8;"/>
     </g>
     <g id="text_2">
      <!-- 0.2 -->
      <defs>
       <path d="M 50.34375 8.453125 
L 50.34375 0 
L 3.03125 0 
Q 2.9375 3.171875 4.046875 6.109375 
Q 5.859375 10.9375 9.828125 15.625 
Q 13.8125 20.3125 21.34375 26.46875 
Q 33.015625 36.03125 37.109375 41.625 
Q 41.21875 47.21875 41.21875 52.203125 
Q 41.21875 57.421875 37.46875 61 
Q 33.734375 64.59375 27.734375 64.59375 
Q 21.390625 64.59375 17.578125 60.78125 
Q 13.765625 56.984375 13.71875 50.25 
L 4.6875 51.171875 
Q 5.609375 61.28125 11.65625 66.578125 
Q 17.71875 71.875 27.9375 71.875 
Q 38.234375 71.875 44.234375 66.15625 
Q 50.25 60.453125 50.25 52 
Q 50.25 47.703125 48.484375 43.546875 
Q 46.734375 39.40625 42.65625 34.8125 
Q 38.578125 30.21875 29.109375 22.21875 
Q 21.1875 15.578125 18.9375 13.203125 
Q 16.703125 10.84375 15.234375 8.453125 
z
" id="ArialMT-50"/>
      </defs>
      <g style="fill:#262626;" transform="translate(94.416264 238.797812)scale(0.1 -0.1)">
       <use xlink:href="#ArialMT-48"/>
       <use x="55.615234" xlink:href="#ArialMT-46"/>
       <use x="83.398438" xlink:href="#ArialMT-50"/>
      </g>
     </g>
    </g>
    <g id="xtick_3">
     <g id="line2d_3">
      <path clip-path="url(#pe23a08fd9e)" d="M 163.013114 224.64 
L 163.013114 7.2 
" style="fill:none;stroke:#cccccc;stroke-linecap:round;stroke-width:0.8;"/>
     </g>
     <g id="text_3">
      <!-- 0.4 -->
      <defs>
       <path d="M 32.328125 0 
L 32.328125 17.140625 
L 1.265625 17.140625 
L 1.265625 25.203125 
L 33.9375 71.578125 
L 41.109375 71.578125 
L 41.109375 25.203125 
L 50.78125 25.203125 
L 50.78125 17.140625 
L 41.109375 17.140625 
L 41.109375 0 
z
M 32.328125 25.203125 
L 32.328125 57.46875 
L 9.90625 25.203125 
z
" id="ArialMT-52"/>
      </defs>
      <g style="fill:#262626;" transform="translate(156.063114 238.797812)scale(0.1 -0.1)">
       <use xlink:href="#ArialMT-48"/>
       <use x="55.615234" xlink:href="#ArialMT-46"/>
       <use x="83.398438" xlink:href="#ArialMT-52"/>
      </g>
     </g>
    </g>
    <g id="xtick_4">
     <g id="line2d_4">
      <path clip-path="url(#pe23a08fd9e)" d="M 224.659963 224.64 
L 224.659963 7.2 
" style="fill:none;stroke:#cccccc;stroke-linecap:round;stroke-width:0.8;"/>
     </g>
     <g id="text_4">
      <!-- 0.6 -->
      <defs>
       <path d="M 49.75 54.046875 
L 41.015625 53.375 
Q 39.84375 58.546875 37.703125 60.890625 
Q 34.125 64.65625 28.90625 64.65625 
Q 24.703125 64.65625 21.53125 62.3125 
Q 17.390625 59.28125 14.984375 53.46875 
Q 12.59375 47.65625 12.5 36.921875 
Q 15.671875 41.75 20.265625 44.09375 
Q 24.859375 46.4375 29.890625 46.4375 
Q 38.671875 46.4375 44.84375 39.96875 
Q 51.03125 33.5 51.03125 23.25 
Q 51.03125 16.5 48.125 10.71875 
Q 45.21875 4.9375 40.140625 1.859375 
Q 35.0625 -1.21875 28.609375 -1.21875 
Q 17.625 -1.21875 10.6875 6.859375 
Q 3.765625 14.9375 3.765625 33.5 
Q 3.765625 54.25 11.421875 63.671875 
Q 18.109375 71.875 29.4375 71.875 
Q 37.890625 71.875 43.28125 67.140625 
Q 48.6875 62.40625 49.75 54.046875 
z
M 13.875 23.1875 
Q 13.875 18.65625 15.796875 14.5 
Q 17.71875 10.359375 21.1875 8.171875 
Q 24.65625 6 28.46875 6 
Q 34.03125 6 38.03125 10.484375 
Q 42.046875 14.984375 42.046875 22.703125 
Q 42.046875 30.125 38.078125 34.390625 
Q 34.125 38.671875 28.125 38.671875 
Q 22.171875 38.671875 18.015625 34.390625 
Q 13.875 30.125 13.875 23.1875 
z
" id="ArialMT-54"/>
      </defs>
      <g style="fill:#262626;" transform="translate(217.709963 238.797812)scale(0.1 -0.1)">
       <use xlink:href="#ArialMT-48"/>
       <use x="55.615234" xlink:href="#ArialMT-46"/>
       <use x="83.398438" xlink:href="#ArialMT-54"/>
      </g>
     </g>
    </g>
    <g id="xtick_5">
     <g id="line2d_5">
      <path clip-path="url(#pe23a08fd9e)" d="M 286.306812 224.64 
L 286.306812 7.2 
" style="fill:none;stroke:#cccccc;stroke-linecap:round;stroke-width:0.8;"/>
     </g>
     <g id="text_5">
      <!-- 0.8 -->
      <defs>
       <path d="M 17.671875 38.8125 
Q 12.203125 40.828125 9.5625 44.53125 
Q 6.9375 48.25 6.9375 53.421875 
Q 6.9375 61.234375 12.546875 66.546875 
Q 18.171875 71.875 27.484375 71.875 
Q 36.859375 71.875 42.578125 66.421875 
Q 48.296875 60.984375 48.296875 53.171875 
Q 48.296875 48.1875 45.671875 44.5 
Q 43.0625 40.828125 37.75 38.8125 
Q 44.34375 36.671875 47.78125 31.875 
Q 51.21875 27.09375 51.21875 20.453125 
Q 51.21875 11.28125 44.71875 5.03125 
Q 38.234375 -1.21875 27.640625 -1.21875 
Q 17.046875 -1.21875 10.546875 5.046875 
Q 4.046875 11.328125 4.046875 20.703125 
Q 4.046875 27.6875 7.59375 32.390625 
Q 11.140625 37.109375 17.671875 38.8125 
z
M 15.921875 53.71875 
Q 15.921875 48.640625 19.1875 45.40625 
Q 22.46875 42.1875 27.6875 42.1875 
Q 32.765625 42.1875 36.015625 45.375 
Q 39.265625 48.578125 39.265625 53.21875 
Q 39.265625 58.0625 35.90625 61.359375 
Q 32.5625 64.65625 27.59375 64.65625 
Q 22.5625 64.65625 19.234375 61.421875 
Q 15.921875 58.203125 15.921875 53.71875 
z
M 13.09375 20.65625 
Q 13.09375 16.890625 14.875 13.375 
Q 16.65625 9.859375 20.171875 7.921875 
Q 23.6875 6 27.734375 6 
Q 34.03125 6 38.125 10.046875 
Q 42.234375 14.109375 42.234375 20.359375 
Q 42.234375 26.703125 38.015625 30.859375 
Q 33.796875 35.015625 27.4375 35.015625 
Q 21.234375 35.015625 17.15625 30.90625 
Q 13.09375 26.8125 13.09375 20.65625 
z
" id="ArialMT-56"/>
      </defs>
      <g style="fill:#262626;" transform="translate(279.356812 238.797812)scale(0.1 -0.1)">
       <use xlink:href="#ArialMT-48"/>
       <use x="55.615234" xlink:href="#ArialMT-46"/>
       <use x="83.398438" xlink:href="#ArialMT-56"/>
      </g>
     </g>
    </g>
    <g id="xtick_6">
     <g id="line2d_6">
      <path clip-path="url(#pe23a08fd9e)" d="M 347.953662 224.64 
L 347.953662 7.2 
" style="fill:none;stroke:#cccccc;stroke-linecap:round;stroke-width:0.8;"/>
     </g>
     <g id="text_6">
      <!-- 1.0 -->
      <defs>
       <path d="M 37.25 0 
L 28.46875 0 
L 28.46875 56 
Q 25.296875 52.984375 20.140625 49.953125 
Q 14.984375 46.921875 10.890625 45.40625 
L 10.890625 53.90625 
Q 18.265625 57.375 23.78125 62.296875 
Q 29.296875 67.234375 31.59375 71.875 
L 37.25 71.875 
z
" id="ArialMT-49"/>
      </defs>
      <g style="fill:#262626;" transform="translate(341.003662 238.797812)scale(0.1 -0.1)">
       <use xlink:href="#ArialMT-49"/>
       <use x="55.615234" xlink:href="#ArialMT-46"/>
       <use x="83.398438" xlink:href="#ArialMT-48"/>
      </g>
     </g>
    </g>
   </g>
   <g id="matplotlib.axis_2">
    <g id="ytick_1">
     <g id="line2d_7">
      <path clip-path="url(#pe23a08fd9e)" d="M 28.1 214.839037 
L 362.9 214.839037 
" style="fill:none;stroke:#cccccc;stroke-linecap:round;stroke-width:0.8;"/>
     </g>
     <g id="text_7">
      <!-- 0.0 -->
      <g style="fill:#262626;" transform="translate(7.2 218.417944)scale(0.1 -0.1)">
       <use xlink:href="#ArialMT-48"/>
       <use x="55.615234" xlink:href="#ArialMT-46"/>
       <use x="83.398438" xlink:href="#ArialMT-48"/>
      </g>
     </g>
    </g>
    <g id="ytick_2">
     <g id="line2d_8">
      <path clip-path="url(#pe23a08fd9e)" d="M 28.1 175.287957 
L 362.9 175.287957 
" style="fill:none;stroke:#cccccc;stroke-linecap:round;stroke-width:0.8;"/>
     </g>
     <g id="text_8">
      <!-- 0.2 -->
      <g style="fill:#262626;" transform="translate(7.2 178.866863)scale(0.1 -0.1)">
       <use xlink:href="#ArialMT-48"/>
       <use x="55.615234" xlink:href="#ArialMT-46"/>
       <use x="83.398438" xlink:href="#ArialMT-50"/>
      </g>
     </g>
    </g>
    <g id="ytick_3">
     <g id="line2d_9">
      <path clip-path="url(#pe23a08fd9e)" d="M 28.1 135.736877 
L 362.9 135.736877 
" style="fill:none;stroke:#cccccc;stroke-linecap:round;stroke-width:0.8;"/>
     </g>
     <g id="text_9">
      <!-- 0.4 -->
      <g style="fill:#262626;" transform="translate(7.2 139.315783)scale(0.1 -0.1)">
       <use xlink:href="#ArialMT-48"/>
       <use x="55.615234" xlink:href="#ArialMT-46"/>
       <use x="83.398438" xlink:href="#ArialMT-52"/>
      </g>
     </g>
    </g>
    <g id="ytick_4">
     <g id="line2d_10">
      <path clip-path="url(#pe23a08fd9e)" d="M 28.1 96.185797 
L 362.9 96.185797 
" style="fill:none;stroke:#cccccc;stroke-linecap:round;stroke-width:0.8;"/>
     </g>
     <g id="text_10">
      <!-- 0.6 -->
      <g style="fill:#262626;" transform="translate(7.2 99.764703)scale(0.1 -0.1)">
       <use xlink:href="#ArialMT-48"/>
       <use x="55.615234" xlink:href="#ArialMT-46"/>
       <use x="83.398438" xlink:href="#ArialMT-54"/>
      </g>
     </g>
    </g>
    <g id="ytick_5">
     <g id="line2d_11">
      <path clip-path="url(#pe23a08fd9e)" d="M 28.1 56.634717 
L 362.9 56.634717 
" style="fill:none;stroke:#cccccc;stroke-linecap:round;stroke-width:0.8;"/>
     </g>
     <g id="text_11">
      <!-- 0.8 -->
      <g style="fill:#262626;" transform="translate(7.2 60.213623)scale(0.1 -0.1)">
       <use xlink:href="#ArialMT-48"/>
       <use x="55.615234" xlink:href="#ArialMT-46"/>
       <use x="83.398438" xlink:href="#ArialMT-56"/>
      </g>
     </g>
    </g>
    <g id="ytick_6">
     <g id="line2d_12">
      <path clip-path="url(#pe23a08fd9e)" d="M 28.1 17.083636 
L 362.9 17.083636 
" style="fill:none;stroke:#cccccc;stroke-linecap:round;stroke-width:0.8;"/>
     </g>
     <g id="text_12">
      <!-- 1.0 -->
      <g style="fill:#262626;" transform="translate(7.2 20.662543)scale(0.1 -0.1)">
       <use xlink:href="#ArialMT-49"/>
       <use x="55.615234" xlink:href="#ArialMT-46"/>
       <use x="83.398438" xlink:href="#ArialMT-48"/>
      </g>
     </g>
    </g>
   </g>
   <g id="line2d_13">
    <path clip-path="url(#pe23a08fd9e)" d="M 43.318182 138.035836 
L 43.408547 138.030531 
L 44.351365 137.591339 
L 44.45994 137.357823 
L 46.589286 136.249844 
L 47.064619 135.902086 
L 47.532013 135.717005 
L 47.626902 135.610855 
L 47.920046 135.451094 
L 48.576773 135.102725 
L 48.740467 134.967921 
L 48.862861 130.871327 
L 49.256727 130.571281 
L 49.628169 130.344836 
L 49.808715 130.208384 
L 50.325909 129.893294 
L 50.671242 129.60149 
L 50.672182 129.621836 
L 51.581908 128.827003 
L 51.760675 128.637965 
L 51.978379 128.452681 
L 52.064203 128.357401 
L 52.088688 128.382427 
L 52.322871 128.223119 
L 52.337357 128.243602 
L 52.398283 128.179717 
L 52.796739 127.975883 
L 52.835447 127.911575 
L 52.875312 127.932091 
L 53.15295 127.770914 
L 53.353031 127.67078 
L 53.625799 127.459601 
L 53.791948 127.345465 
L 54.244427 126.951867 
L 54.462309 126.836399 
L 54.725246 126.687495 
L 54.900849 126.504814 
L 55.599692 125.867869 
L 55.717065 125.600595 
L 55.732803 125.566599 
L 56.002501 125.45103 
L 56.357898 125.218698 
L 56.525194 125.136338 
L 56.75394 124.998546 
L 57.179486 124.721688 
L 57.468443 124.512922 
L 57.818489 124.417982 
L 58.139056 124.260241 
L 58.176545 124.207538 
L 58.59312 124.031417 
L 58.703641 123.925416 
L 58.919335 123.839961 
L 59.507175 123.626724 
L 59.672468 123.48401 
L 60.247258 122.893291 
L 60.360433 122.181664 
L 60.681525 121.942002 
L 61.019428 121.721969 
L 61.131557 121.684797 
L 61.274045 121.61488 
L 61.684619 121.409417 
L 62.253272 121.056484 
L 62.638236 120.698352 
L 63.559337 120.029218 
L 64.343464 119.699815 
L 64.41402 119.641448 
L 64.913162 119.42824 
L 64.93715 119.389097 
L 64.940943 119.410087 
L 65.205483 119.373714 
L 65.864556 118.884535 
L 65.949458 118.865895 
L 66.239092 118.706801 
L 66.415521 118.54718 
L 67.005937 118.207152 
L 67.287698 118.065996 
L 67.447482 117.964917 
L 67.86566 117.782441 
L 67.945321 117.721463 
L 68.823646 117.293023 
L 69.59842 116.881518 
L 69.721526 114.543889 
L 70.060157 114.477849 
L 70.1773 114.390483 
L 70.491784 114.388429 
L 70.786473 114.256921 
L 71.28338 114.014925 
L 71.508002 113.882436 
L 71.779046 113.683049 
L 72.104068 113.502991 
L 72.343515 113.346677 
L 72.436103 113.257139 
L 72.830598 113.122534 
L 73.078295 112.96239 
L 73.16183 112.872093 
L 73.575001 112.69102 
L 73.825777 112.577522 
L 74.03082 112.507766 
L 74.169819 112.483448 
L 74.17326 112.460657 
L 74.591841 112.207605 
L 74.745763 112.045169 
L 75.462983 111.441595 
L 75.515387 111.3717 
L 75.565427 107.842957 
L 75.591416 107.864192 
L 75.789068 107.684821 
L 78.20043 105.745717 
L 78.305289 105.5093 
L 78.692909 105.388607 
L 78.83432 105.176852 
L 80.016739 104.142418 
L 80.49436 103.464599 
L 80.822482 103.29347 
L 80.860474 103.225791 
L 80.933417 103.247092 
L 81.118842 103.068508 
L 81.267698 102.951113 
L 81.342295 102.965982 
L 81.754614 102.757937 
L 81.755667 102.730007 
L 82.20832 102.52069 
L 82.552377 102.401532 
L 82.934212 102.260668 
L 83.023549 102.147723 
L 83.908299 101.385939 
L 84.41984 101.112124 
L 84.65811 100.873183 
L 86.233775 99.846051 
L 86.355591 99.808175 
L 86.602343 99.511474 
L 86.87587 99.332718 
L 87.183456 99.285636 
L 87.256872 99.277004 
L 87.265588 99.247089 
L 87.516275 99.139819 
L 87.81012 99.010874 
L 87.813704 98.980781 
L 88.784956 98.518402 
L 88.871532 98.427266 
L 89.128108 98.265799 
L 89.224548 98.174225 
L 89.821219 97.818163 
L 90.962578 96.930263 
L 91.140007 96.74241 
L 91.49634 96.48064 
L 91.542284 96.354458 
L 91.811015 96.217471 
L 91.944523 96.080045 
L 92.228208 96.037626 
L 92.850145 95.697118 
L 93.124245 95.568974 
L 93.399461 95.461652 
L 93.966892 95.342922 
L 94.527945 94.930377 
L 95.889628 94.468532 
L 96.368666 94.466185 
L 96.598421 94.35553 
L 97.273371 94.024714 
L 97.467741 93.846462 
L 97.955876 93.600688 
L 98.152014 93.35369 
L 98.896276 92.910937 
L 99.140294 92.885289 
L 99.141717 92.817405 
L 99.239819 92.859585 
L 99.389359 92.689508 
L 99.648523 92.684626 
L 99.739343 92.637475 
L 99.941478 92.432209 
L 100.242039 92.384726 
L 100.49601 92.199599 
L 101.154896 91.910004 
L 101.46147 91.702003 
L 102.158598 91.41683 
L 102.232934 90.777102 
L 103.115885 90.378784 
L 103.221865 90.128935 
L 103.429719 90.078311 
L 103.534585 89.934908 
L 104.392662 89.63768 
L 104.484119 89.30187 
L 104.749729 89.17718 
L 105.069492 89.015583 
L 105.336821 88.743327 
L 105.584603 88.727461 
L 105.658688 88.748349 
L 106.390389 88.437486 
L 106.522611 88.42138 
L 107.285236 87.996807 
L 108.509424 87.518667 
L 108.762334 87.447359 
L 109.033286 87.321102 
L 111.202458 86.799794 
L 111.478474 86.590844 
L 111.592694 86.53486 
L 111.762955 86.226806 
L 112.682455 86.036257 
L 112.91367 85.940637 
L 113.261438 85.785151 
L 113.906946 85.652392 
L 114.311533 85.516704 
L 114.428838 85.359902 
L 115.551161 85.167308 
L 115.846265 85.109086 
L 117.008906 84.913075 
L 120.021041 84.480913 
L 120.347405 84.465603 
L 121.023507 84.264285 
L 121.293327 84.265456 
L 121.520402 84.063329 
L 124.212574 83.494952 
L 124.611597 83.187441 
L 125.555951 82.940092 
L 125.877357 82.815893 
L 126.732946 82.587391 
L 126.781257 82.545777 
L 129.080304 82.08367 
L 129.554751 81.978005 
L 130.176431 81.913234 
L 130.314809 81.701771 
L 130.32099 81.659397 
L 130.606073 81.615673 
L 131.230113 81.464708 
L 132.155806 81.247941 
L 132.996429 80.504866 
L 133.524635 80.282481 
L 133.672236 80.212247 
L 134.317049 80.07384 
L 134.610668 80.050206 
L 135.182926 80.044363 
L 136.611136 79.480911 
L 136.718186 79.456688 
L 136.886862 79.432432 
L 137.028833 79.470365 
L 137.041301 79.425302 
L 137.299309 79.289934 
L 137.771404 79.257987 
L 137.955617 79.097295 
L 138.118356 75.026957 
L 138.396369 74.91843 
L 138.535531 74.90975 
L 138.832694 74.800702 
L 138.883867 74.821404 
L 139.02339 74.640904 
L 140.424259 74.034902 
L 140.477877 73.932944 
L 141.000179 73.923083 
L 141.269642 73.75963 
L 142.066596 73.430578 
L 142.314575 73.223916 
L 142.544444 73.192664 
L 142.557275 73.089008 
L 142.828817 73.005676 
L 142.856552 72.849644 
L 143.398734 72.629639 
L 143.970199 72.618186 
L 144.902123 72.311964 
L 145.361599 72.088935 
L 145.496735 72.056413 
L 145.598857 71.950491 
L 145.693756 71.991224 
L 145.706777 71.938179 
L 145.993737 71.905461 
L 146.615803 71.913474 
L 147.212936 71.67506 
L 147.503445 71.649616 
L 148.304186 71.226522 
L 148.317356 71.11842 
L 148.742108 71.08464 
L 149.136153 70.962655 
L 149.664254 70.928668 
L 149.913784 70.806065 
L 151.119762 70.539159 
L 151.184401 70.559461 
L 151.193505 70.449784 
L 152.821669 69.879094 
L 153.015529 69.767801 
L 153.416204 69.52916 
L 153.684973 69.493388 
L 154.983 69.068118 
L 155.41657 68.958938 
L 155.477996 68.979075 
L 156.016615 68.926165 
L 156.238674 68.889547 
L 156.248373 68.832713 
L 158.355327 68.017104 
L 158.504563 67.979427 
L 158.718024 67.846046 
L 158.959054 67.828124 
L 159.476366 67.830186 
L 159.628246 67.675864 
L 160.18497 67.442735 
L 160.236462 67.325892 
L 160.540984 67.131388 
L 161.164626 66.877028 
L 161.303479 66.818056 
L 161.775584 66.739583 
L 163.447238 66.24407 
L 163.463304 66.124428 
L 163.553949 66.163945 
L 164.38591 65.922986 
L 164.523782 65.882501 
L 164.635197 65.60027 
L 165.29457 65.375554 
L 165.710604 64.98762 
L 167.150434 64.590487 
L 167.189408 64.528656 
L 167.615673 64.544933 
L 168.54762 64.273407 
L 168.723851 64.250142 
L 169.716493 64.097805 
L 169.949091 64.113346 
L 169.963173 63.987689 
L 170.573283 63.672628 
L 170.587384 63.711582 
L 171.120118 63.687358 
L 171.257875 63.619198 
L 173.091839 63.265535 
L 173.154568 63.285046 
L 173.719755 63.022576 
L 174.18936 62.913199 
L 174.570067 62.90706 
L 174.963395 62.713022 
L 175.908449 62.362105 
L 177.012738 62.347839 
L 177.819129 62.051273 
L 178.118777 62.004799 
L 178.630882 61.87622 
L 178.909815 61.840615 
L 179.082416 61.640965 
L 179.30566 61.679761 
L 179.485093 61.632457 
L 179.860107 61.690767 
L 179.897745 61.557013 
L 180.177112 61.509456 
L 180.191428 61.442412 
L 180.193697 61.461817 
L 180.832604 61.452946 
L 181.301866 61.337807 
L 181.446274 61.376677 
L 181.460609 61.309251 
L 182.133083 61.261184 
L 182.351476 61.097068 
L 183.035087 61.048666 
L 183.14556 60.864218 
L 183.273642 60.834831 
L 183.508618 60.717748 
L 183.526561 60.756448 
L 183.671278 60.795216 
L 184.959064 60.469651 
L 185.183613 60.478238 
L 185.35952 60.359258 
L 186.330053 60.170505 
L 186.538134 60.197877 
L 187.835291 59.964957 
L 188.466723 59.953061 
L 189.584139 59.666004 
L 189.746094 59.634022 
L 189.990158 59.582511 
L 190.527863 59.550341 
L 190.702003 59.375521 
L 191.658632 59.459794 
L 191.66044 59.388157 
L 191.97996 59.335944 
L 192.026453 59.355451 
L 192.778823 59.106659 
L 192.825321 59.034527 
L 193.664468 58.914742 
L 194.856028 58.920054 
L 195.175584 58.779609 
L 195.417504 58.745589 
L 195.640468 58.599297 
L 195.800231 58.564943 
L 195.814658 58.418138 
L 195.880137 58.437562 
L 196.613403 58.38757 
L 197.174698 58.372199 
L 197.973647 58.317741 
L 198.355639 58.302195 
L 198.5297 58.079419 
L 199.733507 57.542198 
L 200.125531 57.486295 
L 200.20347 57.41097 
L 200.828861 57.374166 
L 202.125193 57.167904 
L 202.448361 57.188546 
L 202.914808 57.132938 
L 203.409018 57.230192 
L 203.409111 57.153608 
L 204.508333 56.885896 
L 204.67189 56.867028 
L 204.826329 56.809121 
L 205.048163 56.731655 
L 205.140169 56.320039 
L 205.698079 56.319254 
L 206.333236 56.27929 
L 206.335507 56.298868 
L 206.337774 56.318466 
L 206.414847 56.239206 
L 206.432757 56.258793 
L 206.730018 56.238214 
L 207.842225 56.316878 
L 207.904905 56.157479 
L 208.696802 56.017353 
L 209.18585 56.095928 
L 209.976446 55.794481 
L 210.134464 55.713993 
L 210.999495 55.711657 
L 211.005167 55.630882 
L 211.009679 55.650459 
L 211.856069 55.42705 
L 212.106681 55.365375 
L 212.260746 55.384886 
L 212.266408 55.303574 
L 212.342925 55.222178 
L 212.585836 55.179592 
L 213.287108 54.953846 
L 213.74446 54.930104 
L 215.569327 55.180482 
L 215.954018 55.117464 
L 216.55496 55.113521 
L 216.735911 54.947314 
L 217.284732 54.903455 
L 217.502513 54.775919 
L 217.984422 54.647849 
L 218.400221 54.642637 
L 218.451786 54.474363 
L 218.826877 54.409708 
L 218.847553 54.325316 
L 219.229691 54.279989 
L 219.780074 53.914272 
L 220.783696 53.887531 
L 221.020389 53.650522 
L 221.793756 53.60366 
L 221.827001 53.623106 
L 221.864409 53.537216 
L 222.00643 53.556647 
L 222.369174 53.29832 
L 222.667137 53.395254 
L 223.767818 53.38656 
L 223.854029 53.319312 
L 224.175226 53.232473 
L 224.32879 53.058516 
L 224.513092 53.010089 
L 224.698598 52.942144 
L 224.942413 52.874052 
L 225.883458 52.863866 
L 225.943888 50.788035 
L 226.013772 50.807585 
L 226.074634 50.731913 
L 226.474124 50.695148 
L 226.624528 50.503838 
L 227.883688 50.601501 
L 227.920938 50.505456 
L 228.455019 50.428809 
L 228.601956 50.25551 
L 229.894902 50.276623 
L 230.045906 50.19889 
L 230.909176 50.297155 
L 230.91248 50.199446 
L 231.019193 50.238822 
L 231.244862 50.278293 
L 231.246966 50.180282 
L 231.320015 50.082154 
L 231.725194 50.003539 
L 231.919049 50.023193 
L 232.072885 49.924736 
L 233.790055 50.023051 
L 233.894451 49.923883 
L 234.466315 49.883839 
L 234.499938 49.784288 
L 234.979859 49.823805 
L 235.188953 49.724038 
L 235.794784 49.703084 
L 236.238239 49.701843 
L 236.372559 49.741597 
L 236.520133 49.700593 
L 236.904082 49.780488 
L 236.975642 49.679349 
L 237.19853 49.617981 
L 237.403785 49.536428 
L 238.421258 49.656549 
L 238.444008 49.554585 
L 238.519269 49.594722 
L 239.072776 49.430245 
L 239.174911 49.470377 
L 239.612386 49.407857 
L 239.762194 49.325027 
L 239.903588 49.241991 
L 240.035921 48.931884 
L 240.853688 48.927708 
L 241.209505 48.8436 
L 241.865841 48.943537 
L 242.207056 48.479339 
L 242.421379 48.539026 
L 242.438052 48.433573 
L 242.939081 48.261856 
L 243.51259 48.235157 
L 243.906689 48.081764 
L 244.346269 48.201217 
L 244.441292 48.281365 
L 244.512538 48.174047 
L 245.223875 47.871137 
L 245.262084 47.763207 
L 245.265201 47.783052 
L 246.074238 47.814157 
L 246.146941 47.725424 
L 246.378847 47.745386 
L 246.385242 47.636459 
L 246.794326 47.437992 
L 246.921022 47.53745 
L 247.343058 47.577415 
L 247.371261 47.487555 
L 249.300441 47.658957 
L 249.304418 47.56819 
L 249.496439 47.477181 
L 250.383824 47.466898 
L 250.409845 47.375266 
L 250.755178 47.303631 
L 250.949579 47.078751 
L 250.962026 47.098895 
L 251.099807 47.139266 
L 251.277527 47.026412 
L 251.500104 47.046576 
L 251.54948 46.933508 
L 251.634873 46.993974 
L 251.924259 47.014184 
L 252.198221 46.920886 
L 252.409255 46.867693 
L 252.545909 46.773815 
L 252.868931 46.565211 
L 253.561556 46.625541 
L 253.820676 46.53082 
L 253.832918 46.550948 
L 253.834858 46.43584 
L 253.906484 46.476049 
L 253.956203 46.496194 
L 253.970374 46.380733 
L 254.244944 46.441139 
L 254.781161 46.153271 
L 254.815498 46.036775 
L 255.18314 46.000053 
L 255.439735 45.805581 
L 256.121701 45.865585 
L 256.157667 45.629918 
L 256.255334 45.669787 
L 256.301616 45.689764 
L 256.32213 45.571477 
L 256.388855 45.631368 
L 256.857176 45.69151 
L 256.909803 45.572644 
L 257.223341 45.592678 
L 257.308368 45.473574 
L 257.319213 45.493567 
L 257.386693 45.135038 
L 257.452967 45.154848 
L 258.267538 44.914842 
L 258.284663 44.794584 
L 261.378156 45.030418 
L 261.62448 44.948524 
L 261.700555 44.968571 
L 262.535275 44.498103 
L 262.651702 44.517912 
L 262.663254 44.394758 
L 262.982702 44.434311 
L 262.984487 44.310829 
L 263.162473 44.226535 
L 264.842806 44.340246 
L 264.983103 44.089881 
L 265.766809 44.003982 
L 265.823944 44.023805 
L 266.01296 43.917703 
L 266.509219 43.937506 
L 266.560098 43.811287 
L 266.695451 43.850825 
L 266.746294 43.743994 
L 267.906175 43.795373 
L 268.102783 43.667634 
L 268.359378 43.302892 
L 268.54286 43.322546 
L 268.787098 43.233111 
L 269.263125 43.331714 
L 269.505908 43.072639 
L 269.651616 43.13166 
L 269.698623 42.884418 
L 269.869155 42.924081 
L 269.989991 42.791838 
L 270.318439 42.659393 
L 270.336195 42.526743 
L 270.603159 42.54636 
L 271.082736 42.299742 
L 271.441114 42.338777 
L 271.560324 42.224633 
L 271.592377 42.244137 
L 273.250315 42.524939 
L 273.322901 42.38883 
L 273.484786 42.408834 
L 273.674187 42.135785 
L 273.698636 42.155636 
L 275.538972 42.322209 
L 275.540615 42.182745 
L 275.598021 42.203052 
L 275.929964 42.243764 
L 277.01151 41.196202 
L 277.179949 41.255543 
L 277.191466 41.113028 
L 277.237752 41.132773 
L 277.688713 41.17236 
L 277.729128 40.886018 
L 278.371435 40.879929 
L 278.473007 40.735445 
L 279.251075 40.794525 
L 279.261072 40.669143 
L 279.361719 40.68883 
L 279.568635 40.728304 
L 279.692887 40.602285 
L 280.124331 40.641746 
L 280.798338 40.594186 
L 281.046295 40.447144 
L 281.773394 40.418102 
L 282.140119 40.160715 
L 282.430708 40.200095 
L 282.875662 40.090253 
L 283.218115 40.149446 
L 283.249673 39.999498 
L 283.260049 40.038906 
L 283.369004 40.058661 
L 283.404013 40.584498 
L 283.481326 40.451559 
L 283.682998 40.318149 
L 283.841094 40.42123 
L 283.933821 40.441956 
L 283.99887 40.131641 
L 284.32305 40.152165 
L 284.353515 39.996472 
L 284.522774 40.016912 
L 285.104774 39.648718 
L 285.225782 39.511342 
L 285.354393 39.531547 
L 285.591047 39.275193 
L 285.616301 39.295294 
L 285.673454 39.437027 
L 286.280221 39.498325 
L 286.688391 39.337904 
L 286.697582 39.177188 
L 286.80075 39.197439 
L 287.053038 39.238052 
L 287.195743 38.914959 
L 287.457348 38.935062 
L 287.637705 38.630393 
L 287.809437 38.670257 
L 287.909753 38.507138 
L 290.570408 38.558491 
L 290.693198 38.224942 
L 290.950803 38.265021 
L 291.04433 38.097493 
L 291.090666 38.137443 
L 291.675725 38.258211 
L 292.000232 38.109354 
L 292.791741 38.169947 
L 292.875062 38.000073 
L 293.030133 38.020204 
L 293.689282 37.547687 
L 293.892311 37.607233 
L 294.692651 37.302056 
L 294.701594 37.321762 
L 295.878631 37.286546 
L 296.333833 37.131674 
L 296.503787 37.151426 
L 296.513084 36.995829 
L 297.47403 37.154334 
L 297.672329 36.997191 
L 298.343251 37.137146 
L 298.366471 36.958551 
L 298.398414 36.978546 
L 298.631247 37.038773 
L 298.634413 36.518564 
L 298.695288 36.538275 
L 298.944481 36.558026 
L 299.029887 36.376846 
L 299.165473 36.396473 
L 299.455106 36.052012 
L 299.708792 36.149285 
L 299.717618 35.781989 
L 299.81578 35.801226 
L 299.968983 35.820502 
L 300.463367 35.451011 
L 301.043563 35.56545 
L 301.084795 35.379094 
L 301.167145 35.41721 
L 301.232186 35.436327 
L 302.065162 35.513197 
L 302.217303 34.908885 
L 302.267249 34.927807 
L 303.34501 35.080648 
L 303.464449 34.501405 
L 303.543328 34.520134 
L 303.564531 34.344614 
L 303.62209 34.363235 
L 303.700736 34.419337 
L 303.800375 34.242456 
L 304.01416 34.261087 
L 304.248011 33.886383 
L 306.006505 34.108936 
L 306.03515 33.927846 
L 306.055352 33.9465 
L 306.752289 34.078241 
L 306.826247 33.895057 
L 307.222314 33.932751 
L 307.267642 33.729714 
L 307.295557 33.767163 
L 307.413878 33.804781 
L 307.705012 33.619116 
L 308.138381 33.675359 
L 308.276984 33.488346 
L 308.45998 33.507009 
L 308.567769 33.30048 
L 309.018554 33.374699 
L 309.063721 33.166836 
L 309.134133 33.18528 
L 309.379729 32.99499 
L 309.693512 33.031653 
L 310.229427 32.647719 
L 310.245958 32.665754 
L 310.655308 32.277881 
L 310.748088 32.448091 
L 311.614984 32.742429 
L 311.904047 32.782529 
L 311.962586 32.315118 
L 312.011899 32.334696 
L 312.582748 32.433344 
L 312.726447 32.21667 
L 312.737068 32.236323 
L 313.034709 32.33536 
L 313.162912 32.096481 
L 313.459421 32.215316 
L 313.56211 31.974069 
L 314.484401 32.173406 
L 314.669546 31.948472 
L 314.687458 31.968451 
L 315.280207 32.130243 
L 315.483124 31.90182 
L 315.999946 32.044499 
L 317.283101 32.424323 
L 317.568263 31.908299 
L 317.625011 31.950354 
L 317.766478 31.971472 
L 317.774958 31.711347 
L 317.79469 31.732185 
L 317.901833 31.753081 
L 317.907338 31.49153 
L 317.963522 31.512142 
L 318.04763 31.249496 
L 318.084197 31.290203 
L 318.258009 31.351703 
L 318.492613 31.106812 
L 318.657949 31.188461 
L 318.685415 30.920749 
L 318.705148 30.940949 
L 318.801215 30.961208 
L 318.910874 28.624567 
L 319.353594 28.661089 
L 319.605942 28.383945 
L 320.726718 28.603368 
L 320.809917 28.301528 
L 321.539073 28.411687 
L 321.733119 27.799446 
L 322.066019 27.870295 
L 322.456688 27.300999 
L 322.698125 27.335171 
L 322.746161 27.021094 
L 322.770156 27.037767 
L 324.622955 27.510107 
L 324.845555 27.602541 
L 324.867701 27.269971 
L 324.939916 27.288097 
L 325.061272 27.324541 
L 325.147753 27.078494 
L 325.175791 27.096568 
L 325.673742 27.262223 
L 326.035309 27.33762 
L 326.756961 27.511416 
L 326.946119 27.177012 
L 327.362294 27.312364 
L 327.467712 27.37149 
L 327.606078 27.451395 
L 327.847103 26.758558 
L 328.284932 26.796574 
L 328.380178 26.426411 
L 328.410216 26.444839 
L 328.961125 26.556949 
L 329.034902 26.180385 
L 329.579752 25.837397 
L 329.706891 25.089928 
L 329.882665 25.171792 
L 330.040033 25.205008 
L 330.38671 24.484046 
L 330.39595 24.499464 
L 330.883238 24.641168 
L 331.037015 24.673396 
L 331.116161 24.7059 
L 331.127326 24.297889 
L 331.22601 24.313404 
L 331.774992 24.423902 
L 332.298915 24.504921 
L 332.471159 22.913161 
L 332.529952 22.92641 
L 334.415344 23.219245 
L 334.578006 22.871599 
L 334.866837 22.899972 
L 335.2005 22.428377 
L 335.219741 22.454771 
L 335.465119 22.481426 
L 335.488588 21.842456 
L 335.575381 21.868041 
L 335.622344 21.359429 
L 338.018568 21.656016 
L 338.024368 21.669269 
L 338.388856 21.709494 
L 338.524065 21.996814 
L 338.825499 22.090102 
L 338.875974 21.478201 
L 338.950402 21.506281 
L 340.008568 21.776137 
L 340.399065 21.87356 
L 340.48988 21.203541 
L 340.550478 21.217896 
L 341.42431 21.700494 
L 342.166553 21.946474 
L 342.360052 21.152678 
L 342.37903 21.186446 
L 342.381759 20.37956 
L 342.459771 20.42128 
L 343.04155 20.553029 
L 344.014264 20.797353 
L 344.06392 20.942278 
L 344.063975 19.280919 
L 344.915755 19.480672 
L 344.955251 19.510083 
L 344.968056 18.717979 
L 345.064532 18.745446 
L 345.802027 18.914705 
L 346.743482 19.555579 
L 346.749993 19.586869 
L 346.920262 17.083636 
L 347.681818 17.083636 
L 347.681818 17.083636 
" style="fill:none;stroke:#008000;stroke-linecap:round;stroke-width:1.5;"/>
   </g>
   <g id="line2d_14">
    <path clip-path="url(#pe23a08fd9e)" d="M 43.318182 17.083636 
L 43.438903 17.16631 
L 46.897936 17.248984 
L 47.004583 17.331657 
L 48.740467 17.331657 
L 48.862861 17.662352 
L 50.671242 17.745026 
L 50.74132 17.827699 
L 51.26681 17.910373 
L 51.394245 18.07572 
L 52.064203 18.158394 
L 52.176204 18.323741 
L 52.55336 18.406415 
L 52.675453 18.489089 
L 53.165257 18.571762 
L 53.2722 18.654436 
L 53.299214 18.73711 
L 53.434321 18.819783 
L 55.922739 18.902457 
L 56.066581 18.985131 
L 56.276126 19.067804 
L 56.357898 19.150478 
L 56.456234 19.233152 
L 57.607849 19.315825 
L 57.706962 19.398499 
L 58.853528 19.481173 
L 59.038842 19.563846 
L 60.860989 19.64652 
L 61.019428 19.729194 
L 61.172771 19.811867 
L 61.274045 19.894541 
L 61.984248 19.977215 
L 62.093895 20.059888 
L 63.265324 20.142562 
L 63.37292 20.225236 
L 64.93715 20.307909 
L 65.033343 20.473257 
L 65.226731 20.55593 
L 65.356226 20.638604 
L 65.582548 20.721278 
L 65.676068 20.803951 
L 66.976975 20.886625 
L 67.005937 20.969299 
L 69.418485 21.051972 
L 69.553478 21.134646 
L 69.59842 21.217319 
L 69.721526 21.796035 
L 70.786473 22.12673 
L 72.042305 22.209403 
L 72.191067 22.292077 
L 73.020736 22.374751 
L 73.088365 22.457424 
L 74.03082 22.540098 
L 74.236768 22.622772 
L 74.681438 22.705445 
L 74.845203 22.870793 
L 75.515387 22.870793 
L 75.591416 23.697529 
L 75.855162 23.780203 
L 75.961425 23.94555 
L 76.023694 24.028224 
L 76.187207 24.193571 
L 76.454742 24.276245 
L 76.590108 24.441592 
L 77.062905 24.524266 
L 77.294891 24.689613 
L 77.957666 24.772287 
L 78.181302 25.020308 
L 78.375338 25.102982 
L 78.515764 25.268329 
L 79.224455 25.351003 
L 79.367511 25.433676 
L 80.060664 25.51635 
L 80.641315 25.847045 
L 80.822482 25.929718 
L 80.933417 26.177739 
L 81.044583 26.260413 
L 81.457601 26.591108 
L 81.652872 26.673781 
L 81.755667 26.756455 
L 81.91651 26.839129 
L 81.984176 26.921802 
L 83.399442 27.004476 
L 83.675577 27.169823 
L 84.064417 27.252497 
L 84.223202 27.335171 
L 84.462869 27.417844 
L 84.619451 27.500518 
L 85.298647 27.583192 
L 85.459955 27.665865 
L 85.988619 27.748539 
L 86.028249 27.831213 
L 86.932073 27.913886 
L 86.933012 27.99656 
L 87.516275 28.327254 
L 87.768041 28.409928 
L 88.871532 28.492602 
L 88.958489 28.575275 
L 89.613148 28.657949 
L 89.647456 28.740623 
L 90.785639 28.823296 
L 90.962578 28.90597 
L 91.743857 28.988644 
L 91.839709 29.071317 
L 91.944523 29.153991 
L 92.354392 29.236665 
L 92.759026 29.319338 
L 92.941388 29.402012 
L 93.399461 29.484686 
L 93.818336 29.567359 
L 94.01089 29.650033 
L 94.185332 29.980728 
L 94.755251 30.063401 
L 94.886198 30.146075 
L 95.031241 30.228749 
L 95.142432 30.311422 
L 95.546699 30.47677 
L 95.889628 30.559443 
L 96.598421 30.890138 
L 97.562097 30.972812 
L 97.799162 31.055485 
L 98.348658 31.138159 
L 99.648523 31.964896 
L 99.790889 32.047569 
L 100.404023 32.130243 
L 100.49601 32.212917 
L 101.46147 32.29559 
L 101.938652 32.543611 
L 102.158598 32.543611 
L 102.232934 32.791632 
L 102.608542 32.874306 
L 102.815881 32.95698 
L 103.221865 33.039653 
L 103.482153 33.122327 
L 103.808303 33.205001 
L 103.955325 33.287674 
L 104.392662 33.370348 
L 104.484119 33.618369 
L 105.016101 33.701043 
L 105.229787 33.86639 
L 105.584603 33.949064 
L 105.658688 34.031737 
L 106.390389 34.114411 
L 106.522611 34.197085 
L 107.705555 34.279758 
L 108.398679 34.610453 
L 108.607111 34.693126 
L 108.762334 34.7758 
L 108.884826 34.858474 
L 109.033286 35.023821 
L 109.342953 35.106495 
L 109.431208 35.189168 
L 110.117706 35.271842 
L 110.398096 35.437189 
L 111.232881 35.519863 
L 111.305768 35.602537 
L 112.221538 35.68521 
L 112.338225 35.850558 
L 113.377612 35.933231 
L 113.610338 36.015905 
L 113.843567 36.098579 
L 113.906946 36.181252 
L 115.253482 36.263926 
L 115.26848 36.3466 
L 115.517053 36.3466 
L 115.551161 36.594621 
L 115.846265 36.677294 
L 116.801201 36.759968 
L 116.861168 36.842642 
L 117.346996 36.925315 
L 117.522622 37.090663 
L 117.947224 37.173336 
L 118.686705 37.338684 
L 119.435231 37.421357 
L 120.118458 37.586705 
L 120.452732 38.082747 
L 121.14713 38.16542 
L 121.460901 38.248094 
L 121.980593 38.330768 
L 122.019796 38.413441 
L 123.849101 38.496115 
L 123.912554 38.578789 
L 125.107173 38.661462 
L 125.248646 38.82681 
L 125.490281 38.909483 
L 126.135027 38.992157 
L 126.264039 39.074831 
L 127.240913 39.157504 
L 127.365383 39.240178 
L 128.423264 39.322852 
L 128.688456 39.488199 
L 129.343095 39.570873 
L 130.758148 40.066915 
L 131.106874 40.149588 
L 131.230113 40.314936 
L 131.908786 40.397609 
L 132.04283 40.562957 
L 132.155806 40.64563 
L 132.457769 42.795145 
L 133.272219 42.877819 
L 133.389373 43.043166 
L 133.596167 43.12584 
L 133.672236 43.291187 
L 134.079038 43.373861 
L 135.138643 43.952577 
L 135.840754 44.03525 
L 135.977967 44.117924 
L 136.473432 44.200598 
L 136.627515 44.283271 
L 137.299309 44.779313 
L 137.563581 44.861987 
L 137.729089 45.192682 
L 137.955617 45.275355 
L 138.048896 51.062512 
L 138.326804 51.145185 
L 138.797596 51.558554 
L 138.953638 51.641227 
L 139.163017 51.723901 
L 139.938748 52.054596 
L 140.477877 52.137269 
L 141.000179 52.302617 
L 141.211824 52.38529 
L 141.269642 52.467964 
L 141.552238 52.550638 
L 142.172695 52.798659 
L 142.78539 52.881332 
L 142.856552 52.964006 
L 143.342307 53.04668 
L 143.575367 53.212027 
L 144.216014 53.294701 
L 144.356056 53.460048 
L 145.073828 53.542722 
L 145.117724 53.625395 
L 145.361599 53.708069 
L 145.508872 53.790743 
L 145.649745 53.873416 
L 145.706777 53.95609 
L 145.993737 54.038764 
L 146.126761 54.121437 
L 146.705399 54.286785 
L 146.806052 54.369458 
L 147.087097 54.617479 
L 147.285506 54.700153 
L 147.503445 54.948174 
L 147.721542 55.030847 
L 148.742108 55.278868 
L 149.049803 55.361542 
L 149.136153 55.444216 
L 151.119762 55.940258 
L 151.193505 56.022931 
L 151.695424 56.105605 
L 153.250218 57.015015 
L 153.908453 57.097689 
L 154.206737 57.263036 
L 154.953837 57.34571 
L 154.983 57.428384 
L 155.403037 57.511057 
L 155.477996 57.759078 
L 155.777928 57.841752 
L 156.016615 58.007099 
L 156.248373 58.089773 
L 156.90537 58.172447 
L 157.220358 58.420468 
L 158.355327 58.503141 
L 159.628246 59.247204 
L 160.478605 59.329878 
L 160.540984 59.412552 
L 160.805784 59.495225 
L 160.84578 59.577899 
L 161.608947 59.660573 
L 161.775584 59.743246 
L 162.144176 59.82592 
L 162.680156 60.321962 
L 163.463304 60.404636 
L 163.908243 60.73533 
L 164.38591 60.818004 
L 164.557223 60.900678 
L 164.831917 60.983351 
L 164.845835 61.066025 
L 165.462846 61.314046 
L 165.617247 61.39672 
L 165.710604 61.479393 
L 166.06684 61.562067 
L 166.319385 61.727414 
L 167.189408 62.140782 
L 167.476765 62.30613 
L 167.615673 62.471477 
L 168.469909 62.554151 
L 168.723851 62.802172 
L 169.112852 62.884845 
L 169.813935 63.380887 
L 169.963173 63.546235 
L 170.573283 63.546235 
L 170.587384 63.711582 
L 171.198258 63.876929 
L 171.257875 64.12495 
L 171.823994 64.207624 
L 171.994684 64.290298 
L 172.528858 64.372971 
L 172.701964 64.538319 
L 172.920805 64.620992 
L 173.154568 64.869013 
L 173.470053 64.951687 
L 173.490917 65.034361 
L 173.862654 65.117034 
L 173.876841 65.199708 
L 174.348351 65.282382 
L 174.570067 65.447729 
L 175.639929 65.530403 
L 175.750843 65.613076 
L 176.258018 65.69575 
L 177.012738 66.109118 
L 177.486547 66.191792 
L 178.020953 66.60516 
L 178.291202 66.687834 
L 178.456167 66.935855 
L 178.751543 67.26655 
L 178.940668 67.597244 
L 179.147309 67.679918 
L 180.97013 68.506654 
L 181.348059 68.672002 
L 181.460609 68.754675 
L 182.254718 68.920023 
L 182.351476 69.002696 
L 183.3675 69.333391 
L 183.512197 69.498738 
L 183.612901 69.664086 
L 183.671278 69.746759 
L 184.163023 69.829433 
L 184.169852 69.99478 
L 184.561007 70.077454 
L 184.563235 70.160128 
L 184.799817 70.325475 
L 185.263232 70.738843 
L 185.35952 70.821517 
L 186.330053 70.904191 
L 186.538134 71.317559 
L 187.01649 71.317559 
L 187.192656 71.56558 
L 187.516227 71.648254 
L 188.626322 72.144296 
L 189.990158 72.888359 
L 190.624404 73.053706 
L 190.702003 73.219053 
L 191.067943 73.301727 
L 191.261092 73.467074 
L 191.66044 73.880443 
L 191.97996 73.963116 
L 192.026453 74.04579 
L 192.499442 74.128464 
L 192.825321 74.211137 
L 193.243743 74.293811 
L 194.582961 74.872527 
L 194.856028 74.9552 
L 195.417504 75.451242 
L 195.765019 75.533916 
L 195.880137 75.699263 
L 196.279495 75.781937 
L 196.453664 75.947284 
L 196.45595 76.029958 
L 197.174698 76.360652 
L 197.973647 76.443326 
L 198.5297 76.691347 
L 199.008571 76.774021 
L 199.264639 76.939368 
L 199.513054 77.022042 
L 199.733507 77.270063 
L 200.20347 77.352736 
L 201.944683 77.766105 
L 201.965859 77.848778 
L 202.294339 78.096799 
L 202.448361 78.34482 
L 202.693238 78.427494 
L 203.15361 79.088883 
L 204.349301 79.584925 
L 204.667343 79.832946 
L 204.776498 79.91562 
L 204.826329 79.998294 
L 205.06706 79.998294 
L 205.140169 81.569093 
L 205.698079 81.899788 
L 206.144607 81.982462 
L 206.335507 82.147809 
L 206.432757 82.313156 
L 206.730018 82.561177 
L 207.429403 82.809198 
L 208.236059 82.891872 
L 208.696802 82.974545 
L 209.18585 83.30524 
L 210.134464 83.387914 
L 211.005167 83.718608 
L 211.009679 83.801282 
L 212.030135 83.883956 
L 212.266408 84.049303 
L 212.342925 84.049303 
L 212.585836 84.21465 
L 213.587318 84.297324 
L 213.74446 84.545345 
L 214.229809 84.87604 
L 214.700583 85.041387 
L 214.841026 85.206734 
L 214.984708 85.454755 
L 215.301615 85.702776 
L 215.313514 85.78545 
L 215.569327 85.950797 
L 215.954018 86.033471 
L 216.735911 86.364166 
L 217.346469 86.529513 
L 217.440796 86.612187 
L 217.502513 86.69486 
L 217.922766 86.777534 
L 218.358083 87.190902 
L 218.847553 87.273576 
L 219.371081 87.438923 
L 219.620346 87.521597 
L 219.780074 87.686944 
L 221.40064 88.100313 
L 221.864409 88.26566 
L 222.173297 88.348334 
L 222.369174 88.348334 
L 222.667137 88.761702 
L 223.084631 88.844375 
L 223.252537 89.009723 
L 223.854029 89.17507 
L 224.482291 89.257744 
L 224.513092 89.340417 
L 224.698598 89.423091 
L 224.942413 89.505765 
L 225.78272 89.671112 
L 225.883458 89.836459 
L 226.013772 96.6157 
L 226.074634 96.698373 
L 226.458157 96.863721 
L 226.532722 96.946394 
L 226.837779 97.029068 
L 228.282632 97.442436 
L 228.601956 97.52511 
L 229.155742 97.607784 
L 229.359346 97.938478 
L 229.812914 98.186499 
L 229.950321 98.43452 
L 230.347693 98.682541 
L 230.735972 98.847889 
L 231.019193 99.09591 
L 231.320015 99.261257 
L 231.725194 99.343931 
L 232.806028 99.922646 
L 233.267872 100.087994 
L 234.499938 100.501362 
L 236.07716 101.162751 
L 236.210443 101.328099 
L 236.372559 101.57612 
L 237.19853 102.320183 
L 237.403785 102.402856 
L 240.853688 104.139003 
L 241.209505 104.221677 
L 241.570964 104.469698 
L 241.918774 104.635045 
L 242.010063 104.800392 
L 242.207056 104.883066 
L 242.438052 105.131087 
L 242.926117 105.213761 
L 242.939081 105.296434 
L 243.226026 105.379108 
L 243.228078 105.544455 
L 243.870279 105.792476 
L 243.906689 105.87515 
L 244.229363 106.040497 
L 244.512538 106.701887 
L 245.262084 106.78456 
L 245.265201 106.867234 
L 245.625938 107.032581 
L 245.932758 107.363276 
L 246.074238 107.44595 
L 246.146941 107.528623 
L 246.794326 107.693971 
L 246.921022 108.107339 
L 250.824139 110.339528 
L 250.962026 110.422201 
L 251.500104 110.670222 
L 251.581226 110.752896 
L 251.634873 110.918243 
L 252.268581 111.166264 
L 252.545909 111.414285 
L 252.868931 111.496959 
L 253.017522 111.579633 
L 253.820676 111.827654 
L 253.970374 112.158348 
L 254.497214 112.406369 
L 254.578815 112.489043 
L 255.62508 113.233106 
L 256.157667 113.398453 
L 256.388855 113.894495 
L 257.452967 114.390537 
L 258.497929 114.473211 
L 258.838604 114.638558 
L 258.892393 114.721232 
L 259.547532 114.886579 
L 259.559337 115.051927 
L 260.7312 115.547969 
L 261.378156 115.878663 
L 261.577182 115.961337 
L 261.700555 116.126684 
L 262.535275 116.209358 
L 263.366816 116.788073 
L 263.952578 117.036094 
L 264.22653 117.284115 
L 264.568657 117.449463 
L 264.983103 117.61481 
L 265.687665 117.697484 
L 266.01296 117.945505 
L 266.560098 118.028178 
L 267.072439 118.606894 
L 267.314309 118.689568 
L 267.560998 118.854915 
L 267.906175 119.020262 
L 268.359378 119.102936 
L 268.898027 119.433631 
L 269.141549 119.598978 
L 269.651616 120.012346 
L 269.80871 121.252451 
L 269.989991 121.335125 
L 270.999001 121.417799 
L 271.20232 121.583146 
L 271.592377 121.831167 
L 271.697768 121.913841 
L 271.847091 122.327209 
L 272.380622 122.905924 
L 272.806164 123.071272 
L 273.01437 123.401966 
L 273.557217 123.649987 
L 273.698636 123.732661 
L 273.861598 123.898008 
L 274.068769 124.228703 
L 274.731715 124.972766 
L 275.227297 125.138113 
L 275.929964 125.799503 
L 276.681458 125.882176 
L 277.191466 126.378218 
L 277.237752 126.460892 
L 277.923566 126.791587 
L 277.96955 126.956934 
L 278.259658 127.122281 
L 278.371435 127.204955 
L 278.473007 127.204955 
L 279.261072 127.53565 
L 279.747987 127.949018 
L 280.570399 128.197039 
L 280.798338 128.44506 
L 281.320369 128.527734 
L 281.439757 128.693081 
L 281.493838 128.858428 
L 281.896143 129.023776 
L 282.140119 129.106449 
L 282.875662 129.437144 
L 283.249673 129.685165 
L 283.481326 132.165375 
L 283.682998 132.248048 
L 283.841094 132.661417 
L 283.99887 132.74409 
L 284.948989 133.074785 
L 285.225782 133.40548 
L 285.457772 133.488153 
L 285.673454 134.397564 
L 286.688391 134.645585 
L 286.80075 134.728258 
L 287.094527 134.893606 
L 287.498629 134.976279 
L 287.909753 135.2243 
L 288.896997 135.472321 
L 289.303678 135.968363 
L 290.39956 136.712426 
L 291.523852 137.373815 
L 292.095132 137.787184 
L 293.689282 138.200552 
L 293.892311 138.448573 
L 294.643049 138.531247 
L 294.701594 138.696594 
L 295.346148 138.944615 
L 295.518689 139.27531 
L 296.333833 139.357983 
L 296.946643 139.771352 
L 297.121326 139.936699 
L 297.419852 140.102046 
L 297.605203 140.18472 
L 297.853467 140.350067 
L 298.040422 140.515415 
L 298.17038 140.763436 
L 298.623255 141.09413 
L 298.695288 141.342151 
L 299.539788 141.672846 
L 299.81578 142.086214 
L 300.161137 142.168888 
L 300.568987 142.251562 
L 300.73505 142.416909 
L 301.084795 142.66493 
L 301.232186 142.912951 
L 301.780969 143.078298 
L 302.172782 143.326319 
L 302.267249 143.987708 
L 302.530411 144.153056 
L 303.34501 144.649098 
L 303.543328 144.731771 
L 303.700736 145.14514 
L 304.01416 145.310487 
L 304.248011 145.393161 
L 305.096587 145.889203 
L 305.876266 146.137224 
L 306.006505 146.385245 
L 306.210275 146.715939 
L 308.45998 148.204065 
L 308.730679 148.286739 
L 308.851828 148.452086 
L 309.901488 148.865455 
L 310.203663 148.948128 
L 310.382992 149.196149 
L 310.451349 149.278823 
L 310.655308 149.278823 
L 310.748088 153.991222 
L 311.129035 154.817958 
L 311.415106 154.983306 
L 312.737068 156.058063 
L 313.034709 156.471432 
L 313.313622 156.554105 
L 313.679135 157.050147 
L 314.484401 157.79421 
L 314.669546 157.876884 
L 314.687458 157.959557 
L 314.915005 158.124905 
L 315.280207 158.620947 
L 315.483124 158.70362 
L 315.821337 158.868968 
L 315.999946 159.282336 
L 316.148126 159.447683 
L 316.371641 159.613031 
L 316.838774 160.109073 
L 316.844012 160.191746 
L 317.016307 160.357094 
L 317.283101 160.770462 
L 317.588667 160.853136 
L 317.79469 161.101157 
L 318.187319 161.514525 
L 318.381925 161.679872 
L 318.575376 161.927893 
L 318.705148 162.175914 
L 318.801215 162.258588 
L 318.910874 165.482861 
L 319.353594 165.648208 
L 319.605942 165.730882 
L 320.344397 166.226924 
L 320.726718 166.722966 
L 320.937972 166.805639 
L 321.065465 166.970987 
L 321.519972 167.136334 
L 321.589109 167.219008 
L 321.88197 167.301681 
L 323.22197 168.376439 
L 323.526191 168.955155 
L 323.759013 169.120502 
L 324.053335 169.53387 
L 324.149067 169.781891 
L 325.061272 170.939322 
L 325.175791 171.435364 
L 325.571511 171.766059 
L 325.711478 172.262101 
L 325.750376 172.344775 
L 326.20358 172.592796 
L 326.598785 172.92349 
L 326.756961 173.254185 
L 326.946119 173.336859 
L 327.24015 173.502206 
L 327.348422 173.832901 
L 327.521553 174.246269 
L 327.847103 174.659637 
L 328.551599 174.990332 
L 328.560663 175.073006 
L 329.034902 175.4037 
L 329.579752 175.569048 
L 329.79355 175.817069 
L 329.896111 176.147763 
L 330.266331 176.395784 
L 330.883238 177.387868 
L 330.894924 177.470542 
L 331.127326 177.718563 
L 331.973111 178.545299 
L 332.1923 178.710647 
L 332.298915 178.79332 
L 332.529952 179.537383 
L 333.064858 179.950752 
L 333.278089 180.281446 
L 333.366518 180.36412 
L 333.868424 180.612141 
L 334.047827 180.860162 
L 334.056718 180.942836 
L 334.307719 181.108183 
L 334.415344 181.27353 
L 334.578006 181.93492 
L 335.219741 182.265614 
L 335.465119 182.430962 
L 335.575381 184.828498 
L 335.819412 185.076519 
L 336.536497 185.489887 
L 336.839357 185.572561 
L 337.294645 186.23395 
L 337.700557 186.481971 
L 337.823164 186.647318 
L 338.024368 186.978013 
L 338.388856 187.226034 
L 338.524065 188.879507 
L 338.747214 189.127528 
L 338.876375 189.458223 
L 339.147636 189.788918 
L 339.46137 189.954265 
L 339.629532 190.28496 
L 340.550478 191.607738 
L 340.86596 192.765169 
L 340.959468 193.426559 
L 341.5285 194.335969 
L 341.681096 194.58399 
L 342.147455 194.749337 
L 342.166553 195.162706 
L 342.367668 195.245379 
L 342.459771 195.576074 
L 342.712097 195.741421 
L 343.344394 196.733505 
L 343.665916 196.898853 
L 344.014264 197.560242 
L 344.181639 200.205799 
L 344.791411 200.701841 
L 344.915755 201.36323 
L 344.955251 201.528578 
L 345.064532 205.083545 
L 345.262293 205.248892 
L 345.451744 205.744934 
L 345.728636 205.910282 
L 345.894551 206.240976 
L 346.015431 206.737018 
L 346.430089 207.150387 
L 346.696364 207.89445 
L 346.863221 213.598932 
L 347.053108 213.846953 
L 347.29923 214.012301 
L 347.509427 214.67369 
L 347.681818 214.756364 
L 347.681818 214.756364 
" style="fill:none;stroke:#ff0000;stroke-linecap:round;stroke-width:1.5;"/>
   </g>
   <g id="patch_3">
    <path d="M 28.1 224.64 
L 28.1 7.2 
" style="fill:none;stroke:#cccccc;stroke-linecap:square;stroke-linejoin:miter;stroke-width:0.8;"/>
   </g>
   <g id="patch_4">
    <path d="M 362.9 224.64 
L 362.9 7.2 
" style="fill:none;stroke:#cccccc;stroke-linecap:square;stroke-linejoin:miter;stroke-width:0.8;"/>
   </g>
   <g id="patch_5">
    <path d="M 28.1 224.64 
L 362.9 224.64 
" style="fill:none;stroke:#cccccc;stroke-linecap:square;stroke-linejoin:miter;stroke-width:0.8;"/>
   </g>
   <g id="patch_6">
    <path d="M 28.1 7.2 
L 362.9 7.2 
" style="fill:none;stroke:#cccccc;stroke-linecap:square;stroke-linejoin:miter;stroke-width:0.8;"/>
   </g>
  </g>
 </g>
 <defs>
  <clipPath id="pe23a08fd9e">
   <rect height="217.44" width="334.8" x="28.1" y="7.2"/>
  </clipPath>
 </defs>
</svg>
