<?xml version="1.0" encoding="utf-8" standalone="no"?>
<!DOCTYPE svg PUBLIC "-//W3C//DTD SVG 1.1//EN"
  "http://www.w3.org/Graphics/SVG/1.1/DTD/svg11.dtd">
<!-- Created with matplotlib (https://matplotlib.org/) -->
<svg height="493.30625pt" version="1.1" viewBox="0 0 638.920312 493.30625" width="638.920312pt" xmlns="http://www.w3.org/2000/svg" xmlns:xlink="http://www.w3.org/1999/xlink">
 <defs>
  <style type="text/css">
*{stroke-linecap:butt;stroke-linejoin:round;}
  </style>
 </defs>
 <g id="figure_1">
  <g id="patch_1">
   <path d="M 0 493.30625 
L 638.920312 493.30625 
L 638.920312 0 
L 0 0 
z
" style="fill:#ffffff;"/>
  </g>
  <g id="axes_1">
   <g id="patch_2">
    <path d="M 185.320312 456.815625 
L 631.720312 456.815625 
L 631.720312 21.935625 
L 185.320312 21.935625 
z
" style="fill:#ffffff;"/>
   </g>
   <g id="matplotlib.axis_1">
    <g id="xtick_1">
     <g id="line2d_1">
      <path clip-path="url(#p4de8dd7688)" d="M 185.320312 456.815625 
L 185.320312 21.935625 
" style="fill:none;stroke:#cccccc;stroke-linecap:round;stroke-width:0.8;"/>
     </g>
     <g id="text_1">
      <!-- 0 -->
      <defs>
       <path d="M 4.15625 35.296875 
Q 4.15625 48 6.765625 55.734375 
Q 9.375 63.484375 14.515625 67.671875 
Q 19.671875 71.875 27.484375 71.875 
Q 33.25 71.875 37.59375 69.546875 
Q 41.9375 67.234375 44.765625 62.859375 
Q 47.609375 58.5 49.21875 52.21875 
Q 50.828125 45.953125 50.828125 35.296875 
Q 50.828125 22.703125 48.234375 14.96875 
Q 45.65625 7.234375 40.5 3 
Q 35.359375 -1.21875 27.484375 -1.21875 
Q 17.140625 -1.21875 11.234375 6.203125 
Q 4.15625 15.140625 4.15625 35.296875 
z
M 13.1875 35.296875 
Q 13.1875 17.671875 17.3125 11.828125 
Q 21.4375 6 27.484375 6 
Q 33.546875 6 37.671875 11.859375 
Q 41.796875 17.71875 41.796875 35.296875 
Q 41.796875 52.984375 37.671875 58.78125 
Q 33.546875 64.59375 27.390625 64.59375 
Q 21.34375 64.59375 17.71875 59.46875 
Q 13.1875 52.9375 13.1875 35.296875 
z
" id="ArialMT-48"/>
      </defs>
      <g style="fill:#262626;" transform="translate(182.539844 470.973437)scale(0.1 -0.1)">
       <use xlink:href="#ArialMT-48"/>
      </g>
     </g>
    </g>
    <g id="xtick_2">
     <g id="line2d_2">
      <path clip-path="url(#p4de8dd7688)" d="M 276.085226 456.815625 
L 276.085226 21.935625 
" style="fill:none;stroke:#cccccc;stroke-linecap:round;stroke-width:0.8;"/>
     </g>
     <g id="text_2">
      <!-- 500 -->
      <defs>
       <path d="M 4.15625 18.75 
L 13.375 19.53125 
Q 14.40625 12.796875 18.140625 9.390625 
Q 21.875 6 27.15625 6 
Q 33.5 6 37.890625 10.78125 
Q 42.28125 15.578125 42.28125 23.484375 
Q 42.28125 31 38.0625 35.34375 
Q 33.84375 39.703125 27 39.703125 
Q 22.75 39.703125 19.328125 37.765625 
Q 15.921875 35.84375 13.96875 32.765625 
L 5.71875 33.84375 
L 12.640625 70.609375 
L 48.25 70.609375 
L 48.25 62.203125 
L 19.671875 62.203125 
L 15.828125 42.96875 
Q 22.265625 47.46875 29.34375 47.46875 
Q 38.71875 47.46875 45.15625 40.96875 
Q 51.609375 34.46875 51.609375 24.265625 
Q 51.609375 14.546875 45.953125 7.46875 
Q 39.0625 -1.21875 27.15625 -1.21875 
Q 17.390625 -1.21875 11.203125 4.25 
Q 5.03125 9.71875 4.15625 18.75 
z
" id="ArialMT-53"/>
      </defs>
      <g style="fill:#262626;" transform="translate(267.74382 470.973437)scale(0.1 -0.1)">
       <use xlink:href="#ArialMT-53"/>
       <use x="55.615234" xlink:href="#ArialMT-48"/>
       <use x="111.230469" xlink:href="#ArialMT-48"/>
      </g>
     </g>
    </g>
    <g id="xtick_3">
     <g id="line2d_3">
      <path clip-path="url(#p4de8dd7688)" d="M 366.85014 456.815625 
L 366.85014 21.935625 
" style="fill:none;stroke:#cccccc;stroke-linecap:round;stroke-width:0.8;"/>
     </g>
     <g id="text_3">
      <!-- 1000 -->
      <defs>
       <path d="M 37.25 0 
L 28.46875 0 
L 28.46875 56 
Q 25.296875 52.984375 20.140625 49.953125 
Q 14.984375 46.921875 10.890625 45.40625 
L 10.890625 53.90625 
Q 18.265625 57.375 23.78125 62.296875 
Q 29.296875 67.234375 31.59375 71.875 
L 37.25 71.875 
z
" id="ArialMT-49"/>
      </defs>
      <g style="fill:#262626;" transform="translate(355.728265 470.973437)scale(0.1 -0.1)">
       <use xlink:href="#ArialMT-49"/>
       <use x="55.615234" xlink:href="#ArialMT-48"/>
       <use x="111.230469" xlink:href="#ArialMT-48"/>
       <use x="166.845703" xlink:href="#ArialMT-48"/>
      </g>
     </g>
    </g>
    <g id="xtick_4">
     <g id="line2d_4">
      <path clip-path="url(#p4de8dd7688)" d="M 457.615054 456.815625 
L 457.615054 21.935625 
" style="fill:none;stroke:#cccccc;stroke-linecap:round;stroke-width:0.8;"/>
     </g>
     <g id="text_4">
      <!-- 1500 -->
      <g style="fill:#262626;" transform="translate(446.493179 470.973437)scale(0.1 -0.1)">
       <use xlink:href="#ArialMT-49"/>
       <use x="55.615234" xlink:href="#ArialMT-53"/>
       <use x="111.230469" xlink:href="#ArialMT-48"/>
       <use x="166.845703" xlink:href="#ArialMT-48"/>
      </g>
     </g>
    </g>
    <g id="xtick_5">
     <g id="line2d_5">
      <path clip-path="url(#p4de8dd7688)" d="M 548.379968 456.815625 
L 548.379968 21.935625 
" style="fill:none;stroke:#cccccc;stroke-linecap:round;stroke-width:0.8;"/>
     </g>
     <g id="text_5">
      <!-- 2000 -->
      <defs>
       <path d="M 50.34375 8.453125 
L 50.34375 0 
L 3.03125 0 
Q 2.9375 3.171875 4.046875 6.109375 
Q 5.859375 10.9375 9.828125 15.625 
Q 13.8125 20.3125 21.34375 26.46875 
Q 33.015625 36.03125 37.109375 41.625 
Q 41.21875 47.21875 41.21875 52.203125 
Q 41.21875 57.421875 37.46875 61 
Q 33.734375 64.59375 27.734375 64.59375 
Q 21.390625 64.59375 17.578125 60.78125 
Q 13.765625 56.984375 13.71875 50.25 
L 4.6875 51.171875 
Q 5.609375 61.28125 11.65625 66.578125 
Q 17.71875 71.875 27.9375 71.875 
Q 38.234375 71.875 44.234375 66.15625 
Q 50.25 60.453125 50.25 52 
Q 50.25 47.703125 48.484375 43.546875 
Q 46.734375 39.40625 42.65625 34.8125 
Q 38.578125 30.21875 29.109375 22.21875 
Q 21.1875 15.578125 18.9375 13.203125 
Q 16.703125 10.84375 15.234375 8.453125 
z
" id="ArialMT-50"/>
      </defs>
      <g style="fill:#262626;" transform="translate(537.258093 470.973437)scale(0.1 -0.1)">
       <use xlink:href="#ArialMT-50"/>
       <use x="55.615234" xlink:href="#ArialMT-48"/>
       <use x="111.230469" xlink:href="#ArialMT-48"/>
       <use x="166.845703" xlink:href="#ArialMT-48"/>
      </g>
     </g>
    </g>
    <g id="text_6">
     <!-- count -->
     <defs>
      <path d="M 40.4375 19 
L 49.078125 17.875 
Q 47.65625 8.9375 41.8125 3.875 
Q 35.984375 -1.171875 27.484375 -1.171875 
Q 16.84375 -1.171875 10.375 5.78125 
Q 3.90625 12.75 3.90625 25.734375 
Q 3.90625 34.125 6.6875 40.421875 
Q 9.46875 46.734375 15.15625 49.875 
Q 20.84375 53.03125 27.546875 53.03125 
Q 35.984375 53.03125 41.359375 48.75 
Q 46.734375 44.484375 48.25 36.625 
L 39.703125 35.296875 
Q 38.484375 40.53125 35.375 43.15625 
Q 32.28125 45.796875 27.875 45.796875 
Q 21.234375 45.796875 17.078125 41.03125 
Q 12.9375 36.28125 12.9375 25.984375 
Q 12.9375 15.53125 16.9375 10.796875 
Q 20.953125 6.0625 27.390625 6.0625 
Q 32.5625 6.0625 36.03125 9.234375 
Q 39.5 12.40625 40.4375 19 
z
" id="ArialMT-99"/>
      <path d="M 3.328125 25.921875 
Q 3.328125 40.328125 11.328125 47.265625 
Q 18.015625 53.03125 27.640625 53.03125 
Q 38.328125 53.03125 45.109375 46.015625 
Q 51.90625 39.015625 51.90625 26.65625 
Q 51.90625 16.65625 48.90625 10.90625 
Q 45.90625 5.171875 40.15625 2 
Q 34.421875 -1.171875 27.640625 -1.171875 
Q 16.75 -1.171875 10.03125 5.8125 
Q 3.328125 12.796875 3.328125 25.921875 
z
M 12.359375 25.921875 
Q 12.359375 15.96875 16.703125 11.015625 
Q 21.046875 6.0625 27.640625 6.0625 
Q 34.1875 6.0625 38.53125 11.03125 
Q 42.875 16.015625 42.875 26.21875 
Q 42.875 35.84375 38.5 40.796875 
Q 34.125 45.75 27.640625 45.75 
Q 21.046875 45.75 16.703125 40.8125 
Q 12.359375 35.890625 12.359375 25.921875 
z
" id="ArialMT-111"/>
      <path d="M 40.578125 0 
L 40.578125 7.625 
Q 34.515625 -1.171875 24.125 -1.171875 
Q 19.53125 -1.171875 15.546875 0.578125 
Q 11.578125 2.34375 9.640625 5 
Q 7.71875 7.671875 6.9375 11.53125 
Q 6.390625 14.109375 6.390625 19.734375 
L 6.390625 51.859375 
L 15.1875 51.859375 
L 15.1875 23.09375 
Q 15.1875 16.21875 15.71875 13.8125 
Q 16.546875 10.359375 19.234375 8.375 
Q 21.921875 6.390625 25.875 6.390625 
Q 29.828125 6.390625 33.296875 8.421875 
Q 36.765625 10.453125 38.203125 13.9375 
Q 39.65625 17.4375 39.65625 24.078125 
L 39.65625 51.859375 
L 48.4375 51.859375 
L 48.4375 0 
z
" id="ArialMT-117"/>
      <path d="M 6.59375 0 
L 6.59375 51.859375 
L 14.5 51.859375 
L 14.5 44.484375 
Q 20.21875 53.03125 31 53.03125 
Q 35.6875 53.03125 39.625 51.34375 
Q 43.5625 49.65625 45.515625 46.921875 
Q 47.46875 44.1875 48.25 40.4375 
Q 48.734375 37.984375 48.734375 31.890625 
L 48.734375 0 
L 39.9375 0 
L 39.9375 31.546875 
Q 39.9375 36.921875 38.90625 39.578125 
Q 37.890625 42.234375 35.28125 43.8125 
Q 32.671875 45.40625 29.15625 45.40625 
Q 23.53125 45.40625 19.453125 41.84375 
Q 15.375 38.28125 15.375 28.328125 
L 15.375 0 
z
" id="ArialMT-110"/>
      <path d="M 25.78125 7.859375 
L 27.046875 0.09375 
Q 23.34375 -0.6875 20.40625 -0.6875 
Q 15.625 -0.6875 12.984375 0.828125 
Q 10.359375 2.34375 9.28125 4.8125 
Q 8.203125 7.28125 8.203125 15.1875 
L 8.203125 45.015625 
L 1.765625 45.015625 
L 1.765625 51.859375 
L 8.203125 51.859375 
L 8.203125 64.703125 
L 16.9375 69.96875 
L 16.9375 51.859375 
L 25.78125 51.859375 
L 25.78125 45.015625 
L 16.9375 45.015625 
L 16.9375 14.703125 
Q 16.9375 10.9375 17.40625 9.859375 
Q 17.875 8.796875 18.921875 8.15625 
Q 19.96875 7.515625 21.921875 7.515625 
Q 23.390625 7.515625 25.78125 7.859375 
z
" id="ArialMT-116"/>
     </defs>
     <g style="fill:#262626;" transform="translate(396.289844 484.11875)scale(0.1 -0.1)">
      <use xlink:href="#ArialMT-99"/>
      <use x="50" xlink:href="#ArialMT-111"/>
      <use x="105.615234" xlink:href="#ArialMT-117"/>
      <use x="161.230469" xlink:href="#ArialMT-110"/>
      <use x="216.845703" xlink:href="#ArialMT-116"/>
     </g>
    </g>
   </g>
   <g id="matplotlib.axis_2">
    <g id="ytick_1">
     <g id="text_7">
      <!-- No Specialization -->
      <defs>
       <path d="M 7.625 0 
L 7.625 71.578125 
L 17.328125 71.578125 
L 54.9375 15.375 
L 54.9375 71.578125 
L 64.015625 71.578125 
L 64.015625 0 
L 54.296875 0 
L 16.703125 56.25 
L 16.703125 0 
z
" id="ArialMT-78"/>
       <path id="ArialMT-32"/>
       <path d="M 4.5 23 
L 13.421875 23.78125 
Q 14.0625 18.40625 16.375 14.96875 
Q 18.703125 11.53125 23.578125 9.40625 
Q 28.46875 7.28125 34.578125 7.28125 
Q 39.984375 7.28125 44.140625 8.890625 
Q 48.296875 10.5 50.3125 13.296875 
Q 52.34375 16.109375 52.34375 19.4375 
Q 52.34375 22.796875 50.390625 25.3125 
Q 48.4375 27.828125 43.953125 29.546875 
Q 41.0625 30.671875 31.203125 33.03125 
Q 21.34375 35.40625 17.390625 37.5 
Q 12.25 40.1875 9.734375 44.15625 
Q 7.234375 48.140625 7.234375 53.078125 
Q 7.234375 58.5 10.296875 63.203125 
Q 13.375 67.921875 19.28125 70.359375 
Q 25.203125 72.796875 32.421875 72.796875 
Q 40.375 72.796875 46.453125 70.234375 
Q 52.546875 67.671875 55.8125 62.6875 
Q 59.078125 57.71875 59.328125 51.421875 
L 50.25 50.734375 
Q 49.515625 57.515625 45.28125 60.984375 
Q 41.0625 64.453125 32.8125 64.453125 
Q 24.21875 64.453125 20.28125 61.296875 
Q 16.359375 58.15625 16.359375 53.71875 
Q 16.359375 49.859375 19.140625 47.359375 
Q 21.875 44.875 33.421875 42.265625 
Q 44.96875 39.65625 49.265625 37.703125 
Q 55.515625 34.8125 58.484375 30.390625 
Q 61.46875 25.984375 61.46875 20.21875 
Q 61.46875 14.5 58.203125 9.4375 
Q 54.9375 4.390625 48.796875 1.578125 
Q 42.671875 -1.21875 35.015625 -1.21875 
Q 25.296875 -1.21875 18.71875 1.609375 
Q 12.15625 4.4375 8.421875 10.125 
Q 4.6875 15.828125 4.5 23 
z
" id="ArialMT-83"/>
       <path d="M 6.59375 -19.875 
L 6.59375 51.859375 
L 14.59375 51.859375 
L 14.59375 45.125 
Q 17.4375 49.078125 21 51.046875 
Q 24.5625 53.03125 29.640625 53.03125 
Q 36.28125 53.03125 41.359375 49.609375 
Q 46.4375 46.1875 49.015625 39.953125 
Q 51.609375 33.734375 51.609375 26.3125 
Q 51.609375 18.359375 48.75 11.984375 
Q 45.90625 5.609375 40.453125 2.21875 
Q 35.015625 -1.171875 29 -1.171875 
Q 24.609375 -1.171875 21.109375 0.6875 
Q 17.625 2.546875 15.375 5.375 
L 15.375 -19.875 
z
M 14.546875 25.640625 
Q 14.546875 15.625 18.59375 10.84375 
Q 22.65625 6.0625 28.421875 6.0625 
Q 34.28125 6.0625 38.453125 11.015625 
Q 42.625 15.96875 42.625 26.375 
Q 42.625 36.28125 38.546875 41.203125 
Q 34.46875 46.140625 28.8125 46.140625 
Q 23.1875 46.140625 18.859375 40.890625 
Q 14.546875 35.640625 14.546875 25.640625 
z
" id="ArialMT-112"/>
       <path d="M 42.09375 16.703125 
L 51.171875 15.578125 
Q 49.03125 7.625 43.21875 3.21875 
Q 37.40625 -1.171875 28.375 -1.171875 
Q 17 -1.171875 10.328125 5.828125 
Q 3.65625 12.84375 3.65625 25.484375 
Q 3.65625 38.578125 10.390625 45.796875 
Q 17.140625 53.03125 27.875 53.03125 
Q 38.28125 53.03125 44.875 45.953125 
Q 51.46875 38.875 51.46875 26.03125 
Q 51.46875 25.25 51.421875 23.6875 
L 12.75 23.6875 
Q 13.234375 15.140625 17.578125 10.59375 
Q 21.921875 6.0625 28.421875 6.0625 
Q 33.25 6.0625 36.671875 8.59375 
Q 40.09375 11.140625 42.09375 16.703125 
z
M 13.234375 30.90625 
L 42.1875 30.90625 
Q 41.609375 37.453125 38.875 40.71875 
Q 34.671875 45.796875 27.984375 45.796875 
Q 21.921875 45.796875 17.796875 41.75 
Q 13.671875 37.703125 13.234375 30.90625 
z
" id="ArialMT-101"/>
       <path d="M 6.640625 61.46875 
L 6.640625 71.578125 
L 15.4375 71.578125 
L 15.4375 61.46875 
z
M 6.640625 0 
L 6.640625 51.859375 
L 15.4375 51.859375 
L 15.4375 0 
z
" id="ArialMT-105"/>
       <path d="M 40.4375 6.390625 
Q 35.546875 2.25 31.03125 0.53125 
Q 26.515625 -1.171875 21.34375 -1.171875 
Q 12.796875 -1.171875 8.203125 3 
Q 3.609375 7.171875 3.609375 13.671875 
Q 3.609375 17.484375 5.34375 20.625 
Q 7.078125 23.78125 9.890625 25.6875 
Q 12.703125 27.59375 16.21875 28.5625 
Q 18.796875 29.25 24.03125 29.890625 
Q 34.671875 31.15625 39.703125 32.90625 
Q 39.75 34.71875 39.75 35.203125 
Q 39.75 40.578125 37.25 42.78125 
Q 33.890625 45.75 27.25 45.75 
Q 21.046875 45.75 18.09375 43.578125 
Q 15.140625 41.40625 13.71875 35.890625 
L 5.125 37.0625 
Q 6.296875 42.578125 8.984375 45.96875 
Q 11.671875 49.359375 16.75 51.1875 
Q 21.828125 53.03125 28.515625 53.03125 
Q 35.15625 53.03125 39.296875 51.46875 
Q 43.453125 49.90625 45.40625 47.53125 
Q 47.359375 45.171875 48.140625 41.546875 
Q 48.578125 39.3125 48.578125 33.453125 
L 48.578125 21.734375 
Q 48.578125 9.46875 49.140625 6.21875 
Q 49.703125 2.984375 51.375 0 
L 42.1875 0 
Q 40.828125 2.734375 40.4375 6.390625 
z
M 39.703125 26.03125 
Q 34.90625 24.078125 25.34375 22.703125 
Q 19.921875 21.921875 17.671875 20.9375 
Q 15.4375 19.96875 14.203125 18.09375 
Q 12.984375 16.21875 12.984375 13.921875 
Q 12.984375 10.40625 15.640625 8.0625 
Q 18.3125 5.71875 23.4375 5.71875 
Q 28.515625 5.71875 32.46875 7.9375 
Q 36.421875 10.15625 38.28125 14.015625 
Q 39.703125 17 39.703125 22.796875 
z
" id="ArialMT-97"/>
       <path d="M 6.390625 0 
L 6.390625 71.578125 
L 15.1875 71.578125 
L 15.1875 0 
z
" id="ArialMT-108"/>
       <path d="M 1.953125 0 
L 1.953125 7.125 
L 34.96875 45.015625 
Q 29.34375 44.734375 25.046875 44.734375 
L 3.90625 44.734375 
L 3.90625 51.859375 
L 46.296875 51.859375 
L 46.296875 46.046875 
L 18.21875 13.140625 
L 12.796875 7.125 
Q 18.703125 7.5625 23.875 7.5625 
L 47.859375 7.5625 
L 47.859375 0 
z
" id="ArialMT-122"/>
      </defs>
      <g style="fill:#262626;" transform="translate(101.057812 39.165469)scale(0.1 -0.1)">
       <use xlink:href="#ArialMT-78"/>
       <use x="72.216797" xlink:href="#ArialMT-111"/>
       <use x="127.832031" xlink:href="#ArialMT-32"/>
       <use x="155.615234" xlink:href="#ArialMT-83"/>
       <use x="222.314453" xlink:href="#ArialMT-112"/>
       <use x="277.929688" xlink:href="#ArialMT-101"/>
       <use x="333.544922" xlink:href="#ArialMT-99"/>
       <use x="383.544922" xlink:href="#ArialMT-105"/>
       <use x="405.761719" xlink:href="#ArialMT-97"/>
       <use x="461.376953" xlink:href="#ArialMT-108"/>
       <use x="483.59375" xlink:href="#ArialMT-105"/>
       <use x="505.810547" xlink:href="#ArialMT-122"/>
       <use x="555.810547" xlink:href="#ArialMT-97"/>
       <use x="611.425781" xlink:href="#ArialMT-116"/>
       <use x="639.208984" xlink:href="#ArialMT-105"/>
       <use x="661.425781" xlink:href="#ArialMT-111"/>
       <use x="717.041016" xlink:href="#ArialMT-110"/>
      </g>
     </g>
    </g>
    <g id="ytick_2">
     <g id="text_8">
      <!-- Business Administration -->
      <defs>
       <path d="M 7.328125 0 
L 7.328125 71.578125 
L 34.1875 71.578125 
Q 42.390625 71.578125 47.34375 69.40625 
Q 52.296875 67.234375 55.09375 62.71875 
Q 57.90625 58.203125 57.90625 53.265625 
Q 57.90625 48.6875 55.421875 44.625 
Q 52.9375 40.578125 47.90625 38.09375 
Q 54.390625 36.1875 57.875 31.59375 
Q 61.375 27 61.375 20.75 
Q 61.375 15.71875 59.25 11.390625 
Q 57.125 7.078125 54 4.734375 
Q 50.875 2.390625 46.15625 1.1875 
Q 41.453125 0 34.625 0 
z
M 16.796875 41.5 
L 32.28125 41.5 
Q 38.578125 41.5 41.3125 42.328125 
Q 44.921875 43.40625 46.75 45.890625 
Q 48.578125 48.390625 48.578125 52.15625 
Q 48.578125 55.71875 46.875 58.421875 
Q 45.171875 61.140625 41.984375 62.140625 
Q 38.8125 63.140625 31.109375 63.140625 
L 16.796875 63.140625 
z
M 16.796875 8.453125 
L 34.625 8.453125 
Q 39.203125 8.453125 41.0625 8.796875 
Q 44.34375 9.375 46.53125 10.734375 
Q 48.734375 12.109375 50.140625 14.71875 
Q 51.5625 17.328125 51.5625 20.75 
Q 51.5625 24.75 49.515625 27.703125 
Q 47.46875 30.671875 43.828125 31.859375 
Q 40.1875 33.0625 33.34375 33.0625 
L 16.796875 33.0625 
z
" id="ArialMT-66"/>
       <path d="M 3.078125 15.484375 
L 11.765625 16.84375 
Q 12.5 11.625 15.84375 8.84375 
Q 19.1875 6.0625 25.203125 6.0625 
Q 31.25 6.0625 34.171875 8.515625 
Q 37.109375 10.984375 37.109375 14.3125 
Q 37.109375 17.28125 34.515625 19 
Q 32.71875 20.171875 25.53125 21.96875 
Q 15.875 24.421875 12.140625 26.203125 
Q 8.40625 27.984375 6.46875 31.125 
Q 4.546875 34.28125 4.546875 38.09375 
Q 4.546875 41.546875 6.125 44.5 
Q 7.71875 47.46875 10.453125 49.421875 
Q 12.5 50.921875 16.03125 51.96875 
Q 19.578125 53.03125 23.640625 53.03125 
Q 29.734375 53.03125 34.34375 51.265625 
Q 38.96875 49.515625 41.15625 46.5 
Q 43.359375 43.5 44.1875 38.484375 
L 35.59375 37.3125 
Q 35.015625 41.3125 32.203125 43.546875 
Q 29.390625 45.796875 24.265625 45.796875 
Q 18.21875 45.796875 15.625 43.796875 
Q 13.03125 41.796875 13.03125 39.109375 
Q 13.03125 37.40625 14.109375 36.03125 
Q 15.1875 34.625 17.484375 33.6875 
Q 18.796875 33.203125 25.25 31.453125 
Q 34.578125 28.953125 38.25 27.359375 
Q 41.9375 25.78125 44.03125 22.75 
Q 46.140625 19.734375 46.140625 15.234375 
Q 46.140625 10.84375 43.578125 6.953125 
Q 41.015625 3.078125 36.171875 0.953125 
Q 31.34375 -1.171875 25.25 -1.171875 
Q 15.140625 -1.171875 9.84375 3.03125 
Q 4.546875 7.234375 3.078125 15.484375 
z
" id="ArialMT-115"/>
       <path d="M -0.140625 0 
L 27.34375 71.578125 
L 37.546875 71.578125 
L 66.84375 0 
L 56.0625 0 
L 47.703125 21.6875 
L 17.78125 21.6875 
L 9.90625 0 
z
M 20.515625 29.390625 
L 44.78125 29.390625 
L 37.3125 49.21875 
Q 33.890625 58.25 32.234375 64.0625 
Q 30.859375 57.171875 28.375 50.390625 
z
" id="ArialMT-65"/>
       <path d="M 40.234375 0 
L 40.234375 6.546875 
Q 35.296875 -1.171875 25.734375 -1.171875 
Q 19.53125 -1.171875 14.328125 2.25 
Q 9.125 5.671875 6.265625 11.796875 
Q 3.421875 17.921875 3.421875 25.875 
Q 3.421875 33.640625 6 39.96875 
Q 8.59375 46.296875 13.765625 49.65625 
Q 18.953125 53.03125 25.34375 53.03125 
Q 30.03125 53.03125 33.6875 51.046875 
Q 37.359375 49.078125 39.65625 45.90625 
L 39.65625 71.578125 
L 48.390625 71.578125 
L 48.390625 0 
z
M 12.453125 25.875 
Q 12.453125 15.921875 16.640625 10.984375 
Q 20.84375 6.0625 26.5625 6.0625 
Q 32.328125 6.0625 36.34375 10.765625 
Q 40.375 15.484375 40.375 25.140625 
Q 40.375 35.796875 36.265625 40.765625 
Q 32.171875 45.75 26.171875 45.75 
Q 20.3125 45.75 16.375 40.96875 
Q 12.453125 36.1875 12.453125 25.875 
z
" id="ArialMT-100"/>
       <path d="M 6.59375 0 
L 6.59375 51.859375 
L 14.453125 51.859375 
L 14.453125 44.578125 
Q 16.890625 48.390625 20.9375 50.703125 
Q 25 53.03125 30.171875 53.03125 
Q 35.9375 53.03125 39.625 50.640625 
Q 43.3125 48.25 44.828125 43.953125 
Q 50.984375 53.03125 60.84375 53.03125 
Q 68.5625 53.03125 72.703125 48.75 
Q 76.859375 44.484375 76.859375 35.59375 
L 76.859375 0 
L 68.109375 0 
L 68.109375 32.671875 
Q 68.109375 37.9375 67.25 40.25 
Q 66.40625 42.578125 64.15625 43.984375 
Q 61.921875 45.40625 58.890625 45.40625 
Q 53.421875 45.40625 49.796875 41.765625 
Q 46.1875 38.140625 46.1875 30.125 
L 46.1875 0 
L 37.40625 0 
L 37.40625 33.6875 
Q 37.40625 39.546875 35.25 42.46875 
Q 33.109375 45.40625 28.21875 45.40625 
Q 24.515625 45.40625 21.359375 43.453125 
Q 18.21875 41.5 16.796875 37.734375 
Q 15.375 33.984375 15.375 26.90625 
L 15.375 0 
z
" id="ArialMT-109"/>
       <path d="M 6.5 0 
L 6.5 51.859375 
L 14.40625 51.859375 
L 14.40625 44 
Q 17.4375 49.515625 20 51.265625 
Q 22.5625 53.03125 25.640625 53.03125 
Q 30.078125 53.03125 34.671875 50.203125 
L 31.640625 42.046875 
Q 28.421875 43.953125 25.203125 43.953125 
Q 22.3125 43.953125 20.015625 42.21875 
Q 17.71875 40.484375 16.75 37.40625 
Q 15.28125 32.71875 15.28125 27.15625 
L 15.28125 0 
z
" id="ArialMT-114"/>
      </defs>
      <g style="fill:#262626;" transform="translate(71.61875 66.284531)scale(0.1 -0.1)">
       <use xlink:href="#ArialMT-66"/>
       <use x="66.699219" xlink:href="#ArialMT-117"/>
       <use x="122.314453" xlink:href="#ArialMT-115"/>
       <use x="172.314453" xlink:href="#ArialMT-105"/>
       <use x="194.53125" xlink:href="#ArialMT-110"/>
       <use x="250.146484" xlink:href="#ArialMT-101"/>
       <use x="305.761719" xlink:href="#ArialMT-115"/>
       <use x="355.761719" xlink:href="#ArialMT-115"/>
       <use x="405.761719" xlink:href="#ArialMT-32"/>
       <use x="433.466797" xlink:href="#ArialMT-65"/>
       <use x="500.166016" xlink:href="#ArialMT-100"/>
       <use x="555.78125" xlink:href="#ArialMT-109"/>
       <use x="639.082031" xlink:href="#ArialMT-105"/>
       <use x="661.298828" xlink:href="#ArialMT-110"/>
       <use x="716.914062" xlink:href="#ArialMT-105"/>
       <use x="739.130859" xlink:href="#ArialMT-115"/>
       <use x="789.130859" xlink:href="#ArialMT-116"/>
       <use x="816.914062" xlink:href="#ArialMT-114"/>
       <use x="850.214844" xlink:href="#ArialMT-97"/>
       <use x="905.830078" xlink:href="#ArialMT-116"/>
       <use x="933.613281" xlink:href="#ArialMT-105"/>
       <use x="955.830078" xlink:href="#ArialMT-111"/>
       <use x="1011.445312" xlink:href="#ArialMT-110"/>
      </g>
     </g>
    </g>
    <g id="ytick_3">
     <g id="text_9">
      <!-- Media and Advertising -->
      <defs>
       <path d="M 7.421875 0 
L 7.421875 71.578125 
L 21.6875 71.578125 
L 38.625 20.90625 
Q 40.96875 13.8125 42.046875 10.296875 
Q 43.265625 14.203125 45.84375 21.78125 
L 62.984375 71.578125 
L 75.734375 71.578125 
L 75.734375 0 
L 66.609375 0 
L 66.609375 59.90625 
L 45.796875 0 
L 37.25 0 
L 16.546875 60.9375 
L 16.546875 0 
z
" id="ArialMT-77"/>
       <path d="M 21 0 
L 1.265625 51.859375 
L 10.546875 51.859375 
L 21.6875 20.796875 
Q 23.484375 15.765625 25 10.359375 
Q 26.171875 14.453125 28.265625 20.21875 
L 39.796875 51.859375 
L 48.828125 51.859375 
L 29.203125 0 
z
" id="ArialMT-118"/>
       <path d="M 4.984375 -4.296875 
L 13.53125 -5.5625 
Q 14.0625 -9.515625 16.5 -11.328125 
Q 19.78125 -13.765625 25.4375 -13.765625 
Q 31.546875 -13.765625 34.859375 -11.328125 
Q 38.1875 -8.890625 39.359375 -4.5 
Q 40.046875 -1.8125 39.984375 6.78125 
Q 34.234375 0 25.640625 0 
Q 14.9375 0 9.078125 7.71875 
Q 3.21875 15.4375 3.21875 26.21875 
Q 3.21875 33.640625 5.90625 39.90625 
Q 8.59375 46.1875 13.6875 49.609375 
Q 18.796875 53.03125 25.6875 53.03125 
Q 34.859375 53.03125 40.828125 45.609375 
L 40.828125 51.859375 
L 48.921875 51.859375 
L 48.921875 7.03125 
Q 48.921875 -5.078125 46.453125 -10.125 
Q 44 -15.1875 38.640625 -18.109375 
Q 33.296875 -21.046875 25.484375 -21.046875 
Q 16.21875 -21.046875 10.5 -16.875 
Q 4.78125 -12.703125 4.984375 -4.296875 
z
M 12.25 26.859375 
Q 12.25 16.65625 16.296875 11.96875 
Q 20.359375 7.28125 26.46875 7.28125 
Q 32.515625 7.28125 36.609375 11.9375 
Q 40.71875 16.609375 40.71875 26.5625 
Q 40.71875 36.078125 36.5 40.90625 
Q 32.28125 45.75 26.3125 45.75 
Q 20.453125 45.75 16.34375 40.984375 
Q 12.25 36.234375 12.25 26.859375 
z
" id="ArialMT-103"/>
      </defs>
      <g style="fill:#262626;" transform="translate(79.389062 93.464531)scale(0.1 -0.1)">
       <use xlink:href="#ArialMT-77"/>
       <use x="83.300781" xlink:href="#ArialMT-101"/>
       <use x="138.916016" xlink:href="#ArialMT-100"/>
       <use x="194.53125" xlink:href="#ArialMT-105"/>
       <use x="216.748047" xlink:href="#ArialMT-97"/>
       <use x="272.363281" xlink:href="#ArialMT-32"/>
       <use x="300.146484" xlink:href="#ArialMT-97"/>
       <use x="355.761719" xlink:href="#ArialMT-110"/>
       <use x="411.376953" xlink:href="#ArialMT-100"/>
       <use x="466.992188" xlink:href="#ArialMT-32"/>
       <use x="494.697266" xlink:href="#ArialMT-65"/>
       <use x="561.396484" xlink:href="#ArialMT-100"/>
       <use x="617.011719" xlink:href="#ArialMT-118"/>
       <use x="667.011719" xlink:href="#ArialMT-101"/>
       <use x="722.626953" xlink:href="#ArialMT-114"/>
       <use x="755.927734" xlink:href="#ArialMT-116"/>
       <use x="783.710938" xlink:href="#ArialMT-105"/>
       <use x="805.927734" xlink:href="#ArialMT-115"/>
       <use x="855.927734" xlink:href="#ArialMT-105"/>
       <use x="878.144531" xlink:href="#ArialMT-110"/>
       <use x="933.759766" xlink:href="#ArialMT-103"/>
      </g>
     </g>
    </g>
    <g id="ytick_4">
     <g id="text_10">
      <!-- Supply Chain Management -->
      <defs>
       <path d="M 6.203125 -19.96875 
L 5.21875 -11.71875 
Q 8.109375 -12.5 10.25 -12.5 
Q 13.1875 -12.5 14.9375 -11.515625 
Q 16.703125 -10.546875 17.828125 -8.796875 
Q 18.65625 -7.46875 20.515625 -2.25 
Q 20.75 -1.515625 21.296875 -0.09375 
L 1.609375 51.859375 
L 11.078125 51.859375 
L 21.875 21.828125 
Q 23.96875 16.109375 25.640625 9.8125 
Q 27.15625 15.875 29.25 21.625 
L 40.328125 51.859375 
L 49.125 51.859375 
L 29.390625 -0.875 
Q 26.21875 -9.421875 24.46875 -12.640625 
Q 22.125 -17 19.09375 -19.015625 
Q 16.0625 -21.046875 11.859375 -21.046875 
Q 9.328125 -21.046875 6.203125 -19.96875 
z
" id="ArialMT-121"/>
       <path d="M 58.796875 25.09375 
L 68.265625 22.703125 
Q 65.28125 11.03125 57.546875 4.90625 
Q 49.8125 -1.21875 38.625 -1.21875 
Q 27.046875 -1.21875 19.796875 3.484375 
Q 12.546875 8.203125 8.765625 17.140625 
Q 4.984375 26.078125 4.984375 36.328125 
Q 4.984375 47.515625 9.25 55.828125 
Q 13.53125 64.15625 21.40625 68.46875 
Q 29.296875 72.796875 38.765625 72.796875 
Q 49.515625 72.796875 56.828125 67.328125 
Q 64.15625 61.859375 67.046875 51.953125 
L 57.71875 49.75 
Q 55.21875 57.5625 50.484375 61.125 
Q 45.75 64.703125 38.578125 64.703125 
Q 30.328125 64.703125 24.78125 60.734375 
Q 19.234375 56.78125 16.984375 50.109375 
Q 14.75 43.453125 14.75 36.375 
Q 14.75 27.25 17.40625 20.4375 
Q 20.0625 13.625 25.671875 10.25 
Q 31.296875 6.890625 37.84375 6.890625 
Q 45.796875 6.890625 51.3125 11.46875 
Q 56.84375 16.0625 58.796875 25.09375 
z
" id="ArialMT-67"/>
       <path d="M 6.59375 0 
L 6.59375 71.578125 
L 15.375 71.578125 
L 15.375 45.90625 
Q 21.53125 53.03125 30.90625 53.03125 
Q 36.671875 53.03125 40.921875 50.75 
Q 45.171875 48.484375 47 44.484375 
Q 48.828125 40.484375 48.828125 32.859375 
L 48.828125 0 
L 40.046875 0 
L 40.046875 32.859375 
Q 40.046875 39.453125 37.1875 42.453125 
Q 34.328125 45.453125 29.109375 45.453125 
Q 25.203125 45.453125 21.75 43.421875 
Q 18.3125 41.40625 16.84375 37.9375 
Q 15.375 34.46875 15.375 28.375 
L 15.375 0 
z
" id="ArialMT-104"/>
      </defs>
      <g style="fill:#262626;" transform="translate(57.698437 120.705469)scale(0.1 -0.1)">
       <use xlink:href="#ArialMT-83"/>
       <use x="66.699219" xlink:href="#ArialMT-117"/>
       <use x="122.314453" xlink:href="#ArialMT-112"/>
       <use x="177.929688" xlink:href="#ArialMT-112"/>
       <use x="233.544922" xlink:href="#ArialMT-108"/>
       <use x="255.761719" xlink:href="#ArialMT-121"/>
       <use x="305.761719" xlink:href="#ArialMT-32"/>
       <use x="333.544922" xlink:href="#ArialMT-67"/>
       <use x="405.761719" xlink:href="#ArialMT-104"/>
       <use x="461.376953" xlink:href="#ArialMT-97"/>
       <use x="516.992188" xlink:href="#ArialMT-105"/>
       <use x="539.208984" xlink:href="#ArialMT-110"/>
       <use x="594.824219" xlink:href="#ArialMT-32"/>
       <use x="622.607422" xlink:href="#ArialMT-77"/>
       <use x="705.908203" xlink:href="#ArialMT-97"/>
       <use x="761.523438" xlink:href="#ArialMT-110"/>
       <use x="817.138672" xlink:href="#ArialMT-97"/>
       <use x="872.753906" xlink:href="#ArialMT-103"/>
       <use x="928.369141" xlink:href="#ArialMT-101"/>
       <use x="983.984375" xlink:href="#ArialMT-109"/>
       <use x="1067.285156" xlink:href="#ArialMT-101"/>
       <use x="1122.900391" xlink:href="#ArialMT-110"/>
       <use x="1178.515625" xlink:href="#ArialMT-116"/>
      </g>
     </g>
    </g>
    <g id="ytick_5">
     <g id="text_11">
      <!-- IT Projects Management -->
      <defs>
       <path d="M 9.328125 0 
L 9.328125 71.578125 
L 18.796875 71.578125 
L 18.796875 0 
z
" id="ArialMT-73"/>
       <path d="M 25.921875 0 
L 25.921875 63.140625 
L 2.34375 63.140625 
L 2.34375 71.578125 
L 59.078125 71.578125 
L 59.078125 63.140625 
L 35.40625 63.140625 
L 35.40625 0 
z
" id="ArialMT-84"/>
       <path d="M 7.71875 0 
L 7.71875 71.578125 
L 34.71875 71.578125 
Q 41.84375 71.578125 45.609375 70.90625 
Q 50.875 70.015625 54.4375 67.546875 
Q 58.015625 65.09375 60.1875 60.640625 
Q 62.359375 56.203125 62.359375 50.875 
Q 62.359375 41.75 56.546875 35.421875 
Q 50.734375 29.109375 35.546875 29.109375 
L 17.1875 29.109375 
L 17.1875 0 
z
M 17.1875 37.546875 
L 35.6875 37.546875 
Q 44.875 37.546875 48.734375 40.96875 
Q 52.59375 44.390625 52.59375 50.59375 
Q 52.59375 55.078125 50.3125 58.265625 
Q 48.046875 61.46875 44.34375 62.5 
Q 41.9375 63.140625 35.5 63.140625 
L 17.1875 63.140625 
z
" id="ArialMT-80"/>
       <path d="M 6.546875 61.375 
L 6.546875 71.578125 
L 15.328125 71.578125 
L 15.328125 61.375 
z
M -4.59375 -20.125 
L -2.9375 -12.640625 
Q -0.296875 -13.328125 1.21875 -13.328125 
Q 3.90625 -13.328125 5.21875 -11.546875 
Q 6.546875 -9.765625 6.546875 -2.640625 
L 6.546875 51.859375 
L 15.328125 51.859375 
L 15.328125 -2.828125 
Q 15.328125 -12.40625 12.84375 -16.15625 
Q 9.671875 -21.046875 2.296875 -21.046875 
Q -1.265625 -21.046875 -4.59375 -20.125 
z
" id="ArialMT-106"/>
      </defs>
      <g style="fill:#262626;" transform="translate(69.39375 147.824531)scale(0.1 -0.1)">
       <use xlink:href="#ArialMT-73"/>
       <use x="27.783203" xlink:href="#ArialMT-84"/>
       <use x="88.851562" xlink:href="#ArialMT-32"/>
       <use x="116.634766" xlink:href="#ArialMT-80"/>
       <use x="183.333984" xlink:href="#ArialMT-114"/>
       <use x="216.634766" xlink:href="#ArialMT-111"/>
       <use x="272.25" xlink:href="#ArialMT-106"/>
       <use x="294.466797" xlink:href="#ArialMT-101"/>
       <use x="350.082031" xlink:href="#ArialMT-99"/>
       <use x="400.082031" xlink:href="#ArialMT-116"/>
       <use x="427.865234" xlink:href="#ArialMT-115"/>
       <use x="477.865234" xlink:href="#ArialMT-32"/>
       <use x="505.648438" xlink:href="#ArialMT-77"/>
       <use x="588.949219" xlink:href="#ArialMT-97"/>
       <use x="644.564453" xlink:href="#ArialMT-110"/>
       <use x="700.179688" xlink:href="#ArialMT-97"/>
       <use x="755.794922" xlink:href="#ArialMT-103"/>
       <use x="811.410156" xlink:href="#ArialMT-101"/>
       <use x="867.025391" xlink:href="#ArialMT-109"/>
       <use x="950.326172" xlink:href="#ArialMT-101"/>
       <use x="1005.941406" xlink:href="#ArialMT-110"/>
       <use x="1061.556641" xlink:href="#ArialMT-116"/>
      </g>
     </g>
    </g>
    <g id="ytick_6">
     <g id="text_12">
      <!-- Finance Management -->
      <defs>
       <path d="M 8.203125 0 
L 8.203125 71.578125 
L 56.5 71.578125 
L 56.5 63.140625 
L 17.671875 63.140625 
L 17.671875 40.96875 
L 51.265625 40.96875 
L 51.265625 32.515625 
L 17.671875 32.515625 
L 17.671875 0 
z
" id="ArialMT-70"/>
      </defs>
      <g style="fill:#262626;" transform="translate(81.604687 175.004531)scale(0.1 -0.1)">
       <use xlink:href="#ArialMT-70"/>
       <use x="61.083984" xlink:href="#ArialMT-105"/>
       <use x="83.300781" xlink:href="#ArialMT-110"/>
       <use x="138.916016" xlink:href="#ArialMT-97"/>
       <use x="194.53125" xlink:href="#ArialMT-110"/>
       <use x="250.146484" xlink:href="#ArialMT-99"/>
       <use x="300.146484" xlink:href="#ArialMT-101"/>
       <use x="355.761719" xlink:href="#ArialMT-32"/>
       <use x="383.544922" xlink:href="#ArialMT-77"/>
       <use x="466.845703" xlink:href="#ArialMT-97"/>
       <use x="522.460938" xlink:href="#ArialMT-110"/>
       <use x="578.076172" xlink:href="#ArialMT-97"/>
       <use x="633.691406" xlink:href="#ArialMT-103"/>
       <use x="689.306641" xlink:href="#ArialMT-101"/>
       <use x="744.921875" xlink:href="#ArialMT-109"/>
       <use x="828.222656" xlink:href="#ArialMT-101"/>
       <use x="883.837891" xlink:href="#ArialMT-110"/>
       <use x="939.453125" xlink:href="#ArialMT-116"/>
      </g>
     </g>
    </g>
    <g id="ytick_7">
     <g id="text_13">
      <!-- Travel and Tourism -->
      <g style="fill:#262626;" transform="translate(92.2125 202.184531)scale(0.1 -0.1)">
       <use xlink:href="#ArialMT-84"/>
       <use x="61.037109" xlink:href="#ArialMT-114"/>
       <use x="94.337891" xlink:href="#ArialMT-97"/>
       <use x="149.953125" xlink:href="#ArialMT-118"/>
       <use x="199.953125" xlink:href="#ArialMT-101"/>
       <use x="255.568359" xlink:href="#ArialMT-108"/>
       <use x="277.785156" xlink:href="#ArialMT-32"/>
       <use x="305.568359" xlink:href="#ArialMT-97"/>
       <use x="361.183594" xlink:href="#ArialMT-110"/>
       <use x="416.798828" xlink:href="#ArialMT-100"/>
       <use x="472.414062" xlink:href="#ArialMT-32"/>
       <use x="500.181641" xlink:href="#ArialMT-84"/>
       <use x="561.09375" xlink:href="#ArialMT-111"/>
       <use x="616.708984" xlink:href="#ArialMT-117"/>
       <use x="672.324219" xlink:href="#ArialMT-114"/>
       <use x="705.625" xlink:href="#ArialMT-105"/>
       <use x="727.841797" xlink:href="#ArialMT-115"/>
       <use x="777.841797" xlink:href="#ArialMT-109"/>
      </g>
     </g>
    </g>
    <g id="ytick_8">
     <g id="text_14">
      <!-- Human Resource Management -->
      <defs>
       <path d="M 8.015625 0 
L 8.015625 71.578125 
L 17.484375 71.578125 
L 17.484375 42.1875 
L 54.6875 42.1875 
L 54.6875 71.578125 
L 64.15625 71.578125 
L 64.15625 0 
L 54.6875 0 
L 54.6875 33.734375 
L 17.484375 33.734375 
L 17.484375 0 
z
" id="ArialMT-72"/>
       <path d="M 7.859375 0 
L 7.859375 71.578125 
L 39.59375 71.578125 
Q 49.171875 71.578125 54.140625 69.640625 
Q 59.125 67.71875 62.109375 62.828125 
Q 65.09375 57.953125 65.09375 52.046875 
Q 65.09375 44.4375 60.15625 39.203125 
Q 55.21875 33.984375 44.921875 32.5625 
Q 48.6875 30.765625 50.640625 29 
Q 54.78125 25.203125 58.5 19.484375 
L 70.953125 0 
L 59.03125 0 
L 49.5625 14.890625 
Q 45.40625 21.34375 42.71875 24.75 
Q 40.046875 28.171875 37.921875 29.53125 
Q 35.796875 30.90625 33.59375 31.453125 
Q 31.984375 31.78125 28.328125 31.78125 
L 17.328125 31.78125 
L 17.328125 0 
z
M 17.328125 39.984375 
L 37.703125 39.984375 
Q 44.1875 39.984375 47.84375 41.328125 
Q 51.515625 42.671875 53.421875 45.625 
Q 55.328125 48.578125 55.328125 52.046875 
Q 55.328125 57.125 51.640625 60.390625 
Q 47.953125 63.671875 39.984375 63.671875 
L 17.328125 63.671875 
z
" id="ArialMT-82"/>
      </defs>
      <g style="fill:#262626;" transform="translate(39.370312 229.364531)scale(0.1 -0.1)">
       <use xlink:href="#ArialMT-72"/>
       <use x="72.216797" xlink:href="#ArialMT-117"/>
       <use x="127.832031" xlink:href="#ArialMT-109"/>
       <use x="211.132812" xlink:href="#ArialMT-97"/>
       <use x="266.748047" xlink:href="#ArialMT-110"/>
       <use x="322.363281" xlink:href="#ArialMT-32"/>
       <use x="350.146484" xlink:href="#ArialMT-82"/>
       <use x="422.363281" xlink:href="#ArialMT-101"/>
       <use x="477.978516" xlink:href="#ArialMT-115"/>
       <use x="527.978516" xlink:href="#ArialMT-111"/>
       <use x="583.59375" xlink:href="#ArialMT-117"/>
       <use x="639.208984" xlink:href="#ArialMT-114"/>
       <use x="672.509766" xlink:href="#ArialMT-99"/>
       <use x="722.509766" xlink:href="#ArialMT-101"/>
       <use x="778.125" xlink:href="#ArialMT-32"/>
       <use x="805.908203" xlink:href="#ArialMT-77"/>
       <use x="889.208984" xlink:href="#ArialMT-97"/>
       <use x="944.824219" xlink:href="#ArialMT-110"/>
       <use x="1000.439453" xlink:href="#ArialMT-97"/>
       <use x="1056.054688" xlink:href="#ArialMT-103"/>
       <use x="1111.669922" xlink:href="#ArialMT-101"/>
       <use x="1167.285156" xlink:href="#ArialMT-109"/>
       <use x="1250.585938" xlink:href="#ArialMT-101"/>
       <use x="1306.201172" xlink:href="#ArialMT-110"/>
       <use x="1361.816406" xlink:href="#ArialMT-116"/>
      </g>
     </g>
    </g>
    <g id="ytick_9">
     <g id="text_15">
      <!-- Marketing Management -->
      <defs>
       <path d="M 6.640625 0 
L 6.640625 71.578125 
L 15.4375 71.578125 
L 15.4375 30.765625 
L 36.234375 51.859375 
L 47.609375 51.859375 
L 27.78125 32.625 
L 49.609375 0 
L 38.765625 0 
L 21.625 26.515625 
L 15.4375 20.5625 
L 15.4375 0 
z
" id="ArialMT-107"/>
      </defs>
      <g style="fill:#262626;" transform="translate(73.275 256.544531)scale(0.1 -0.1)">
       <use xlink:href="#ArialMT-77"/>
       <use x="83.300781" xlink:href="#ArialMT-97"/>
       <use x="138.916016" xlink:href="#ArialMT-114"/>
       <use x="172.216797" xlink:href="#ArialMT-107"/>
       <use x="222.216797" xlink:href="#ArialMT-101"/>
       <use x="277.832031" xlink:href="#ArialMT-116"/>
       <use x="305.615234" xlink:href="#ArialMT-105"/>
       <use x="327.832031" xlink:href="#ArialMT-110"/>
       <use x="383.447266" xlink:href="#ArialMT-103"/>
       <use x="439.0625" xlink:href="#ArialMT-32"/>
       <use x="466.845703" xlink:href="#ArialMT-77"/>
       <use x="550.146484" xlink:href="#ArialMT-97"/>
       <use x="605.761719" xlink:href="#ArialMT-110"/>
       <use x="661.376953" xlink:href="#ArialMT-97"/>
       <use x="716.992188" xlink:href="#ArialMT-103"/>
       <use x="772.607422" xlink:href="#ArialMT-101"/>
       <use x="828.222656" xlink:href="#ArialMT-109"/>
       <use x="911.523438" xlink:href="#ArialMT-101"/>
       <use x="967.138672" xlink:href="#ArialMT-110"/>
       <use x="1022.753906" xlink:href="#ArialMT-116"/>
      </g>
     </g>
    </g>
    <g id="ytick_10">
     <g id="text_16">
      <!-- Banking, Investment And Insurance -->
      <defs>
       <path d="M 8.890625 0 
L 8.890625 10.015625 
L 18.890625 10.015625 
L 18.890625 0 
Q 18.890625 -5.515625 16.9375 -8.90625 
Q 14.984375 -12.3125 10.75 -14.15625 
L 8.296875 -10.40625 
Q 11.078125 -9.1875 12.390625 -6.8125 
Q 13.71875 -4.4375 13.875 0 
z
" id="ArialMT-44"/>
      </defs>
      <g style="fill:#262626;" transform="translate(20.467187 283.724531)scale(0.1 -0.1)">
       <use xlink:href="#ArialMT-66"/>
       <use x="66.699219" xlink:href="#ArialMT-97"/>
       <use x="122.314453" xlink:href="#ArialMT-110"/>
       <use x="177.929688" xlink:href="#ArialMT-107"/>
       <use x="227.929688" xlink:href="#ArialMT-105"/>
       <use x="250.146484" xlink:href="#ArialMT-110"/>
       <use x="305.761719" xlink:href="#ArialMT-103"/>
       <use x="361.376953" xlink:href="#ArialMT-44"/>
       <use x="389.160156" xlink:href="#ArialMT-32"/>
       <use x="416.943359" xlink:href="#ArialMT-73"/>
       <use x="444.726562" xlink:href="#ArialMT-110"/>
       <use x="500.341797" xlink:href="#ArialMT-118"/>
       <use x="550.341797" xlink:href="#ArialMT-101"/>
       <use x="605.957031" xlink:href="#ArialMT-115"/>
       <use x="655.957031" xlink:href="#ArialMT-116"/>
       <use x="683.740234" xlink:href="#ArialMT-109"/>
       <use x="767.041016" xlink:href="#ArialMT-101"/>
       <use x="822.65625" xlink:href="#ArialMT-110"/>
       <use x="878.271484" xlink:href="#ArialMT-116"/>
       <use x="906.054688" xlink:href="#ArialMT-32"/>
       <use x="933.759766" xlink:href="#ArialMT-65"/>
       <use x="1000.458984" xlink:href="#ArialMT-110"/>
       <use x="1056.074219" xlink:href="#ArialMT-100"/>
       <use x="1111.689453" xlink:href="#ArialMT-32"/>
       <use x="1139.472656" xlink:href="#ArialMT-73"/>
       <use x="1167.255859" xlink:href="#ArialMT-110"/>
       <use x="1222.871094" xlink:href="#ArialMT-115"/>
       <use x="1272.871094" xlink:href="#ArialMT-117"/>
       <use x="1328.486328" xlink:href="#ArialMT-114"/>
       <use x="1361.787109" xlink:href="#ArialMT-97"/>
       <use x="1417.402344" xlink:href="#ArialMT-110"/>
       <use x="1473.017578" xlink:href="#ArialMT-99"/>
       <use x="1523.017578" xlink:href="#ArialMT-101"/>
      </g>
     </g>
    </g>
    <g id="ytick_11">
     <g id="text_17">
      <!-- International Business -->
      <g style="fill:#262626;" transform="translate(79.932812 310.904531)scale(0.1 -0.1)">
       <use xlink:href="#ArialMT-73"/>
       <use x="27.783203" xlink:href="#ArialMT-110"/>
       <use x="83.398438" xlink:href="#ArialMT-116"/>
       <use x="111.181641" xlink:href="#ArialMT-101"/>
       <use x="166.796875" xlink:href="#ArialMT-114"/>
       <use x="200.097656" xlink:href="#ArialMT-110"/>
       <use x="255.712891" xlink:href="#ArialMT-97"/>
       <use x="311.328125" xlink:href="#ArialMT-116"/>
       <use x="339.111328" xlink:href="#ArialMT-105"/>
       <use x="361.328125" xlink:href="#ArialMT-111"/>
       <use x="416.943359" xlink:href="#ArialMT-110"/>
       <use x="472.558594" xlink:href="#ArialMT-97"/>
       <use x="528.173828" xlink:href="#ArialMT-108"/>
       <use x="550.390625" xlink:href="#ArialMT-32"/>
       <use x="578.173828" xlink:href="#ArialMT-66"/>
       <use x="644.873047" xlink:href="#ArialMT-117"/>
       <use x="700.488281" xlink:href="#ArialMT-115"/>
       <use x="750.488281" xlink:href="#ArialMT-105"/>
       <use x="772.705078" xlink:href="#ArialMT-110"/>
       <use x="828.320312" xlink:href="#ArialMT-101"/>
       <use x="883.935547" xlink:href="#ArialMT-115"/>
       <use x="933.935547" xlink:href="#ArialMT-115"/>
      </g>
     </g>
    </g>
    <g id="ytick_12">
     <g id="text_18">
      <!-- E-COMMERCE -->
      <defs>
       <path d="M 7.90625 0 
L 7.90625 71.578125 
L 59.671875 71.578125 
L 59.671875 63.140625 
L 17.390625 63.140625 
L 17.390625 41.21875 
L 56.984375 41.21875 
L 56.984375 32.8125 
L 17.390625 32.8125 
L 17.390625 8.453125 
L 61.328125 8.453125 
L 61.328125 0 
z
" id="ArialMT-69"/>
       <path d="M 3.171875 21.484375 
L 3.171875 30.328125 
L 30.171875 30.328125 
L 30.171875 21.484375 
z
" id="ArialMT-45"/>
       <path d="M 4.828125 34.859375 
Q 4.828125 52.6875 14.390625 62.765625 
Q 23.96875 72.859375 39.109375 72.859375 
Q 49.03125 72.859375 56.984375 68.109375 
Q 64.9375 63.375 69.109375 54.90625 
Q 73.296875 46.4375 73.296875 35.6875 
Q 73.296875 24.8125 68.890625 16.21875 
Q 64.5 7.625 56.4375 3.203125 
Q 48.390625 -1.21875 39.0625 -1.21875 
Q 28.953125 -1.21875 20.984375 3.65625 
Q 13.03125 8.546875 8.921875 16.984375 
Q 4.828125 25.4375 4.828125 34.859375 
z
M 14.59375 34.71875 
Q 14.59375 21.78125 21.546875 14.328125 
Q 28.515625 6.890625 39.015625 6.890625 
Q 49.703125 6.890625 56.609375 14.40625 
Q 63.53125 21.921875 63.53125 35.75 
Q 63.53125 44.484375 60.578125 51 
Q 57.625 57.515625 51.921875 61.109375 
Q 46.234375 64.703125 39.15625 64.703125 
Q 29.109375 64.703125 21.84375 57.78125 
Q 14.59375 50.875 14.59375 34.71875 
z
" id="ArialMT-79"/>
      </defs>
      <g style="fill:#262626;" transform="translate(108.876562 338.084531)scale(0.1 -0.1)">
       <use xlink:href="#ArialMT-69"/>
       <use x="66.699219" xlink:href="#ArialMT-45"/>
       <use x="100" xlink:href="#ArialMT-67"/>
       <use x="172.216797" xlink:href="#ArialMT-79"/>
       <use x="250" xlink:href="#ArialMT-77"/>
       <use x="333.300781" xlink:href="#ArialMT-77"/>
       <use x="416.601562" xlink:href="#ArialMT-69"/>
       <use x="483.300781" xlink:href="#ArialMT-82"/>
       <use x="555.517578" xlink:href="#ArialMT-67"/>
       <use x="627.734375" xlink:href="#ArialMT-69"/>
      </g>
     </g>
    </g>
    <g id="ytick_13">
     <g id="text_19">
      <!-- Operations Management -->
      <g style="fill:#262626;" transform="translate(68.265625 365.328594)scale(0.1 -0.1)">
       <use xlink:href="#ArialMT-79"/>
       <use x="77.783203" xlink:href="#ArialMT-112"/>
       <use x="133.398438" xlink:href="#ArialMT-101"/>
       <use x="189.013672" xlink:href="#ArialMT-114"/>
       <use x="222.314453" xlink:href="#ArialMT-97"/>
       <use x="277.929688" xlink:href="#ArialMT-116"/>
       <use x="305.712891" xlink:href="#ArialMT-105"/>
       <use x="327.929688" xlink:href="#ArialMT-111"/>
       <use x="383.544922" xlink:href="#ArialMT-110"/>
       <use x="439.160156" xlink:href="#ArialMT-115"/>
       <use x="489.160156" xlink:href="#ArialMT-32"/>
       <use x="516.943359" xlink:href="#ArialMT-77"/>
       <use x="600.244141" xlink:href="#ArialMT-97"/>
       <use x="655.859375" xlink:href="#ArialMT-110"/>
       <use x="711.474609" xlink:href="#ArialMT-97"/>
       <use x="767.089844" xlink:href="#ArialMT-103"/>
       <use x="822.705078" xlink:href="#ArialMT-101"/>
       <use x="878.320312" xlink:href="#ArialMT-109"/>
       <use x="961.621094" xlink:href="#ArialMT-101"/>
       <use x="1017.236328" xlink:href="#ArialMT-110"/>
       <use x="1072.851562" xlink:href="#ArialMT-116"/>
      </g>
     </g>
    </g>
    <g id="ytick_14">
     <g id="text_20">
      <!-- Other Specialization -->
      <g style="fill:#262626;" transform="translate(88.832812 392.508594)scale(0.1 -0.1)">
       <use xlink:href="#ArialMT-79"/>
       <use x="77.783203" xlink:href="#ArialMT-116"/>
       <use x="105.566406" xlink:href="#ArialMT-104"/>
       <use x="161.181641" xlink:href="#ArialMT-101"/>
       <use x="216.796875" xlink:href="#ArialMT-114"/>
       <use x="250.097656" xlink:href="#ArialMT-32"/>
       <use x="277.880859" xlink:href="#ArialMT-83"/>
       <use x="344.580078" xlink:href="#ArialMT-112"/>
       <use x="400.195312" xlink:href="#ArialMT-101"/>
       <use x="455.810547" xlink:href="#ArialMT-99"/>
       <use x="505.810547" xlink:href="#ArialMT-105"/>
       <use x="528.027344" xlink:href="#ArialMT-97"/>
       <use x="583.642578" xlink:href="#ArialMT-108"/>
       <use x="605.859375" xlink:href="#ArialMT-105"/>
       <use x="628.076172" xlink:href="#ArialMT-122"/>
       <use x="678.076172" xlink:href="#ArialMT-97"/>
       <use x="733.691406" xlink:href="#ArialMT-116"/>
       <use x="761.474609" xlink:href="#ArialMT-105"/>
       <use x="783.691406" xlink:href="#ArialMT-111"/>
       <use x="839.306641" xlink:href="#ArialMT-110"/>
      </g>
     </g>
    </g>
    <g id="ytick_15">
     <g id="text_21">
      <!-- Hospitality Management -->
      <g style="fill:#262626;" transform="translate(71.051562 419.624531)scale(0.1 -0.1)">
       <use xlink:href="#ArialMT-72"/>
       <use x="72.216797" xlink:href="#ArialMT-111"/>
       <use x="127.832031" xlink:href="#ArialMT-115"/>
       <use x="177.832031" xlink:href="#ArialMT-112"/>
       <use x="233.447266" xlink:href="#ArialMT-105"/>
       <use x="255.664062" xlink:href="#ArialMT-116"/>
       <use x="283.447266" xlink:href="#ArialMT-97"/>
       <use x="339.0625" xlink:href="#ArialMT-108"/>
       <use x="361.279297" xlink:href="#ArialMT-105"/>
       <use x="383.496094" xlink:href="#ArialMT-116"/>
       <use x="411.279297" xlink:href="#ArialMT-121"/>
       <use x="461.279297" xlink:href="#ArialMT-32"/>
       <use x="489.0625" xlink:href="#ArialMT-77"/>
       <use x="572.363281" xlink:href="#ArialMT-97"/>
       <use x="627.978516" xlink:href="#ArialMT-110"/>
       <use x="683.59375" xlink:href="#ArialMT-97"/>
       <use x="739.208984" xlink:href="#ArialMT-103"/>
       <use x="794.824219" xlink:href="#ArialMT-101"/>
       <use x="850.439453" xlink:href="#ArialMT-109"/>
       <use x="933.740234" xlink:href="#ArialMT-101"/>
       <use x="989.355469" xlink:href="#ArialMT-110"/>
       <use x="1044.970703" xlink:href="#ArialMT-116"/>
      </g>
     </g>
    </g>
    <g id="ytick_16">
     <g id="text_22">
      <!-- Healthcare Management -->
      <g style="fill:#262626;" transform="translate(68.821875 446.804531)scale(0.1 -0.1)">
       <use xlink:href="#ArialMT-72"/>
       <use x="72.216797" xlink:href="#ArialMT-101"/>
       <use x="127.832031" xlink:href="#ArialMT-97"/>
       <use x="183.447266" xlink:href="#ArialMT-108"/>
       <use x="205.664062" xlink:href="#ArialMT-116"/>
       <use x="233.447266" xlink:href="#ArialMT-104"/>
       <use x="289.0625" xlink:href="#ArialMT-99"/>
       <use x="339.0625" xlink:href="#ArialMT-97"/>
       <use x="394.677734" xlink:href="#ArialMT-114"/>
       <use x="427.978516" xlink:href="#ArialMT-101"/>
       <use x="483.59375" xlink:href="#ArialMT-32"/>
       <use x="511.376953" xlink:href="#ArialMT-77"/>
       <use x="594.677734" xlink:href="#ArialMT-97"/>
       <use x="650.292969" xlink:href="#ArialMT-110"/>
       <use x="705.908203" xlink:href="#ArialMT-97"/>
       <use x="761.523438" xlink:href="#ArialMT-103"/>
       <use x="817.138672" xlink:href="#ArialMT-101"/>
       <use x="872.753906" xlink:href="#ArialMT-109"/>
       <use x="956.054688" xlink:href="#ArialMT-101"/>
       <use x="1011.669922" xlink:href="#ArialMT-110"/>
       <use x="1067.285156" xlink:href="#ArialMT-116"/>
      </g>
     </g>
    </g>
    <g id="text_23">
     <!-- Specialization -->
     <g style="fill:#262626;" transform="translate(14.479687 270.226406)rotate(-90)scale(0.1 -0.1)">
      <use xlink:href="#ArialMT-83"/>
      <use x="66.699219" xlink:href="#ArialMT-112"/>
      <use x="122.314453" xlink:href="#ArialMT-101"/>
      <use x="177.929688" xlink:href="#ArialMT-99"/>
      <use x="227.929688" xlink:href="#ArialMT-105"/>
      <use x="250.146484" xlink:href="#ArialMT-97"/>
      <use x="305.761719" xlink:href="#ArialMT-108"/>
      <use x="327.978516" xlink:href="#ArialMT-105"/>
      <use x="350.195312" xlink:href="#ArialMT-122"/>
      <use x="400.195312" xlink:href="#ArialMT-97"/>
      <use x="455.810547" xlink:href="#ArialMT-116"/>
      <use x="483.59375" xlink:href="#ArialMT-105"/>
      <use x="505.810547" xlink:href="#ArialMT-111"/>
      <use x="561.425781" xlink:href="#ArialMT-110"/>
     </g>
    </g>
   </g>
   <g id="patch_3">
    <path clip-path="url(#p4de8dd7688)" d="M 185.320312 24.653625 
L 610.46317 24.653625 
L 610.46317 35.525625 
L 185.320312 35.525625 
z
" style="fill:#3274a1;stroke:#ffffff;stroke-linejoin:miter;"/>
   </g>
   <g id="patch_4">
    <path clip-path="url(#p4de8dd7688)" d="M 185.320312 51.833625 
L 225.619934 51.833625 
L 225.619934 62.705625 
L 185.320312 62.705625 
z
" style="fill:#3274a1;stroke:#ffffff;stroke-linejoin:miter;"/>
   </g>
   <g id="patch_5">
    <path clip-path="url(#p4de8dd7688)" d="M 185.320312 79.013625 
L 206.740832 79.013625 
L 206.740832 89.885625 
L 185.320312 89.885625 
z
" style="fill:#3274a1;stroke:#ffffff;stroke-linejoin:miter;"/>
   </g>
   <g id="patch_6">
    <path clip-path="url(#p4de8dd7688)" d="M 185.320312 106.193625 
L 221.081689 106.193625 
L 221.081689 117.065625 
L 185.320312 117.065625 
z
" style="fill:#3274a1;stroke:#ffffff;stroke-linejoin:miter;"/>
   </g>
   <g id="patch_7">
    <path clip-path="url(#p4de8dd7688)" d="M 185.320312 133.373625 
L 226.346054 133.373625 
L 226.346054 144.245625 
L 185.320312 144.245625 
z
" style="fill:#3274a1;stroke:#ffffff;stroke-linejoin:miter;"/>
   </g>
   <g id="patch_8">
    <path clip-path="url(#p4de8dd7688)" d="M 185.320312 160.553625 
L 282.80183 160.553625 
L 282.80183 171.425625 
L 185.320312 171.425625 
z
" style="fill:#3274a1;stroke:#ffffff;stroke-linejoin:miter;"/>
   </g>
   <g id="patch_9">
    <path clip-path="url(#p4de8dd7688)" d="M 185.320312 187.733625 
L 209.10072 187.733625 
L 209.10072 198.605625 
L 185.320312 198.605625 
z
" style="fill:#3274a1;stroke:#ffffff;stroke-linejoin:miter;"/>
   </g>
   <g id="patch_10">
    <path clip-path="url(#p4de8dd7688)" d="M 185.320312 214.913625 
L 268.279444 214.913625 
L 268.279444 225.785625 
L 185.320312 225.785625 
z
" style="fill:#3274a1;stroke:#ffffff;stroke-linejoin:miter;"/>
   </g>
   <g id="patch_11">
    <path clip-path="url(#p4de8dd7688)" d="M 185.320312 242.093625 
L 262.470489 242.093625 
L 262.470489 252.965625 
L 185.320312 252.965625 
z
" style="fill:#3274a1;stroke:#ffffff;stroke-linejoin:miter;"/>
   </g>
   <g id="patch_12">
    <path clip-path="url(#p4de8dd7688)" d="M 185.320312 269.273625 
L 216.361913 269.273625 
L 216.361913 280.145625 
L 185.320312 280.145625 
z
" style="fill:#3274a1;stroke:#ffffff;stroke-linejoin:miter;"/>
   </g>
   <g id="patch_13">
    <path clip-path="url(#p4de8dd7688)" d="M 185.320312 296.453625 
L 206.014713 296.453625 
L 206.014713 307.325625 
L 185.320312 307.325625 
z
" style="fill:#3274a1;stroke:#ffffff;stroke-linejoin:miter;"/>
   </g>
   <g id="patch_14">
    <path clip-path="url(#p4de8dd7688)" d="M 185.320312 323.633625 
L 198.39046 323.633625 
L 198.39046 334.505625 
L 185.320312 334.505625 
z
" style="fill:#3274a1;stroke:#ffffff;stroke-linejoin:miter;"/>
   </g>
   <g id="patch_15">
    <path clip-path="url(#p4de8dd7688)" d="M 185.320312 350.813625 
L 233.244187 350.813625 
L 233.244187 361.685625 
L 185.320312 361.685625 
z
" style="fill:#3274a1;stroke:#ffffff;stroke-linejoin:miter;"/>
   </g>
   <g id="patch_16">
    <path clip-path="url(#p4de8dd7688)" d="M 185.320312 377.993625 
L 216.724973 377.993625 
L 216.724973 388.865625 
L 185.320312 388.865625 
z
" style="fill:#3274a1;stroke:#ffffff;stroke-linejoin:miter;"/>
   </g>
   <g id="patch_17">
    <path clip-path="url(#p4de8dd7688)" d="M 185.320312 405.173625 
L 197.301281 405.173625 
L 197.301281 416.045625 
L 185.320312 416.045625 
z
" style="fill:#3274a1;stroke:#ffffff;stroke-linejoin:miter;"/>
   </g>
   <g id="patch_18">
    <path clip-path="url(#p4de8dd7688)" d="M 185.320312 432.353625 
L 199.842699 432.353625 
L 199.842699 443.225625 
L 185.320312 443.225625 
z
" style="fill:#3274a1;stroke:#ffffff;stroke-linejoin:miter;"/>
   </g>
   <g id="patch_19">
    <path clip-path="url(#p4de8dd7688)" d="M 185.320312 35.525625 
L 346.5188 35.525625 
L 346.5188 46.397625 
L 185.320312 46.397625 
z
" style="fill:#e1812c;stroke:#ffffff;stroke-linejoin:miter;"/>
   </g>
   <g id="patch_20">
    <path clip-path="url(#p4de8dd7688)" d="M 185.320312 62.705625 
L 217.088032 62.705625 
L 217.088032 73.577625 
L 185.320312 73.577625 
z
" style="fill:#e1812c;stroke:#ffffff;stroke-linejoin:miter;"/>
   </g>
   <g id="patch_21">
    <path clip-path="url(#p4de8dd7688)" d="M 185.320312 89.885625 
L 200.568818 89.885625 
L 200.568818 100.757625 
L 185.320312 100.757625 
z
" style="fill:#e1812c;stroke:#ffffff;stroke-linejoin:miter;"/>
   </g>
   <g id="patch_22">
    <path clip-path="url(#p4de8dd7688)" d="M 185.320312 117.065625 
L 212.005197 117.065625 
L 212.005197 127.937625 
L 185.320312 127.937625 
z
" style="fill:#e1812c;stroke:#ffffff;stroke-linejoin:miter;"/>
   </g>
   <g id="patch_23">
    <path clip-path="url(#p4de8dd7688)" d="M 185.320312 144.245625 
L 210.734488 144.245625 
L 210.734488 155.117625 
L 185.320312 155.117625 
z
" style="fill:#e1812c;stroke:#ffffff;stroke-linejoin:miter;"/>
   </g>
   <g id="patch_24">
    <path clip-path="url(#p4de8dd7688)" d="M 185.320312 171.425625 
L 261.9259 171.425625 
L 261.9259 182.297625 
L 185.320312 182.297625 
z
" style="fill:#e1812c;stroke:#ffffff;stroke-linejoin:miter;"/>
   </g>
   <g id="patch_25">
    <path clip-path="url(#p4de8dd7688)" d="M 185.320312 198.605625 
L 198.20893 198.605625 
L 198.20893 209.477625 
L 185.320312 209.477625 
z
" style="fill:#e1812c;stroke:#ffffff;stroke-linejoin:miter;"/>
   </g>
   <g id="patch_26">
    <path clip-path="url(#p4de8dd7688)" d="M 185.320312 225.785625 
L 254.120117 225.785625 
L 254.120117 236.657625 
L 185.320312 236.657625 
z
" style="fill:#e1812c;stroke:#ffffff;stroke-linejoin:miter;"/>
   </g>
   <g id="patch_27">
    <path clip-path="url(#p4de8dd7688)" d="M 185.320312 252.965625 
L 257.387654 252.965625 
L 257.387654 263.837625 
L 185.320312 263.837625 
z
" style="fill:#e1812c;stroke:#ffffff;stroke-linejoin:miter;"/>
   </g>
   <g id="patch_28">
    <path clip-path="url(#p4de8dd7688)" d="M 185.320312 280.145625 
L 215.091204 280.145625 
L 215.091204 291.017625 
L 185.320312 291.017625 
z
" style="fill:#e1812c;stroke:#ffffff;stroke-linejoin:miter;"/>
   </g>
   <g id="patch_29">
    <path clip-path="url(#p4de8dd7688)" d="M 185.320312 307.325625 
L 196.575162 307.325625 
L 196.575162 318.197625 
L 185.320312 318.197625 
z
" style="fill:#e1812c;stroke:#ffffff;stroke-linejoin:miter;"/>
   </g>
   <g id="patch_30">
    <path clip-path="url(#p4de8dd7688)" d="M 185.320312 334.505625 
L 192.399976 334.505625 
L 192.399976 345.377625 
L 185.320312 345.377625 
z
" style="fill:#e1812c;stroke:#ffffff;stroke-linejoin:miter;"/>
   </g>
   <g id="patch_31">
    <path clip-path="url(#p4de8dd7688)" d="M 185.320312 361.685625 
L 227.798292 361.685625 
L 227.798292 372.557625 
L 185.320312 372.557625 
z
" style="fill:#e1812c;stroke:#ffffff;stroke-linejoin:miter;"/>
   </g>
   <g id="patch_32">
    <path clip-path="url(#p4de8dd7688)" d="M 185.320312 388.865625 
L 202.928706 388.865625 
L 202.928706 399.737625 
L 185.320312 399.737625 
z
" style="fill:#e1812c;stroke:#ffffff;stroke-linejoin:miter;"/>
   </g>
   <g id="patch_33">
    <path clip-path="url(#p4de8dd7688)" d="M 185.320312 416.045625 
L 193.307625 416.045625 
L 193.307625 426.917625 
L 185.320312 426.917625 
z
" style="fill:#e1812c;stroke:#ffffff;stroke-linejoin:miter;"/>
   </g>
   <g id="patch_34">
    <path clip-path="url(#p4de8dd7688)" d="M 185.320312 443.225625 
L 199.116579 443.225625 
L 199.116579 454.097625 
L 185.320312 454.097625 
z
" style="fill:#e1812c;stroke:#ffffff;stroke-linejoin:miter;"/>
   </g>
   <g id="patch_35">
    <path d="M 185.320312 456.815625 
L 185.320312 21.935625 
" style="fill:none;stroke:#cccccc;stroke-linecap:square;stroke-linejoin:miter;stroke-width:0.8;"/>
   </g>
   <g id="patch_36">
    <path d="M 631.720312 456.815625 
L 631.720312 21.935625 
" style="fill:none;stroke:#cccccc;stroke-linecap:square;stroke-linejoin:miter;stroke-width:0.8;"/>
   </g>
   <g id="patch_37">
    <path d="M 185.320312 456.815625 
L 631.720312 456.815625 
" style="fill:none;stroke:#cccccc;stroke-linecap:square;stroke-linejoin:miter;stroke-width:0.8;"/>
   </g>
   <g id="patch_38">
    <path d="M 185.320312 21.935625 
L 631.720312 21.935625 
" style="fill:none;stroke:#cccccc;stroke-linecap:square;stroke-linejoin:miter;stroke-width:0.8;"/>
   </g>
   <g id="text_24">
    <!-- Specialization vs Lead Conversion -->
    <defs>
     <path d="M 7.328125 0 
L 7.328125 71.578125 
L 16.796875 71.578125 
L 16.796875 8.453125 
L 52.046875 8.453125 
L 52.046875 0 
z
" id="ArialMT-76"/>
    </defs>
    <g style="fill:#262626;" transform="translate(316.805625 15.935625)scale(0.12 -0.12)">
     <use xlink:href="#ArialMT-83"/>
     <use x="66.699219" xlink:href="#ArialMT-112"/>
     <use x="122.314453" xlink:href="#ArialMT-101"/>
     <use x="177.929688" xlink:href="#ArialMT-99"/>
     <use x="227.929688" xlink:href="#ArialMT-105"/>
     <use x="250.146484" xlink:href="#ArialMT-97"/>
     <use x="305.761719" xlink:href="#ArialMT-108"/>
     <use x="327.978516" xlink:href="#ArialMT-105"/>
     <use x="350.195312" xlink:href="#ArialMT-122"/>
     <use x="400.195312" xlink:href="#ArialMT-97"/>
     <use x="455.810547" xlink:href="#ArialMT-116"/>
     <use x="483.59375" xlink:href="#ArialMT-105"/>
     <use x="505.810547" xlink:href="#ArialMT-111"/>
     <use x="561.425781" xlink:href="#ArialMT-110"/>
     <use x="617.041016" xlink:href="#ArialMT-32"/>
     <use x="644.824219" xlink:href="#ArialMT-118"/>
     <use x="694.824219" xlink:href="#ArialMT-115"/>
     <use x="744.824219" xlink:href="#ArialMT-32"/>
     <use x="772.607422" xlink:href="#ArialMT-76"/>
     <use x="828.222656" xlink:href="#ArialMT-101"/>
     <use x="883.837891" xlink:href="#ArialMT-97"/>
     <use x="939.453125" xlink:href="#ArialMT-100"/>
     <use x="995.068359" xlink:href="#ArialMT-32"/>
     <use x="1022.851562" xlink:href="#ArialMT-67"/>
     <use x="1095.068359" xlink:href="#ArialMT-111"/>
     <use x="1150.683594" xlink:href="#ArialMT-110"/>
     <use x="1206.298828" xlink:href="#ArialMT-118"/>
     <use x="1256.298828" xlink:href="#ArialMT-101"/>
     <use x="1311.914062" xlink:href="#ArialMT-114"/>
     <use x="1345.214844" xlink:href="#ArialMT-115"/>
     <use x="1395.214844" xlink:href="#ArialMT-105"/>
     <use x="1417.431641" xlink:href="#ArialMT-111"/>
     <use x="1473.046875" xlink:href="#ArialMT-110"/>
    </g>
   </g>
   <g id="legend_1">
    <g id="patch_39">
     <path d="M 574.585938 451.815625 
L 624.720312 451.815625 
Q 626.720312 451.815625 626.720312 449.815625 
L 626.720312 408.379687 
Q 626.720312 406.379687 624.720312 406.379687 
L 574.585938 406.379687 
Q 572.585938 406.379687 572.585938 408.379687 
L 572.585938 449.815625 
Q 572.585938 451.815625 574.585938 451.815625 
z
" style="fill:#ffffff;opacity:0.8;stroke:#cccccc;stroke-linejoin:miter;"/>
    </g>
    <g id="text_25">
     <!-- Converted -->
     <g style="fill:#262626;" transform="translate(576.585938 417.5375)scale(0.1 -0.1)">
      <use xlink:href="#ArialMT-67"/>
      <use x="72.216797" xlink:href="#ArialMT-111"/>
      <use x="127.832031" xlink:href="#ArialMT-110"/>
      <use x="183.447266" xlink:href="#ArialMT-118"/>
      <use x="233.447266" xlink:href="#ArialMT-101"/>
      <use x="289.0625" xlink:href="#ArialMT-114"/>
      <use x="322.363281" xlink:href="#ArialMT-116"/>
      <use x="350.146484" xlink:href="#ArialMT-101"/>
      <use x="405.761719" xlink:href="#ArialMT-100"/>
     </g>
    </g>
    <g id="patch_40">
     <path d="M 582.872656 431.682812 
L 602.872656 431.682812 
L 602.872656 424.682812 
L 582.872656 424.682812 
z
" style="fill:#3274a1;stroke:#ffffff;stroke-linejoin:miter;"/>
    </g>
    <g id="text_26">
     <!-- 0 -->
     <g style="fill:#262626;" transform="translate(610.872656 431.682812)scale(0.1 -0.1)">
      <use xlink:href="#ArialMT-48"/>
     </g>
    </g>
    <g id="patch_41">
     <path d="M 582.872656 445.828125 
L 602.872656 445.828125 
L 602.872656 438.828125 
L 582.872656 438.828125 
z
" style="fill:#e1812c;stroke:#ffffff;stroke-linejoin:miter;"/>
    </g>
    <g id="text_27">
     <!-- 1 -->
     <g style="fill:#262626;" transform="translate(610.872656 445.828125)scale(0.1 -0.1)">
      <use xlink:href="#ArialMT-49"/>
     </g>
    </g>
   </g>
  </g>
 </g>
 <defs>
  <clipPath id="p4de8dd7688">
   <rect height="434.88" width="446.4" x="185.320312" y="21.935625"/>
  </clipPath>
 </defs>
</svg>
