<?xml version="1.0" encoding="utf-8" standalone="no"?>
<!DOCTYPE svg PUBLIC "-//W3C//DTD SVG 1.1//EN"
  "http://www.w3.org/Graphics/SVG/1.1/DTD/svg11.dtd">
<!-- Created with matplotlib (https://matplotlib.org/) -->
<svg height="682.865312pt" version="1.1" viewBox="0 0 1011.048437 682.865312" width="1011.048437pt" xmlns="http://www.w3.org/2000/svg" xmlns:xlink="http://www.w3.org/1999/xlink">
 <defs>
  <style type="text/css">
*{stroke-linecap:butt;stroke-linejoin:round;}
  </style>
 </defs>
 <g id="figure_1">
  <g id="patch_1">
   <path d="M 0 682.865312 
L 1011.048437 682.865312 
L 1011.048437 0 
L 0 0 
z
" style="fill:#ffffff;"/>
  </g>
  <g id="axes_1">
   <g id="patch_2">
    <path d="M 222.648438 659.52 
L 1003.848438 659.52 
L 1003.848438 7.2 
L 222.648438 7.2 
z
" style="fill:#ffffff;"/>
   </g>
   <g id="matplotlib.axis_1">
    <g id="xtick_1">
     <g id="line2d_1">
      <path clip-path="url(#p0aca1923d7)" d="M 222.648438 659.52 
L 222.648438 7.2 
" style="fill:none;stroke:#cccccc;stroke-linecap:round;stroke-width:0.8;"/>
     </g>
     <g id="text_1">
      <!-- 0.0 -->
      <defs>
       <path d="M 4.15625 35.296875 
Q 4.15625 48 6.765625 55.734375 
Q 9.375 63.484375 14.515625 67.671875 
Q 19.671875 71.875 27.484375 71.875 
Q 33.25 71.875 37.59375 69.546875 
Q 41.9375 67.234375 44.765625 62.859375 
Q 47.609375 58.5 49.21875 52.21875 
Q 50.828125 45.953125 50.828125 35.296875 
Q 50.828125 22.703125 48.234375 14.96875 
Q 45.65625 7.234375 40.5 3 
Q 35.359375 -1.21875 27.484375 -1.21875 
Q 17.140625 -1.21875 11.234375 6.203125 
Q 4.15625 15.140625 4.15625 35.296875 
z
M 13.1875 35.296875 
Q 13.1875 17.671875 17.3125 11.828125 
Q 21.4375 6 27.484375 6 
Q 33.546875 6 37.671875 11.859375 
Q 41.796875 17.71875 41.796875 35.296875 
Q 41.796875 52.984375 37.671875 58.78125 
Q 33.546875 64.59375 27.390625 64.59375 
Q 21.34375 64.59375 17.71875 59.46875 
Q 13.1875 52.9375 13.1875 35.296875 
z
" id="ArialMT-48"/>
       <path d="M 9.078125 0 
L 9.078125 10.015625 
L 19.09375 10.015625 
L 19.09375 0 
z
" id="ArialMT-46"/>
      </defs>
      <g style="fill:#262626;" transform="translate(215.698438 673.677812)scale(0.1 -0.1)">
       <use xlink:href="#ArialMT-48"/>
       <use x="55.615234" xlink:href="#ArialMT-46"/>
       <use x="83.398438" xlink:href="#ArialMT-48"/>
      </g>
     </g>
    </g>
    <g id="xtick_2">
     <g id="line2d_2">
      <path clip-path="url(#p0aca1923d7)" d="M 371.448438 659.52 
L 371.448438 7.2 
" style="fill:none;stroke:#cccccc;stroke-linecap:round;stroke-width:0.8;"/>
     </g>
     <g id="text_2">
      <!-- 0.2 -->
      <defs>
       <path d="M 50.34375 8.453125 
L 50.34375 0 
L 3.03125 0 
Q 2.9375 3.171875 4.046875 6.109375 
Q 5.859375 10.9375 9.828125 15.625 
Q 13.8125 20.3125 21.34375 26.46875 
Q 33.015625 36.03125 37.109375 41.625 
Q 41.21875 47.21875 41.21875 52.203125 
Q 41.21875 57.421875 37.46875 61 
Q 33.734375 64.59375 27.734375 64.59375 
Q 21.390625 64.59375 17.578125 60.78125 
Q 13.765625 56.984375 13.71875 50.25 
L 4.6875 51.171875 
Q 5.609375 61.28125 11.65625 66.578125 
Q 17.71875 71.875 27.9375 71.875 
Q 38.234375 71.875 44.234375 66.15625 
Q 50.25 60.453125 50.25 52 
Q 50.25 47.703125 48.484375 43.546875 
Q 46.734375 39.40625 42.65625 34.8125 
Q 38.578125 30.21875 29.109375 22.21875 
Q 21.1875 15.578125 18.9375 13.203125 
Q 16.703125 10.84375 15.234375 8.453125 
z
" id="ArialMT-50"/>
      </defs>
      <g style="fill:#262626;" transform="translate(364.498438 673.677812)scale(0.1 -0.1)">
       <use xlink:href="#ArialMT-48"/>
       <use x="55.615234" xlink:href="#ArialMT-46"/>
       <use x="83.398438" xlink:href="#ArialMT-50"/>
      </g>
     </g>
    </g>
    <g id="xtick_3">
     <g id="line2d_3">
      <path clip-path="url(#p0aca1923d7)" d="M 520.248438 659.52 
L 520.248438 7.2 
" style="fill:none;stroke:#cccccc;stroke-linecap:round;stroke-width:0.8;"/>
     </g>
     <g id="text_3">
      <!-- 0.4 -->
      <defs>
       <path d="M 32.328125 0 
L 32.328125 17.140625 
L 1.265625 17.140625 
L 1.265625 25.203125 
L 33.9375 71.578125 
L 41.109375 71.578125 
L 41.109375 25.203125 
L 50.78125 25.203125 
L 50.78125 17.140625 
L 41.109375 17.140625 
L 41.109375 0 
z
M 32.328125 25.203125 
L 32.328125 57.46875 
L 9.90625 25.203125 
z
" id="ArialMT-52"/>
      </defs>
      <g style="fill:#262626;" transform="translate(513.298437 673.677812)scale(0.1 -0.1)">
       <use xlink:href="#ArialMT-48"/>
       <use x="55.615234" xlink:href="#ArialMT-46"/>
       <use x="83.398438" xlink:href="#ArialMT-52"/>
      </g>
     </g>
    </g>
    <g id="xtick_4">
     <g id="line2d_4">
      <path clip-path="url(#p0aca1923d7)" d="M 669.048438 659.52 
L 669.048438 7.2 
" style="fill:none;stroke:#cccccc;stroke-linecap:round;stroke-width:0.8;"/>
     </g>
     <g id="text_4">
      <!-- 0.6 -->
      <defs>
       <path d="M 49.75 54.046875 
L 41.015625 53.375 
Q 39.84375 58.546875 37.703125 60.890625 
Q 34.125 64.65625 28.90625 64.65625 
Q 24.703125 64.65625 21.53125 62.3125 
Q 17.390625 59.28125 14.984375 53.46875 
Q 12.59375 47.65625 12.5 36.921875 
Q 15.671875 41.75 20.265625 44.09375 
Q 24.859375 46.4375 29.890625 46.4375 
Q 38.671875 46.4375 44.84375 39.96875 
Q 51.03125 33.5 51.03125 23.25 
Q 51.03125 16.5 48.125 10.71875 
Q 45.21875 4.9375 40.140625 1.859375 
Q 35.0625 -1.21875 28.609375 -1.21875 
Q 17.625 -1.21875 10.6875 6.859375 
Q 3.765625 14.9375 3.765625 33.5 
Q 3.765625 54.25 11.421875 63.671875 
Q 18.109375 71.875 29.4375 71.875 
Q 37.890625 71.875 43.28125 67.140625 
Q 48.6875 62.40625 49.75 54.046875 
z
M 13.875 23.1875 
Q 13.875 18.65625 15.796875 14.5 
Q 17.71875 10.359375 21.1875 8.171875 
Q 24.65625 6 28.46875 6 
Q 34.03125 6 38.03125 10.484375 
Q 42.046875 14.984375 42.046875 22.703125 
Q 42.046875 30.125 38.078125 34.390625 
Q 34.125 38.671875 28.125 38.671875 
Q 22.171875 38.671875 18.015625 34.390625 
Q 13.875 30.125 13.875 23.1875 
z
" id="ArialMT-54"/>
      </defs>
      <g style="fill:#262626;" transform="translate(662.098438 673.677812)scale(0.1 -0.1)">
       <use xlink:href="#ArialMT-48"/>
       <use x="55.615234" xlink:href="#ArialMT-46"/>
       <use x="83.398438" xlink:href="#ArialMT-54"/>
      </g>
     </g>
    </g>
    <g id="xtick_5">
     <g id="line2d_5">
      <path clip-path="url(#p0aca1923d7)" d="M 817.848438 659.52 
L 817.848438 7.2 
" style="fill:none;stroke:#cccccc;stroke-linecap:round;stroke-width:0.8;"/>
     </g>
     <g id="text_5">
      <!-- 0.8 -->
      <defs>
       <path d="M 17.671875 38.8125 
Q 12.203125 40.828125 9.5625 44.53125 
Q 6.9375 48.25 6.9375 53.421875 
Q 6.9375 61.234375 12.546875 66.546875 
Q 18.171875 71.875 27.484375 71.875 
Q 36.859375 71.875 42.578125 66.421875 
Q 48.296875 60.984375 48.296875 53.171875 
Q 48.296875 48.1875 45.671875 44.5 
Q 43.0625 40.828125 37.75 38.8125 
Q 44.34375 36.671875 47.78125 31.875 
Q 51.21875 27.09375 51.21875 20.453125 
Q 51.21875 11.28125 44.71875 5.03125 
Q 38.234375 -1.21875 27.640625 -1.21875 
Q 17.046875 -1.21875 10.546875 5.046875 
Q 4.046875 11.328125 4.046875 20.703125 
Q 4.046875 27.6875 7.59375 32.390625 
Q 11.140625 37.109375 17.671875 38.8125 
z
M 15.921875 53.71875 
Q 15.921875 48.640625 19.1875 45.40625 
Q 22.46875 42.1875 27.6875 42.1875 
Q 32.765625 42.1875 36.015625 45.375 
Q 39.265625 48.578125 39.265625 53.21875 
Q 39.265625 58.0625 35.90625 61.359375 
Q 32.5625 64.65625 27.59375 64.65625 
Q 22.5625 64.65625 19.234375 61.421875 
Q 15.921875 58.203125 15.921875 53.71875 
z
M 13.09375 20.65625 
Q 13.09375 16.890625 14.875 13.375 
Q 16.65625 9.859375 20.171875 7.921875 
Q 23.6875 6 27.734375 6 
Q 34.03125 6 38.125 10.046875 
Q 42.234375 14.109375 42.234375 20.359375 
Q 42.234375 26.703125 38.015625 30.859375 
Q 33.796875 35.015625 27.4375 35.015625 
Q 21.234375 35.015625 17.15625 30.90625 
Q 13.09375 26.8125 13.09375 20.65625 
z
" id="ArialMT-56"/>
      </defs>
      <g style="fill:#262626;" transform="translate(810.898438 673.677812)scale(0.1 -0.1)">
       <use xlink:href="#ArialMT-48"/>
       <use x="55.615234" xlink:href="#ArialMT-46"/>
       <use x="83.398438" xlink:href="#ArialMT-56"/>
      </g>
     </g>
    </g>
    <g id="xtick_6">
     <g id="line2d_6">
      <path clip-path="url(#p0aca1923d7)" d="M 966.648438 659.52 
L 966.648438 7.2 
" style="fill:none;stroke:#cccccc;stroke-linecap:round;stroke-width:0.8;"/>
     </g>
     <g id="text_6">
      <!-- 1.0 -->
      <defs>
       <path d="M 37.25 0 
L 28.46875 0 
L 28.46875 56 
Q 25.296875 52.984375 20.140625 49.953125 
Q 14.984375 46.921875 10.890625 45.40625 
L 10.890625 53.90625 
Q 18.265625 57.375 23.78125 62.296875 
Q 29.296875 67.234375 31.59375 71.875 
L 37.25 71.875 
z
" id="ArialMT-49"/>
      </defs>
      <g style="fill:#262626;" transform="translate(959.698437 673.677812)scale(0.1 -0.1)">
       <use xlink:href="#ArialMT-49"/>
       <use x="55.615234" xlink:href="#ArialMT-46"/>
       <use x="83.398438" xlink:href="#ArialMT-48"/>
      </g>
     </g>
    </g>
   </g>
   <g id="matplotlib.axis_2">
    <g id="ytick_1">
     <g id="line2d_7">
      <path clip-path="url(#p0aca1923d7)" d="M 222.648438 641.4 
L 1003.848438 641.4 
" style="fill:none;stroke:#cccccc;stroke-linecap:round;stroke-width:0.8;"/>
     </g>
     <g id="text_7">
      <!-- (India, Converted to Lead) -->
      <defs>
       <path d="M 23.390625 -21.046875 
Q 16.109375 -11.859375 11.078125 0.4375 
Q 6.0625 12.75 6.0625 25.921875 
Q 6.0625 37.546875 9.8125 48.1875 
Q 14.203125 60.546875 23.390625 72.796875 
L 29.6875 72.796875 
Q 23.78125 62.640625 21.875 58.296875 
Q 18.890625 51.5625 17.1875 44.234375 
Q 15.09375 35.109375 15.09375 25.875 
Q 15.09375 2.390625 29.6875 -21.046875 
z
" id="ArialMT-40"/>
       <path d="M 9.328125 0 
L 9.328125 71.578125 
L 18.796875 71.578125 
L 18.796875 0 
z
" id="ArialMT-73"/>
       <path d="M 6.59375 0 
L 6.59375 51.859375 
L 14.5 51.859375 
L 14.5 44.484375 
Q 20.21875 53.03125 31 53.03125 
Q 35.6875 53.03125 39.625 51.34375 
Q 43.5625 49.65625 45.515625 46.921875 
Q 47.46875 44.1875 48.25 40.4375 
Q 48.734375 37.984375 48.734375 31.890625 
L 48.734375 0 
L 39.9375 0 
L 39.9375 31.546875 
Q 39.9375 36.921875 38.90625 39.578125 
Q 37.890625 42.234375 35.28125 43.8125 
Q 32.671875 45.40625 29.15625 45.40625 
Q 23.53125 45.40625 19.453125 41.84375 
Q 15.375 38.28125 15.375 28.328125 
L 15.375 0 
z
" id="ArialMT-110"/>
       <path d="M 40.234375 0 
L 40.234375 6.546875 
Q 35.296875 -1.171875 25.734375 -1.171875 
Q 19.53125 -1.171875 14.328125 2.25 
Q 9.125 5.671875 6.265625 11.796875 
Q 3.421875 17.921875 3.421875 25.875 
Q 3.421875 33.640625 6 39.96875 
Q 8.59375 46.296875 13.765625 49.65625 
Q 18.953125 53.03125 25.34375 53.03125 
Q 30.03125 53.03125 33.6875 51.046875 
Q 37.359375 49.078125 39.65625 45.90625 
L 39.65625 71.578125 
L 48.390625 71.578125 
L 48.390625 0 
z
M 12.453125 25.875 
Q 12.453125 15.921875 16.640625 10.984375 
Q 20.84375 6.0625 26.5625 6.0625 
Q 32.328125 6.0625 36.34375 10.765625 
Q 40.375 15.484375 40.375 25.140625 
Q 40.375 35.796875 36.265625 40.765625 
Q 32.171875 45.75 26.171875 45.75 
Q 20.3125 45.75 16.375 40.96875 
Q 12.453125 36.1875 12.453125 25.875 
z
" id="ArialMT-100"/>
       <path d="M 6.640625 61.46875 
L 6.640625 71.578125 
L 15.4375 71.578125 
L 15.4375 61.46875 
z
M 6.640625 0 
L 6.640625 51.859375 
L 15.4375 51.859375 
L 15.4375 0 
z
" id="ArialMT-105"/>
       <path d="M 40.4375 6.390625 
Q 35.546875 2.25 31.03125 0.53125 
Q 26.515625 -1.171875 21.34375 -1.171875 
Q 12.796875 -1.171875 8.203125 3 
Q 3.609375 7.171875 3.609375 13.671875 
Q 3.609375 17.484375 5.34375 20.625 
Q 7.078125 23.78125 9.890625 25.6875 
Q 12.703125 27.59375 16.21875 28.5625 
Q 18.796875 29.25 24.03125 29.890625 
Q 34.671875 31.15625 39.703125 32.90625 
Q 39.75 34.71875 39.75 35.203125 
Q 39.75 40.578125 37.25 42.78125 
Q 33.890625 45.75 27.25 45.75 
Q 21.046875 45.75 18.09375 43.578125 
Q 15.140625 41.40625 13.71875 35.890625 
L 5.125 37.0625 
Q 6.296875 42.578125 8.984375 45.96875 
Q 11.671875 49.359375 16.75 51.1875 
Q 21.828125 53.03125 28.515625 53.03125 
Q 35.15625 53.03125 39.296875 51.46875 
Q 43.453125 49.90625 45.40625 47.53125 
Q 47.359375 45.171875 48.140625 41.546875 
Q 48.578125 39.3125 48.578125 33.453125 
L 48.578125 21.734375 
Q 48.578125 9.46875 49.140625 6.21875 
Q 49.703125 2.984375 51.375 0 
L 42.1875 0 
Q 40.828125 2.734375 40.4375 6.390625 
z
M 39.703125 26.03125 
Q 34.90625 24.078125 25.34375 22.703125 
Q 19.921875 21.921875 17.671875 20.9375 
Q 15.4375 19.96875 14.203125 18.09375 
Q 12.984375 16.21875 12.984375 13.921875 
Q 12.984375 10.40625 15.640625 8.0625 
Q 18.3125 5.71875 23.4375 5.71875 
Q 28.515625 5.71875 32.46875 7.9375 
Q 36.421875 10.15625 38.28125 14.015625 
Q 39.703125 17 39.703125 22.796875 
z
" id="ArialMT-97"/>
       <path d="M 8.890625 0 
L 8.890625 10.015625 
L 18.890625 10.015625 
L 18.890625 0 
Q 18.890625 -5.515625 16.9375 -8.90625 
Q 14.984375 -12.3125 10.75 -14.15625 
L 8.296875 -10.40625 
Q 11.078125 -9.1875 12.390625 -6.8125 
Q 13.71875 -4.4375 13.875 0 
z
" id="ArialMT-44"/>
       <path id="ArialMT-32"/>
       <path d="M 58.796875 25.09375 
L 68.265625 22.703125 
Q 65.28125 11.03125 57.546875 4.90625 
Q 49.8125 -1.21875 38.625 -1.21875 
Q 27.046875 -1.21875 19.796875 3.484375 
Q 12.546875 8.203125 8.765625 17.140625 
Q 4.984375 26.078125 4.984375 36.328125 
Q 4.984375 47.515625 9.25 55.828125 
Q 13.53125 64.15625 21.40625 68.46875 
Q 29.296875 72.796875 38.765625 72.796875 
Q 49.515625 72.796875 56.828125 67.328125 
Q 64.15625 61.859375 67.046875 51.953125 
L 57.71875 49.75 
Q 55.21875 57.5625 50.484375 61.125 
Q 45.75 64.703125 38.578125 64.703125 
Q 30.328125 64.703125 24.78125 60.734375 
Q 19.234375 56.78125 16.984375 50.109375 
Q 14.75 43.453125 14.75 36.375 
Q 14.75 27.25 17.40625 20.4375 
Q 20.0625 13.625 25.671875 10.25 
Q 31.296875 6.890625 37.84375 6.890625 
Q 45.796875 6.890625 51.3125 11.46875 
Q 56.84375 16.0625 58.796875 25.09375 
z
" id="ArialMT-67"/>
       <path d="M 3.328125 25.921875 
Q 3.328125 40.328125 11.328125 47.265625 
Q 18.015625 53.03125 27.640625 53.03125 
Q 38.328125 53.03125 45.109375 46.015625 
Q 51.90625 39.015625 51.90625 26.65625 
Q 51.90625 16.65625 48.90625 10.90625 
Q 45.90625 5.171875 40.15625 2 
Q 34.421875 -1.171875 27.640625 -1.171875 
Q 16.75 -1.171875 10.03125 5.8125 
Q 3.328125 12.796875 3.328125 25.921875 
z
M 12.359375 25.921875 
Q 12.359375 15.96875 16.703125 11.015625 
Q 21.046875 6.0625 27.640625 6.0625 
Q 34.1875 6.0625 38.53125 11.03125 
Q 42.875 16.015625 42.875 26.21875 
Q 42.875 35.84375 38.5 40.796875 
Q 34.125 45.75 27.640625 45.75 
Q 21.046875 45.75 16.703125 40.8125 
Q 12.359375 35.890625 12.359375 25.921875 
z
" id="ArialMT-111"/>
       <path d="M 21 0 
L 1.265625 51.859375 
L 10.546875 51.859375 
L 21.6875 20.796875 
Q 23.484375 15.765625 25 10.359375 
Q 26.171875 14.453125 28.265625 20.21875 
L 39.796875 51.859375 
L 48.828125 51.859375 
L 29.203125 0 
z
" id="ArialMT-118"/>
       <path d="M 42.09375 16.703125 
L 51.171875 15.578125 
Q 49.03125 7.625 43.21875 3.21875 
Q 37.40625 -1.171875 28.375 -1.171875 
Q 17 -1.171875 10.328125 5.828125 
Q 3.65625 12.84375 3.65625 25.484375 
Q 3.65625 38.578125 10.390625 45.796875 
Q 17.140625 53.03125 27.875 53.03125 
Q 38.28125 53.03125 44.875 45.953125 
Q 51.46875 38.875 51.46875 26.03125 
Q 51.46875 25.25 51.421875 23.6875 
L 12.75 23.6875 
Q 13.234375 15.140625 17.578125 10.59375 
Q 21.921875 6.0625 28.421875 6.0625 
Q 33.25 6.0625 36.671875 8.59375 
Q 40.09375 11.140625 42.09375 16.703125 
z
M 13.234375 30.90625 
L 42.1875 30.90625 
Q 41.609375 37.453125 38.875 40.71875 
Q 34.671875 45.796875 27.984375 45.796875 
Q 21.921875 45.796875 17.796875 41.75 
Q 13.671875 37.703125 13.234375 30.90625 
z
" id="ArialMT-101"/>
       <path d="M 6.5 0 
L 6.5 51.859375 
L 14.40625 51.859375 
L 14.40625 44 
Q 17.4375 49.515625 20 51.265625 
Q 22.5625 53.03125 25.640625 53.03125 
Q 30.078125 53.03125 34.671875 50.203125 
L 31.640625 42.046875 
Q 28.421875 43.953125 25.203125 43.953125 
Q 22.3125 43.953125 20.015625 42.21875 
Q 17.71875 40.484375 16.75 37.40625 
Q 15.28125 32.71875 15.28125 27.15625 
L 15.28125 0 
z
" id="ArialMT-114"/>
       <path d="M 25.78125 7.859375 
L 27.046875 0.09375 
Q 23.34375 -0.6875 20.40625 -0.6875 
Q 15.625 -0.6875 12.984375 0.828125 
Q 10.359375 2.34375 9.28125 4.8125 
Q 8.203125 7.28125 8.203125 15.1875 
L 8.203125 45.015625 
L 1.765625 45.015625 
L 1.765625 51.859375 
L 8.203125 51.859375 
L 8.203125 64.703125 
L 16.9375 69.96875 
L 16.9375 51.859375 
L 25.78125 51.859375 
L 25.78125 45.015625 
L 16.9375 45.015625 
L 16.9375 14.703125 
Q 16.9375 10.9375 17.40625 9.859375 
Q 17.875 8.796875 18.921875 8.15625 
Q 19.96875 7.515625 21.921875 7.515625 
Q 23.390625 7.515625 25.78125 7.859375 
z
" id="ArialMT-116"/>
       <path d="M 7.328125 0 
L 7.328125 71.578125 
L 16.796875 71.578125 
L 16.796875 8.453125 
L 52.046875 8.453125 
L 52.046875 0 
z
" id="ArialMT-76"/>
       <path d="M 12.359375 -21.046875 
L 6.0625 -21.046875 
Q 20.65625 2.390625 20.65625 25.875 
Q 20.65625 35.0625 18.5625 44.09375 
Q 16.890625 51.421875 13.921875 58.15625 
Q 12.015625 62.546875 6.0625 72.796875 
L 12.359375 72.796875 
Q 21.53125 60.546875 25.921875 48.1875 
Q 29.6875 37.546875 29.6875 25.921875 
Q 29.6875 12.75 24.625 0.4375 
Q 19.578125 -11.859375 12.359375 -21.046875 
z
" id="ArialMT-41"/>
      </defs>
      <g style="fill:#262626;" transform="translate(99.476562 645.039844)scale(0.1 -0.1)">
       <use xlink:href="#ArialMT-40"/>
       <use x="33.300781" xlink:href="#ArialMT-73"/>
       <use x="61.083984" xlink:href="#ArialMT-110"/>
       <use x="116.699219" xlink:href="#ArialMT-100"/>
       <use x="172.314453" xlink:href="#ArialMT-105"/>
       <use x="194.53125" xlink:href="#ArialMT-97"/>
       <use x="250.146484" xlink:href="#ArialMT-44"/>
       <use x="277.929688" xlink:href="#ArialMT-32"/>
       <use x="305.712891" xlink:href="#ArialMT-67"/>
       <use x="377.929688" xlink:href="#ArialMT-111"/>
       <use x="433.544922" xlink:href="#ArialMT-110"/>
       <use x="489.160156" xlink:href="#ArialMT-118"/>
       <use x="539.160156" xlink:href="#ArialMT-101"/>
       <use x="594.775391" xlink:href="#ArialMT-114"/>
       <use x="628.076172" xlink:href="#ArialMT-116"/>
       <use x="655.859375" xlink:href="#ArialMT-101"/>
       <use x="711.474609" xlink:href="#ArialMT-100"/>
       <use x="767.089844" xlink:href="#ArialMT-32"/>
       <use x="794.873047" xlink:href="#ArialMT-116"/>
       <use x="822.65625" xlink:href="#ArialMT-111"/>
       <use x="878.271484" xlink:href="#ArialMT-32"/>
       <use x="906.054688" xlink:href="#ArialMT-76"/>
       <use x="961.669922" xlink:href="#ArialMT-101"/>
       <use x="1017.285156" xlink:href="#ArialMT-97"/>
       <use x="1072.900391" xlink:href="#ArialMT-100"/>
       <use x="1128.515625" xlink:href="#ArialMT-41"/>
      </g>
     </g>
    </g>
    <g id="ytick_2">
     <g id="line2d_8">
      <path clip-path="url(#p0aca1923d7)" d="M 222.648438 605.16 
L 1003.848438 605.16 
" style="fill:none;stroke:#cccccc;stroke-linecap:round;stroke-width:0.8;"/>
     </g>
     <g id="text_8">
      <!-- (India, Email Bounced) -->
      <defs>
       <path d="M 7.90625 0 
L 7.90625 71.578125 
L 59.671875 71.578125 
L 59.671875 63.140625 
L 17.390625 63.140625 
L 17.390625 41.21875 
L 56.984375 41.21875 
L 56.984375 32.8125 
L 17.390625 32.8125 
L 17.390625 8.453125 
L 61.328125 8.453125 
L 61.328125 0 
z
" id="ArialMT-69"/>
       <path d="M 6.59375 0 
L 6.59375 51.859375 
L 14.453125 51.859375 
L 14.453125 44.578125 
Q 16.890625 48.390625 20.9375 50.703125 
Q 25 53.03125 30.171875 53.03125 
Q 35.9375 53.03125 39.625 50.640625 
Q 43.3125 48.25 44.828125 43.953125 
Q 50.984375 53.03125 60.84375 53.03125 
Q 68.5625 53.03125 72.703125 48.75 
Q 76.859375 44.484375 76.859375 35.59375 
L 76.859375 0 
L 68.109375 0 
L 68.109375 32.671875 
Q 68.109375 37.9375 67.25 40.25 
Q 66.40625 42.578125 64.15625 43.984375 
Q 61.921875 45.40625 58.890625 45.40625 
Q 53.421875 45.40625 49.796875 41.765625 
Q 46.1875 38.140625 46.1875 30.125 
L 46.1875 0 
L 37.40625 0 
L 37.40625 33.6875 
Q 37.40625 39.546875 35.25 42.46875 
Q 33.109375 45.40625 28.21875 45.40625 
Q 24.515625 45.40625 21.359375 43.453125 
Q 18.21875 41.5 16.796875 37.734375 
Q 15.375 33.984375 15.375 26.90625 
L 15.375 0 
z
" id="ArialMT-109"/>
       <path d="M 6.390625 0 
L 6.390625 71.578125 
L 15.1875 71.578125 
L 15.1875 0 
z
" id="ArialMT-108"/>
       <path d="M 7.328125 0 
L 7.328125 71.578125 
L 34.1875 71.578125 
Q 42.390625 71.578125 47.34375 69.40625 
Q 52.296875 67.234375 55.09375 62.71875 
Q 57.90625 58.203125 57.90625 53.265625 
Q 57.90625 48.6875 55.421875 44.625 
Q 52.9375 40.578125 47.90625 38.09375 
Q 54.390625 36.1875 57.875 31.59375 
Q 61.375 27 61.375 20.75 
Q 61.375 15.71875 59.25 11.390625 
Q 57.125 7.078125 54 4.734375 
Q 50.875 2.390625 46.15625 1.1875 
Q 41.453125 0 34.625 0 
z
M 16.796875 41.5 
L 32.28125 41.5 
Q 38.578125 41.5 41.3125 42.328125 
Q 44.921875 43.40625 46.75 45.890625 
Q 48.578125 48.390625 48.578125 52.15625 
Q 48.578125 55.71875 46.875 58.421875 
Q 45.171875 61.140625 41.984375 62.140625 
Q 38.8125 63.140625 31.109375 63.140625 
L 16.796875 63.140625 
z
M 16.796875 8.453125 
L 34.625 8.453125 
Q 39.203125 8.453125 41.0625 8.796875 
Q 44.34375 9.375 46.53125 10.734375 
Q 48.734375 12.109375 50.140625 14.71875 
Q 51.5625 17.328125 51.5625 20.75 
Q 51.5625 24.75 49.515625 27.703125 
Q 47.46875 30.671875 43.828125 31.859375 
Q 40.1875 33.0625 33.34375 33.0625 
L 16.796875 33.0625 
z
" id="ArialMT-66"/>
       <path d="M 40.578125 0 
L 40.578125 7.625 
Q 34.515625 -1.171875 24.125 -1.171875 
Q 19.53125 -1.171875 15.546875 0.578125 
Q 11.578125 2.34375 9.640625 5 
Q 7.71875 7.671875 6.9375 11.53125 
Q 6.390625 14.109375 6.390625 19.734375 
L 6.390625 51.859375 
L 15.1875 51.859375 
L 15.1875 23.09375 
Q 15.1875 16.21875 15.71875 13.8125 
Q 16.546875 10.359375 19.234375 8.375 
Q 21.921875 6.390625 25.875 6.390625 
Q 29.828125 6.390625 33.296875 8.421875 
Q 36.765625 10.453125 38.203125 13.9375 
Q 39.65625 17.4375 39.65625 24.078125 
L 39.65625 51.859375 
L 48.4375 51.859375 
L 48.4375 0 
z
" id="ArialMT-117"/>
       <path d="M 40.4375 19 
L 49.078125 17.875 
Q 47.65625 8.9375 41.8125 3.875 
Q 35.984375 -1.171875 27.484375 -1.171875 
Q 16.84375 -1.171875 10.375 5.78125 
Q 3.90625 12.75 3.90625 25.734375 
Q 3.90625 34.125 6.6875 40.421875 
Q 9.46875 46.734375 15.15625 49.875 
Q 20.84375 53.03125 27.546875 53.03125 
Q 35.984375 53.03125 41.359375 48.75 
Q 46.734375 44.484375 48.25 36.625 
L 39.703125 35.296875 
Q 38.484375 40.53125 35.375 43.15625 
Q 32.28125 45.796875 27.875 45.796875 
Q 21.234375 45.796875 17.078125 41.03125 
Q 12.9375 36.28125 12.9375 25.984375 
Q 12.9375 15.53125 16.9375 10.796875 
Q 20.953125 6.0625 27.390625 6.0625 
Q 32.5625 6.0625 36.03125 9.234375 
Q 39.5 12.40625 40.4375 19 
z
" id="ArialMT-99"/>
      </defs>
      <g style="fill:#262626;" transform="translate(114.492188 608.799844)scale(0.1 -0.1)">
       <use xlink:href="#ArialMT-40"/>
       <use x="33.300781" xlink:href="#ArialMT-73"/>
       <use x="61.083984" xlink:href="#ArialMT-110"/>
       <use x="116.699219" xlink:href="#ArialMT-100"/>
       <use x="172.314453" xlink:href="#ArialMT-105"/>
       <use x="194.53125" xlink:href="#ArialMT-97"/>
       <use x="250.146484" xlink:href="#ArialMT-44"/>
       <use x="277.929688" xlink:href="#ArialMT-32"/>
       <use x="305.712891" xlink:href="#ArialMT-69"/>
       <use x="372.412109" xlink:href="#ArialMT-109"/>
       <use x="455.712891" xlink:href="#ArialMT-97"/>
       <use x="511.328125" xlink:href="#ArialMT-105"/>
       <use x="533.544922" xlink:href="#ArialMT-108"/>
       <use x="555.761719" xlink:href="#ArialMT-32"/>
       <use x="583.544922" xlink:href="#ArialMT-66"/>
       <use x="650.244141" xlink:href="#ArialMT-111"/>
       <use x="705.859375" xlink:href="#ArialMT-117"/>
       <use x="761.474609" xlink:href="#ArialMT-110"/>
       <use x="817.089844" xlink:href="#ArialMT-99"/>
       <use x="867.089844" xlink:href="#ArialMT-101"/>
       <use x="922.705078" xlink:href="#ArialMT-100"/>
       <use x="978.320312" xlink:href="#ArialMT-41"/>
      </g>
     </g>
    </g>
    <g id="ytick_3">
     <g id="line2d_9">
      <path clip-path="url(#p0aca1923d7)" d="M 222.648438 568.92 
L 1003.848438 568.92 
" style="fill:none;stroke:#cccccc;stroke-linecap:round;stroke-width:0.8;"/>
     </g>
     <g id="text_9">
      <!-- (India, Email Link Clicked) -->
      <defs>
       <path d="M 6.640625 0 
L 6.640625 71.578125 
L 15.4375 71.578125 
L 15.4375 30.765625 
L 36.234375 51.859375 
L 47.609375 51.859375 
L 27.78125 32.625 
L 49.609375 0 
L 38.765625 0 
L 21.625 26.515625 
L 15.4375 20.5625 
L 15.4375 0 
z
" id="ArialMT-107"/>
      </defs>
      <g style="fill:#262626;" transform="translate(100.057812 572.559844)scale(0.1 -0.1)">
       <use xlink:href="#ArialMT-40"/>
       <use x="33.300781" xlink:href="#ArialMT-73"/>
       <use x="61.083984" xlink:href="#ArialMT-110"/>
       <use x="116.699219" xlink:href="#ArialMT-100"/>
       <use x="172.314453" xlink:href="#ArialMT-105"/>
       <use x="194.53125" xlink:href="#ArialMT-97"/>
       <use x="250.146484" xlink:href="#ArialMT-44"/>
       <use x="277.929688" xlink:href="#ArialMT-32"/>
       <use x="305.712891" xlink:href="#ArialMT-69"/>
       <use x="372.412109" xlink:href="#ArialMT-109"/>
       <use x="455.712891" xlink:href="#ArialMT-97"/>
       <use x="511.328125" xlink:href="#ArialMT-105"/>
       <use x="533.544922" xlink:href="#ArialMT-108"/>
       <use x="555.761719" xlink:href="#ArialMT-32"/>
       <use x="583.544922" xlink:href="#ArialMT-76"/>
       <use x="639.160156" xlink:href="#ArialMT-105"/>
       <use x="661.376953" xlink:href="#ArialMT-110"/>
       <use x="716.992188" xlink:href="#ArialMT-107"/>
       <use x="766.992188" xlink:href="#ArialMT-32"/>
       <use x="794.775391" xlink:href="#ArialMT-67"/>
       <use x="866.992188" xlink:href="#ArialMT-108"/>
       <use x="889.208984" xlink:href="#ArialMT-105"/>
       <use x="911.425781" xlink:href="#ArialMT-99"/>
       <use x="961.425781" xlink:href="#ArialMT-107"/>
       <use x="1011.425781" xlink:href="#ArialMT-101"/>
       <use x="1067.041016" xlink:href="#ArialMT-100"/>
       <use x="1122.65625" xlink:href="#ArialMT-41"/>
      </g>
     </g>
    </g>
    <g id="ytick_4">
     <g id="line2d_10">
      <path clip-path="url(#p0aca1923d7)" d="M 222.648438 532.68 
L 1003.848438 532.68 
" style="fill:none;stroke:#cccccc;stroke-linecap:round;stroke-width:0.8;"/>
     </g>
     <g id="text_10">
      <!-- (India, Email Opened) -->
      <defs>
       <path d="M 4.828125 34.859375 
Q 4.828125 52.6875 14.390625 62.765625 
Q 23.96875 72.859375 39.109375 72.859375 
Q 49.03125 72.859375 56.984375 68.109375 
Q 64.9375 63.375 69.109375 54.90625 
Q 73.296875 46.4375 73.296875 35.6875 
Q 73.296875 24.8125 68.890625 16.21875 
Q 64.5 7.625 56.4375 3.203125 
Q 48.390625 -1.21875 39.0625 -1.21875 
Q 28.953125 -1.21875 20.984375 3.65625 
Q 13.03125 8.546875 8.921875 16.984375 
Q 4.828125 25.4375 4.828125 34.859375 
z
M 14.59375 34.71875 
Q 14.59375 21.78125 21.546875 14.328125 
Q 28.515625 6.890625 39.015625 6.890625 
Q 49.703125 6.890625 56.609375 14.40625 
Q 63.53125 21.921875 63.53125 35.75 
Q 63.53125 44.484375 60.578125 51 
Q 57.625 57.515625 51.921875 61.109375 
Q 46.234375 64.703125 39.15625 64.703125 
Q 29.109375 64.703125 21.84375 57.78125 
Q 14.59375 50.875 14.59375 34.71875 
z
" id="ArialMT-79"/>
       <path d="M 6.59375 -19.875 
L 6.59375 51.859375 
L 14.59375 51.859375 
L 14.59375 45.125 
Q 17.4375 49.078125 21 51.046875 
Q 24.5625 53.03125 29.640625 53.03125 
Q 36.28125 53.03125 41.359375 49.609375 
Q 46.4375 46.1875 49.015625 39.953125 
Q 51.609375 33.734375 51.609375 26.3125 
Q 51.609375 18.359375 48.75 11.984375 
Q 45.90625 5.609375 40.453125 2.21875 
Q 35.015625 -1.171875 29 -1.171875 
Q 24.609375 -1.171875 21.109375 0.6875 
Q 17.625 2.546875 15.375 5.375 
L 15.375 -19.875 
z
M 14.546875 25.640625 
Q 14.546875 15.625 18.59375 10.84375 
Q 22.65625 6.0625 28.421875 6.0625 
Q 34.28125 6.0625 38.453125 11.015625 
Q 42.625 15.96875 42.625 26.375 
Q 42.625 36.28125 38.546875 41.203125 
Q 34.46875 46.140625 28.8125 46.140625 
Q 23.1875 46.140625 18.859375 40.890625 
Q 14.546875 35.640625 14.546875 25.640625 
z
" id="ArialMT-112"/>
      </defs>
      <g style="fill:#262626;" transform="translate(118.384375 536.322969)scale(0.1 -0.1)">
       <use xlink:href="#ArialMT-40"/>
       <use x="33.300781" xlink:href="#ArialMT-73"/>
       <use x="61.083984" xlink:href="#ArialMT-110"/>
       <use x="116.699219" xlink:href="#ArialMT-100"/>
       <use x="172.314453" xlink:href="#ArialMT-105"/>
       <use x="194.53125" xlink:href="#ArialMT-97"/>
       <use x="250.146484" xlink:href="#ArialMT-44"/>
       <use x="277.929688" xlink:href="#ArialMT-32"/>
       <use x="305.712891" xlink:href="#ArialMT-69"/>
       <use x="372.412109" xlink:href="#ArialMT-109"/>
       <use x="455.712891" xlink:href="#ArialMT-97"/>
       <use x="511.328125" xlink:href="#ArialMT-105"/>
       <use x="533.544922" xlink:href="#ArialMT-108"/>
       <use x="555.761719" xlink:href="#ArialMT-32"/>
       <use x="583.544922" xlink:href="#ArialMT-79"/>
       <use x="661.328125" xlink:href="#ArialMT-112"/>
       <use x="716.943359" xlink:href="#ArialMT-101"/>
       <use x="772.558594" xlink:href="#ArialMT-110"/>
       <use x="828.173828" xlink:href="#ArialMT-101"/>
       <use x="883.789062" xlink:href="#ArialMT-100"/>
       <use x="939.404297" xlink:href="#ArialMT-41"/>
      </g>
     </g>
    </g>
    <g id="ytick_5">
     <g id="line2d_11">
      <path clip-path="url(#p0aca1923d7)" d="M 222.648438 496.44 
L 1003.848438 496.44 
" style="fill:none;stroke:#cccccc;stroke-linecap:round;stroke-width:0.8;"/>
     </g>
     <g id="text_11">
      <!-- (India, Form Submitted on Website) -->
      <defs>
       <path d="M 8.203125 0 
L 8.203125 71.578125 
L 56.5 71.578125 
L 56.5 63.140625 
L 17.671875 63.140625 
L 17.671875 40.96875 
L 51.265625 40.96875 
L 51.265625 32.515625 
L 17.671875 32.515625 
L 17.671875 0 
z
" id="ArialMT-70"/>
       <path d="M 4.5 23 
L 13.421875 23.78125 
Q 14.0625 18.40625 16.375 14.96875 
Q 18.703125 11.53125 23.578125 9.40625 
Q 28.46875 7.28125 34.578125 7.28125 
Q 39.984375 7.28125 44.140625 8.890625 
Q 48.296875 10.5 50.3125 13.296875 
Q 52.34375 16.109375 52.34375 19.4375 
Q 52.34375 22.796875 50.390625 25.3125 
Q 48.4375 27.828125 43.953125 29.546875 
Q 41.0625 30.671875 31.203125 33.03125 
Q 21.34375 35.40625 17.390625 37.5 
Q 12.25 40.1875 9.734375 44.15625 
Q 7.234375 48.140625 7.234375 53.078125 
Q 7.234375 58.5 10.296875 63.203125 
Q 13.375 67.921875 19.28125 70.359375 
Q 25.203125 72.796875 32.421875 72.796875 
Q 40.375 72.796875 46.453125 70.234375 
Q 52.546875 67.671875 55.8125 62.6875 
Q 59.078125 57.71875 59.328125 51.421875 
L 50.25 50.734375 
Q 49.515625 57.515625 45.28125 60.984375 
Q 41.0625 64.453125 32.8125 64.453125 
Q 24.21875 64.453125 20.28125 61.296875 
Q 16.359375 58.15625 16.359375 53.71875 
Q 16.359375 49.859375 19.140625 47.359375 
Q 21.875 44.875 33.421875 42.265625 
Q 44.96875 39.65625 49.265625 37.703125 
Q 55.515625 34.8125 58.484375 30.390625 
Q 61.46875 25.984375 61.46875 20.21875 
Q 61.46875 14.5 58.203125 9.4375 
Q 54.9375 4.390625 48.796875 1.578125 
Q 42.671875 -1.21875 35.015625 -1.21875 
Q 25.296875 -1.21875 18.71875 1.609375 
Q 12.15625 4.4375 8.421875 10.125 
Q 4.6875 15.828125 4.5 23 
z
" id="ArialMT-83"/>
       <path d="M 14.703125 0 
L 6.546875 0 
L 6.546875 71.578125 
L 15.328125 71.578125 
L 15.328125 46.046875 
Q 20.90625 53.03125 29.546875 53.03125 
Q 34.328125 53.03125 38.59375 51.09375 
Q 42.875 49.171875 45.625 45.671875 
Q 48.390625 42.1875 49.953125 37.25 
Q 51.515625 32.328125 51.515625 26.703125 
Q 51.515625 13.375 44.921875 6.09375 
Q 38.328125 -1.171875 29.109375 -1.171875 
Q 19.921875 -1.171875 14.703125 6.5 
z
M 14.59375 26.3125 
Q 14.59375 17 17.140625 12.84375 
Q 21.296875 6.0625 28.375 6.0625 
Q 34.125 6.0625 38.328125 11.0625 
Q 42.53125 16.0625 42.53125 25.984375 
Q 42.53125 36.140625 38.5 40.96875 
Q 34.46875 45.796875 28.765625 45.796875 
Q 23 45.796875 18.796875 40.796875 
Q 14.59375 35.796875 14.59375 26.3125 
z
" id="ArialMT-98"/>
       <path d="M 20.21875 0 
L 1.21875 71.578125 
L 10.9375 71.578125 
L 21.828125 24.65625 
Q 23.578125 17.28125 24.859375 10.015625 
Q 27.59375 21.484375 28.078125 23.25 
L 41.703125 71.578125 
L 53.125 71.578125 
L 63.375 35.359375 
Q 67.234375 21.875 68.953125 10.015625 
Q 70.3125 16.796875 72.515625 25.59375 
L 83.734375 71.578125 
L 93.265625 71.578125 
L 73.640625 0 
L 64.5 0 
L 49.421875 54.546875 
Q 47.515625 61.375 47.171875 62.9375 
Q 46.046875 58.015625 45.0625 54.546875 
L 29.890625 0 
z
" id="ArialMT-87"/>
       <path d="M 3.078125 15.484375 
L 11.765625 16.84375 
Q 12.5 11.625 15.84375 8.84375 
Q 19.1875 6.0625 25.203125 6.0625 
Q 31.25 6.0625 34.171875 8.515625 
Q 37.109375 10.984375 37.109375 14.3125 
Q 37.109375 17.28125 34.515625 19 
Q 32.71875 20.171875 25.53125 21.96875 
Q 15.875 24.421875 12.140625 26.203125 
Q 8.40625 27.984375 6.46875 31.125 
Q 4.546875 34.28125 4.546875 38.09375 
Q 4.546875 41.546875 6.125 44.5 
Q 7.71875 47.46875 10.453125 49.421875 
Q 12.5 50.921875 16.03125 51.96875 
Q 19.578125 53.03125 23.640625 53.03125 
Q 29.734375 53.03125 34.34375 51.265625 
Q 38.96875 49.515625 41.15625 46.5 
Q 43.359375 43.5 44.1875 38.484375 
L 35.59375 37.3125 
Q 35.015625 41.3125 32.203125 43.546875 
Q 29.390625 45.796875 24.265625 45.796875 
Q 18.21875 45.796875 15.625 43.796875 
Q 13.03125 41.796875 13.03125 39.109375 
Q 13.03125 37.40625 14.109375 36.03125 
Q 15.1875 34.625 17.484375 33.6875 
Q 18.796875 33.203125 25.25 31.453125 
Q 34.578125 28.953125 38.25 27.359375 
Q 41.9375 25.78125 44.03125 22.75 
Q 46.140625 19.734375 46.140625 15.234375 
Q 46.140625 10.84375 43.578125 6.953125 
Q 41.015625 3.078125 36.171875 0.953125 
Q 31.34375 -1.171875 25.25 -1.171875 
Q 15.140625 -1.171875 9.84375 3.03125 
Q 4.546875 7.234375 3.078125 15.484375 
z
" id="ArialMT-115"/>
      </defs>
      <g style="fill:#262626;" transform="translate(57.823437 500.079844)scale(0.1 -0.1)">
       <use xlink:href="#ArialMT-40"/>
       <use x="33.300781" xlink:href="#ArialMT-73"/>
       <use x="61.083984" xlink:href="#ArialMT-110"/>
       <use x="116.699219" xlink:href="#ArialMT-100"/>
       <use x="172.314453" xlink:href="#ArialMT-105"/>
       <use x="194.53125" xlink:href="#ArialMT-97"/>
       <use x="250.146484" xlink:href="#ArialMT-44"/>
       <use x="277.929688" xlink:href="#ArialMT-32"/>
       <use x="305.712891" xlink:href="#ArialMT-70"/>
       <use x="366.796875" xlink:href="#ArialMT-111"/>
       <use x="422.412109" xlink:href="#ArialMT-114"/>
       <use x="455.712891" xlink:href="#ArialMT-109"/>
       <use x="539.013672" xlink:href="#ArialMT-32"/>
       <use x="566.796875" xlink:href="#ArialMT-83"/>
       <use x="633.496094" xlink:href="#ArialMT-117"/>
       <use x="689.111328" xlink:href="#ArialMT-98"/>
       <use x="744.726562" xlink:href="#ArialMT-109"/>
       <use x="828.027344" xlink:href="#ArialMT-105"/>
       <use x="850.244141" xlink:href="#ArialMT-116"/>
       <use x="878.027344" xlink:href="#ArialMT-116"/>
       <use x="905.810547" xlink:href="#ArialMT-101"/>
       <use x="961.425781" xlink:href="#ArialMT-100"/>
       <use x="1017.041016" xlink:href="#ArialMT-32"/>
       <use x="1044.824219" xlink:href="#ArialMT-111"/>
       <use x="1100.439453" xlink:href="#ArialMT-110"/>
       <use x="1156.054688" xlink:href="#ArialMT-32"/>
       <use x="1183.837891" xlink:href="#ArialMT-87"/>
       <use x="1278.207031" xlink:href="#ArialMT-101"/>
       <use x="1333.822266" xlink:href="#ArialMT-98"/>
       <use x="1389.4375" xlink:href="#ArialMT-115"/>
       <use x="1439.4375" xlink:href="#ArialMT-105"/>
       <use x="1461.654297" xlink:href="#ArialMT-116"/>
       <use x="1489.4375" xlink:href="#ArialMT-101"/>
       <use x="1545.052734" xlink:href="#ArialMT-41"/>
      </g>
     </g>
    </g>
    <g id="ytick_6">
     <g id="line2d_12">
      <path clip-path="url(#p0aca1923d7)" d="M 222.648438 460.2 
L 1003.848438 460.2 
" style="fill:none;stroke:#cccccc;stroke-linecap:round;stroke-width:0.8;"/>
     </g>
     <g id="text_12">
      <!-- (India, Olark Chat Conversation) -->
      <defs>
       <path d="M 6.59375 0 
L 6.59375 71.578125 
L 15.375 71.578125 
L 15.375 45.90625 
Q 21.53125 53.03125 30.90625 53.03125 
Q 36.671875 53.03125 40.921875 50.75 
Q 45.171875 48.484375 47 44.484375 
Q 48.828125 40.484375 48.828125 32.859375 
L 48.828125 0 
L 40.046875 0 
L 40.046875 32.859375 
Q 40.046875 39.453125 37.1875 42.453125 
Q 34.328125 45.453125 29.109375 45.453125 
Q 25.203125 45.453125 21.75 43.421875 
Q 18.3125 41.40625 16.84375 37.9375 
Q 15.375 34.46875 15.375 28.375 
L 15.375 0 
z
" id="ArialMT-104"/>
      </defs>
      <g style="fill:#262626;" transform="translate(72.264062 463.842969)scale(0.1 -0.1)">
       <use xlink:href="#ArialMT-40"/>
       <use x="33.300781" xlink:href="#ArialMT-73"/>
       <use x="61.083984" xlink:href="#ArialMT-110"/>
       <use x="116.699219" xlink:href="#ArialMT-100"/>
       <use x="172.314453" xlink:href="#ArialMT-105"/>
       <use x="194.53125" xlink:href="#ArialMT-97"/>
       <use x="250.146484" xlink:href="#ArialMT-44"/>
       <use x="277.929688" xlink:href="#ArialMT-32"/>
       <use x="305.712891" xlink:href="#ArialMT-79"/>
       <use x="383.496094" xlink:href="#ArialMT-108"/>
       <use x="405.712891" xlink:href="#ArialMT-97"/>
       <use x="461.328125" xlink:href="#ArialMT-114"/>
       <use x="494.628906" xlink:href="#ArialMT-107"/>
       <use x="544.628906" xlink:href="#ArialMT-32"/>
       <use x="572.412109" xlink:href="#ArialMT-67"/>
       <use x="644.628906" xlink:href="#ArialMT-104"/>
       <use x="700.244141" xlink:href="#ArialMT-97"/>
       <use x="755.859375" xlink:href="#ArialMT-116"/>
       <use x="783.642578" xlink:href="#ArialMT-32"/>
       <use x="811.425781" xlink:href="#ArialMT-67"/>
       <use x="883.642578" xlink:href="#ArialMT-111"/>
       <use x="939.257812" xlink:href="#ArialMT-110"/>
       <use x="994.873047" xlink:href="#ArialMT-118"/>
       <use x="1044.873047" xlink:href="#ArialMT-101"/>
       <use x="1100.488281" xlink:href="#ArialMT-114"/>
       <use x="1133.789062" xlink:href="#ArialMT-115"/>
       <use x="1183.789062" xlink:href="#ArialMT-97"/>
       <use x="1239.404297" xlink:href="#ArialMT-116"/>
       <use x="1267.1875" xlink:href="#ArialMT-105"/>
       <use x="1289.404297" xlink:href="#ArialMT-111"/>
       <use x="1345.019531" xlink:href="#ArialMT-110"/>
       <use x="1400.634766" xlink:href="#ArialMT-41"/>
      </g>
     </g>
    </g>
    <g id="ytick_7">
     <g id="line2d_13">
      <path clip-path="url(#p0aca1923d7)" d="M 222.648438 423.96 
L 1003.848438 423.96 
" style="fill:none;stroke:#cccccc;stroke-linecap:round;stroke-width:0.8;"/>
     </g>
     <g id="text_13">
      <!-- (India, Other Last Activity) -->
      <defs>
       <path d="M -0.140625 0 
L 27.34375 71.578125 
L 37.546875 71.578125 
L 66.84375 0 
L 56.0625 0 
L 47.703125 21.6875 
L 17.78125 21.6875 
L 9.90625 0 
z
M 20.515625 29.390625 
L 44.78125 29.390625 
L 37.3125 49.21875 
Q 33.890625 58.25 32.234375 64.0625 
Q 30.859375 57.171875 28.375 50.390625 
z
" id="ArialMT-65"/>
       <path d="M 6.203125 -19.96875 
L 5.21875 -11.71875 
Q 8.109375 -12.5 10.25 -12.5 
Q 13.1875 -12.5 14.9375 -11.515625 
Q 16.703125 -10.546875 17.828125 -8.796875 
Q 18.65625 -7.46875 20.515625 -2.25 
Q 20.75 -1.515625 21.296875 -0.09375 
L 1.609375 51.859375 
L 11.078125 51.859375 
L 21.875 21.828125 
Q 23.96875 16.109375 25.640625 9.8125 
Q 27.15625 15.875 29.25 21.625 
L 40.328125 51.859375 
L 49.125 51.859375 
L 29.390625 -0.875 
Q 26.21875 -9.421875 24.46875 -12.640625 
Q 22.125 -17 19.09375 -19.015625 
Q 16.0625 -21.046875 11.859375 -21.046875 
Q 9.328125 -21.046875 6.203125 -19.96875 
z
" id="ArialMT-121"/>
      </defs>
      <g style="fill:#262626;" transform="translate(100.623437 427.602969)scale(0.1 -0.1)">
       <use xlink:href="#ArialMT-40"/>
       <use x="33.300781" xlink:href="#ArialMT-73"/>
       <use x="61.083984" xlink:href="#ArialMT-110"/>
       <use x="116.699219" xlink:href="#ArialMT-100"/>
       <use x="172.314453" xlink:href="#ArialMT-105"/>
       <use x="194.53125" xlink:href="#ArialMT-97"/>
       <use x="250.146484" xlink:href="#ArialMT-44"/>
       <use x="277.929688" xlink:href="#ArialMT-32"/>
       <use x="305.712891" xlink:href="#ArialMT-79"/>
       <use x="383.496094" xlink:href="#ArialMT-116"/>
       <use x="411.279297" xlink:href="#ArialMT-104"/>
       <use x="466.894531" xlink:href="#ArialMT-101"/>
       <use x="522.509766" xlink:href="#ArialMT-114"/>
       <use x="555.810547" xlink:href="#ArialMT-32"/>
       <use x="583.59375" xlink:href="#ArialMT-76"/>
       <use x="639.208984" xlink:href="#ArialMT-97"/>
       <use x="694.824219" xlink:href="#ArialMT-115"/>
       <use x="744.824219" xlink:href="#ArialMT-116"/>
       <use x="772.607422" xlink:href="#ArialMT-32"/>
       <use x="800.3125" xlink:href="#ArialMT-65"/>
       <use x="867.011719" xlink:href="#ArialMT-99"/>
       <use x="917.011719" xlink:href="#ArialMT-116"/>
       <use x="944.794922" xlink:href="#ArialMT-105"/>
       <use x="967.011719" xlink:href="#ArialMT-118"/>
       <use x="1017.011719" xlink:href="#ArialMT-105"/>
       <use x="1039.228516" xlink:href="#ArialMT-116"/>
       <use x="1067.011719" xlink:href="#ArialMT-121"/>
       <use x="1117.011719" xlink:href="#ArialMT-41"/>
      </g>
     </g>
    </g>
    <g id="ytick_8">
     <g id="line2d_14">
      <path clip-path="url(#p0aca1923d7)" d="M 222.648438 387.72 
L 1003.848438 387.72 
" style="fill:none;stroke:#cccccc;stroke-linecap:round;stroke-width:0.8;"/>
     </g>
     <g id="text_14">
      <!-- (India, Page Visited on Website) -->
      <defs>
       <path d="M 7.71875 0 
L 7.71875 71.578125 
L 34.71875 71.578125 
Q 41.84375 71.578125 45.609375 70.90625 
Q 50.875 70.015625 54.4375 67.546875 
Q 58.015625 65.09375 60.1875 60.640625 
Q 62.359375 56.203125 62.359375 50.875 
Q 62.359375 41.75 56.546875 35.421875 
Q 50.734375 29.109375 35.546875 29.109375 
L 17.1875 29.109375 
L 17.1875 0 
z
M 17.1875 37.546875 
L 35.6875 37.546875 
Q 44.875 37.546875 48.734375 40.96875 
Q 52.59375 44.390625 52.59375 50.59375 
Q 52.59375 55.078125 50.3125 58.265625 
Q 48.046875 61.46875 44.34375 62.5 
Q 41.9375 63.140625 35.5 63.140625 
L 17.1875 63.140625 
z
" id="ArialMT-80"/>
       <path d="M 4.984375 -4.296875 
L 13.53125 -5.5625 
Q 14.0625 -9.515625 16.5 -11.328125 
Q 19.78125 -13.765625 25.4375 -13.765625 
Q 31.546875 -13.765625 34.859375 -11.328125 
Q 38.1875 -8.890625 39.359375 -4.5 
Q 40.046875 -1.8125 39.984375 6.78125 
Q 34.234375 0 25.640625 0 
Q 14.9375 0 9.078125 7.71875 
Q 3.21875 15.4375 3.21875 26.21875 
Q 3.21875 33.640625 5.90625 39.90625 
Q 8.59375 46.1875 13.6875 49.609375 
Q 18.796875 53.03125 25.6875 53.03125 
Q 34.859375 53.03125 40.828125 45.609375 
L 40.828125 51.859375 
L 48.921875 51.859375 
L 48.921875 7.03125 
Q 48.921875 -5.078125 46.453125 -10.125 
Q 44 -15.1875 38.640625 -18.109375 
Q 33.296875 -21.046875 25.484375 -21.046875 
Q 16.21875 -21.046875 10.5 -16.875 
Q 4.78125 -12.703125 4.984375 -4.296875 
z
M 12.25 26.859375 
Q 12.25 16.65625 16.296875 11.96875 
Q 20.359375 7.28125 26.46875 7.28125 
Q 32.515625 7.28125 36.609375 11.9375 
Q 40.71875 16.609375 40.71875 26.5625 
Q 40.71875 36.078125 36.5 40.90625 
Q 32.28125 45.75 26.3125 45.75 
Q 20.453125 45.75 16.34375 40.984375 
Q 12.25 36.234375 12.25 26.859375 
z
" id="ArialMT-103"/>
       <path d="M 28.171875 0 
L 0.4375 71.578125 
L 10.6875 71.578125 
L 29.296875 19.578125 
Q 31.546875 13.328125 33.0625 7.859375 
Q 34.71875 13.71875 36.921875 19.578125 
L 56.25 71.578125 
L 65.921875 71.578125 
L 37.890625 0 
z
" id="ArialMT-86"/>
      </defs>
      <g style="fill:#262626;" transform="translate(72.807812 391.359844)scale(0.1 -0.1)">
       <use xlink:href="#ArialMT-40"/>
       <use x="33.300781" xlink:href="#ArialMT-73"/>
       <use x="61.083984" xlink:href="#ArialMT-110"/>
       <use x="116.699219" xlink:href="#ArialMT-100"/>
       <use x="172.314453" xlink:href="#ArialMT-105"/>
       <use x="194.53125" xlink:href="#ArialMT-97"/>
       <use x="250.146484" xlink:href="#ArialMT-44"/>
       <use x="277.929688" xlink:href="#ArialMT-32"/>
       <use x="305.712891" xlink:href="#ArialMT-80"/>
       <use x="372.412109" xlink:href="#ArialMT-97"/>
       <use x="428.027344" xlink:href="#ArialMT-103"/>
       <use x="483.642578" xlink:href="#ArialMT-101"/>
       <use x="539.257812" xlink:href="#ArialMT-32"/>
       <use x="567.041016" xlink:href="#ArialMT-86"/>
       <use x="633.724609" xlink:href="#ArialMT-105"/>
       <use x="655.941406" xlink:href="#ArialMT-115"/>
       <use x="705.941406" xlink:href="#ArialMT-105"/>
       <use x="728.158203" xlink:href="#ArialMT-116"/>
       <use x="755.941406" xlink:href="#ArialMT-101"/>
       <use x="811.556641" xlink:href="#ArialMT-100"/>
       <use x="867.171875" xlink:href="#ArialMT-32"/>
       <use x="894.955078" xlink:href="#ArialMT-111"/>
       <use x="950.570312" xlink:href="#ArialMT-110"/>
       <use x="1006.185547" xlink:href="#ArialMT-32"/>
       <use x="1033.96875" xlink:href="#ArialMT-87"/>
       <use x="1128.337891" xlink:href="#ArialMT-101"/>
       <use x="1183.953125" xlink:href="#ArialMT-98"/>
       <use x="1239.568359" xlink:href="#ArialMT-115"/>
       <use x="1289.568359" xlink:href="#ArialMT-105"/>
       <use x="1311.785156" xlink:href="#ArialMT-116"/>
       <use x="1339.568359" xlink:href="#ArialMT-101"/>
       <use x="1395.183594" xlink:href="#ArialMT-41"/>
      </g>
     </g>
    </g>
    <g id="ytick_9">
     <g id="line2d_15">
      <path clip-path="url(#p0aca1923d7)" d="M 222.648438 351.48 
L 1003.848438 351.48 
" style="fill:none;stroke:#cccccc;stroke-linecap:round;stroke-width:0.8;"/>
     </g>
     <g id="text_15">
      <!-- (India, SMS Sent) -->
      <defs>
       <path d="M 7.421875 0 
L 7.421875 71.578125 
L 21.6875 71.578125 
L 38.625 20.90625 
Q 40.96875 13.8125 42.046875 10.296875 
Q 43.265625 14.203125 45.84375 21.78125 
L 62.984375 71.578125 
L 75.734375 71.578125 
L 75.734375 0 
L 66.609375 0 
L 66.609375 59.90625 
L 45.796875 0 
L 37.25 0 
L 16.546875 60.9375 
L 16.546875 0 
z
" id="ArialMT-77"/>
      </defs>
      <g style="fill:#262626;" transform="translate(136.73125 355.119844)scale(0.1 -0.1)">
       <use xlink:href="#ArialMT-40"/>
       <use x="33.300781" xlink:href="#ArialMT-73"/>
       <use x="61.083984" xlink:href="#ArialMT-110"/>
       <use x="116.699219" xlink:href="#ArialMT-100"/>
       <use x="172.314453" xlink:href="#ArialMT-105"/>
       <use x="194.53125" xlink:href="#ArialMT-97"/>
       <use x="250.146484" xlink:href="#ArialMT-44"/>
       <use x="277.929688" xlink:href="#ArialMT-32"/>
       <use x="305.712891" xlink:href="#ArialMT-83"/>
       <use x="372.412109" xlink:href="#ArialMT-77"/>
       <use x="455.712891" xlink:href="#ArialMT-83"/>
       <use x="522.412109" xlink:href="#ArialMT-32"/>
       <use x="550.195312" xlink:href="#ArialMT-83"/>
       <use x="616.894531" xlink:href="#ArialMT-101"/>
       <use x="672.509766" xlink:href="#ArialMT-110"/>
       <use x="728.125" xlink:href="#ArialMT-116"/>
       <use x="755.908203" xlink:href="#ArialMT-41"/>
      </g>
     </g>
    </g>
    <g id="ytick_10">
     <g id="line2d_16">
      <path clip-path="url(#p0aca1923d7)" d="M 222.648438 315.24 
L 1003.848438 315.24 
" style="fill:none;stroke:#cccccc;stroke-linecap:round;stroke-width:0.8;"/>
     </g>
     <g id="text_16">
      <!-- (Outside India, Converted to Lead) -->
      <g style="fill:#262626;" transform="translate(62.2375 318.882969)scale(0.1 -0.1)">
       <use xlink:href="#ArialMT-40"/>
       <use x="33.300781" xlink:href="#ArialMT-79"/>
       <use x="111.083984" xlink:href="#ArialMT-117"/>
       <use x="166.699219" xlink:href="#ArialMT-116"/>
       <use x="194.482422" xlink:href="#ArialMT-115"/>
       <use x="244.482422" xlink:href="#ArialMT-105"/>
       <use x="266.699219" xlink:href="#ArialMT-100"/>
       <use x="322.314453" xlink:href="#ArialMT-101"/>
       <use x="377.929688" xlink:href="#ArialMT-32"/>
       <use x="405.712891" xlink:href="#ArialMT-73"/>
       <use x="433.496094" xlink:href="#ArialMT-110"/>
       <use x="489.111328" xlink:href="#ArialMT-100"/>
       <use x="544.726562" xlink:href="#ArialMT-105"/>
       <use x="566.943359" xlink:href="#ArialMT-97"/>
       <use x="622.558594" xlink:href="#ArialMT-44"/>
       <use x="650.341797" xlink:href="#ArialMT-32"/>
       <use x="678.125" xlink:href="#ArialMT-67"/>
       <use x="750.341797" xlink:href="#ArialMT-111"/>
       <use x="805.957031" xlink:href="#ArialMT-110"/>
       <use x="861.572266" xlink:href="#ArialMT-118"/>
       <use x="911.572266" xlink:href="#ArialMT-101"/>
       <use x="967.1875" xlink:href="#ArialMT-114"/>
       <use x="1000.488281" xlink:href="#ArialMT-116"/>
       <use x="1028.271484" xlink:href="#ArialMT-101"/>
       <use x="1083.886719" xlink:href="#ArialMT-100"/>
       <use x="1139.501953" xlink:href="#ArialMT-32"/>
       <use x="1167.285156" xlink:href="#ArialMT-116"/>
       <use x="1195.068359" xlink:href="#ArialMT-111"/>
       <use x="1250.683594" xlink:href="#ArialMT-32"/>
       <use x="1278.466797" xlink:href="#ArialMT-76"/>
       <use x="1334.082031" xlink:href="#ArialMT-101"/>
       <use x="1389.697266" xlink:href="#ArialMT-97"/>
       <use x="1445.3125" xlink:href="#ArialMT-100"/>
       <use x="1500.927734" xlink:href="#ArialMT-41"/>
      </g>
     </g>
    </g>
    <g id="ytick_11">
     <g id="line2d_17">
      <path clip-path="url(#p0aca1923d7)" d="M 222.648438 279 
L 1003.848438 279 
" style="fill:none;stroke:#cccccc;stroke-linecap:round;stroke-width:0.8;"/>
     </g>
     <g id="text_17">
      <!-- (Outside India, Email Bounced) -->
      <g style="fill:#262626;" transform="translate(77.253125 282.642969)scale(0.1 -0.1)">
       <use xlink:href="#ArialMT-40"/>
       <use x="33.300781" xlink:href="#ArialMT-79"/>
       <use x="111.083984" xlink:href="#ArialMT-117"/>
       <use x="166.699219" xlink:href="#ArialMT-116"/>
       <use x="194.482422" xlink:href="#ArialMT-115"/>
       <use x="244.482422" xlink:href="#ArialMT-105"/>
       <use x="266.699219" xlink:href="#ArialMT-100"/>
       <use x="322.314453" xlink:href="#ArialMT-101"/>
       <use x="377.929688" xlink:href="#ArialMT-32"/>
       <use x="405.712891" xlink:href="#ArialMT-73"/>
       <use x="433.496094" xlink:href="#ArialMT-110"/>
       <use x="489.111328" xlink:href="#ArialMT-100"/>
       <use x="544.726562" xlink:href="#ArialMT-105"/>
       <use x="566.943359" xlink:href="#ArialMT-97"/>
       <use x="622.558594" xlink:href="#ArialMT-44"/>
       <use x="650.341797" xlink:href="#ArialMT-32"/>
       <use x="678.125" xlink:href="#ArialMT-69"/>
       <use x="744.824219" xlink:href="#ArialMT-109"/>
       <use x="828.125" xlink:href="#ArialMT-97"/>
       <use x="883.740234" xlink:href="#ArialMT-105"/>
       <use x="905.957031" xlink:href="#ArialMT-108"/>
       <use x="928.173828" xlink:href="#ArialMT-32"/>
       <use x="955.957031" xlink:href="#ArialMT-66"/>
       <use x="1022.65625" xlink:href="#ArialMT-111"/>
       <use x="1078.271484" xlink:href="#ArialMT-117"/>
       <use x="1133.886719" xlink:href="#ArialMT-110"/>
       <use x="1189.501953" xlink:href="#ArialMT-99"/>
       <use x="1239.501953" xlink:href="#ArialMT-101"/>
       <use x="1295.117188" xlink:href="#ArialMT-100"/>
       <use x="1350.732422" xlink:href="#ArialMT-41"/>
      </g>
     </g>
    </g>
    <g id="ytick_12">
     <g id="line2d_18">
      <path clip-path="url(#p0aca1923d7)" d="M 222.648438 242.76 
L 1003.848438 242.76 
" style="fill:none;stroke:#cccccc;stroke-linecap:round;stroke-width:0.8;"/>
     </g>
     <g id="text_18">
      <!-- (Outside India, Email Link Clicked) -->
      <g style="fill:#262626;" transform="translate(62.81875 246.402969)scale(0.1 -0.1)">
       <use xlink:href="#ArialMT-40"/>
       <use x="33.300781" xlink:href="#ArialMT-79"/>
       <use x="111.083984" xlink:href="#ArialMT-117"/>
       <use x="166.699219" xlink:href="#ArialMT-116"/>
       <use x="194.482422" xlink:href="#ArialMT-115"/>
       <use x="244.482422" xlink:href="#ArialMT-105"/>
       <use x="266.699219" xlink:href="#ArialMT-100"/>
       <use x="322.314453" xlink:href="#ArialMT-101"/>
       <use x="377.929688" xlink:href="#ArialMT-32"/>
       <use x="405.712891" xlink:href="#ArialMT-73"/>
       <use x="433.496094" xlink:href="#ArialMT-110"/>
       <use x="489.111328" xlink:href="#ArialMT-100"/>
       <use x="544.726562" xlink:href="#ArialMT-105"/>
       <use x="566.943359" xlink:href="#ArialMT-97"/>
       <use x="622.558594" xlink:href="#ArialMT-44"/>
       <use x="650.341797" xlink:href="#ArialMT-32"/>
       <use x="678.125" xlink:href="#ArialMT-69"/>
       <use x="744.824219" xlink:href="#ArialMT-109"/>
       <use x="828.125" xlink:href="#ArialMT-97"/>
       <use x="883.740234" xlink:href="#ArialMT-105"/>
       <use x="905.957031" xlink:href="#ArialMT-108"/>
       <use x="928.173828" xlink:href="#ArialMT-32"/>
       <use x="955.957031" xlink:href="#ArialMT-76"/>
       <use x="1011.572266" xlink:href="#ArialMT-105"/>
       <use x="1033.789062" xlink:href="#ArialMT-110"/>
       <use x="1089.404297" xlink:href="#ArialMT-107"/>
       <use x="1139.404297" xlink:href="#ArialMT-32"/>
       <use x="1167.1875" xlink:href="#ArialMT-67"/>
       <use x="1239.404297" xlink:href="#ArialMT-108"/>
       <use x="1261.621094" xlink:href="#ArialMT-105"/>
       <use x="1283.837891" xlink:href="#ArialMT-99"/>
       <use x="1333.837891" xlink:href="#ArialMT-107"/>
       <use x="1383.837891" xlink:href="#ArialMT-101"/>
       <use x="1439.453125" xlink:href="#ArialMT-100"/>
       <use x="1495.068359" xlink:href="#ArialMT-41"/>
      </g>
     </g>
    </g>
    <g id="ytick_13">
     <g id="line2d_19">
      <path clip-path="url(#p0aca1923d7)" d="M 222.648438 206.52 
L 1003.848438 206.52 
" style="fill:none;stroke:#cccccc;stroke-linecap:round;stroke-width:0.8;"/>
     </g>
     <g id="text_19">
      <!-- (Outside India, Email Opened) -->
      <g style="fill:#262626;" transform="translate(81.145312 210.162969)scale(0.1 -0.1)">
       <use xlink:href="#ArialMT-40"/>
       <use x="33.300781" xlink:href="#ArialMT-79"/>
       <use x="111.083984" xlink:href="#ArialMT-117"/>
       <use x="166.699219" xlink:href="#ArialMT-116"/>
       <use x="194.482422" xlink:href="#ArialMT-115"/>
       <use x="244.482422" xlink:href="#ArialMT-105"/>
       <use x="266.699219" xlink:href="#ArialMT-100"/>
       <use x="322.314453" xlink:href="#ArialMT-101"/>
       <use x="377.929688" xlink:href="#ArialMT-32"/>
       <use x="405.712891" xlink:href="#ArialMT-73"/>
       <use x="433.496094" xlink:href="#ArialMT-110"/>
       <use x="489.111328" xlink:href="#ArialMT-100"/>
       <use x="544.726562" xlink:href="#ArialMT-105"/>
       <use x="566.943359" xlink:href="#ArialMT-97"/>
       <use x="622.558594" xlink:href="#ArialMT-44"/>
       <use x="650.341797" xlink:href="#ArialMT-32"/>
       <use x="678.125" xlink:href="#ArialMT-69"/>
       <use x="744.824219" xlink:href="#ArialMT-109"/>
       <use x="828.125" xlink:href="#ArialMT-97"/>
       <use x="883.740234" xlink:href="#ArialMT-105"/>
       <use x="905.957031" xlink:href="#ArialMT-108"/>
       <use x="928.173828" xlink:href="#ArialMT-32"/>
       <use x="955.957031" xlink:href="#ArialMT-79"/>
       <use x="1033.740234" xlink:href="#ArialMT-112"/>
       <use x="1089.355469" xlink:href="#ArialMT-101"/>
       <use x="1144.970703" xlink:href="#ArialMT-110"/>
       <use x="1200.585938" xlink:href="#ArialMT-101"/>
       <use x="1256.201172" xlink:href="#ArialMT-100"/>
       <use x="1311.816406" xlink:href="#ArialMT-41"/>
      </g>
     </g>
    </g>
    <g id="ytick_14">
     <g id="line2d_20">
      <path clip-path="url(#p0aca1923d7)" d="M 222.648438 170.28 
L 1003.848438 170.28 
" style="fill:none;stroke:#cccccc;stroke-linecap:round;stroke-width:0.8;"/>
     </g>
     <g id="text_20">
      <!-- (Outside India, Form Submitted on Website) -->
      <g style="fill:#262626;" transform="translate(20.584375 173.922969)scale(0.1 -0.1)">
       <use xlink:href="#ArialMT-40"/>
       <use x="33.300781" xlink:href="#ArialMT-79"/>
       <use x="111.083984" xlink:href="#ArialMT-117"/>
       <use x="166.699219" xlink:href="#ArialMT-116"/>
       <use x="194.482422" xlink:href="#ArialMT-115"/>
       <use x="244.482422" xlink:href="#ArialMT-105"/>
       <use x="266.699219" xlink:href="#ArialMT-100"/>
       <use x="322.314453" xlink:href="#ArialMT-101"/>
       <use x="377.929688" xlink:href="#ArialMT-32"/>
       <use x="405.712891" xlink:href="#ArialMT-73"/>
       <use x="433.496094" xlink:href="#ArialMT-110"/>
       <use x="489.111328" xlink:href="#ArialMT-100"/>
       <use x="544.726562" xlink:href="#ArialMT-105"/>
       <use x="566.943359" xlink:href="#ArialMT-97"/>
       <use x="622.558594" xlink:href="#ArialMT-44"/>
       <use x="650.341797" xlink:href="#ArialMT-32"/>
       <use x="678.125" xlink:href="#ArialMT-70"/>
       <use x="739.208984" xlink:href="#ArialMT-111"/>
       <use x="794.824219" xlink:href="#ArialMT-114"/>
       <use x="828.125" xlink:href="#ArialMT-109"/>
       <use x="911.425781" xlink:href="#ArialMT-32"/>
       <use x="939.208984" xlink:href="#ArialMT-83"/>
       <use x="1005.908203" xlink:href="#ArialMT-117"/>
       <use x="1061.523438" xlink:href="#ArialMT-98"/>
       <use x="1117.138672" xlink:href="#ArialMT-109"/>
       <use x="1200.439453" xlink:href="#ArialMT-105"/>
       <use x="1222.65625" xlink:href="#ArialMT-116"/>
       <use x="1250.439453" xlink:href="#ArialMT-116"/>
       <use x="1278.222656" xlink:href="#ArialMT-101"/>
       <use x="1333.837891" xlink:href="#ArialMT-100"/>
       <use x="1389.453125" xlink:href="#ArialMT-32"/>
       <use x="1417.236328" xlink:href="#ArialMT-111"/>
       <use x="1472.851562" xlink:href="#ArialMT-110"/>
       <use x="1528.466797" xlink:href="#ArialMT-32"/>
       <use x="1556.25" xlink:href="#ArialMT-87"/>
       <use x="1650.619141" xlink:href="#ArialMT-101"/>
       <use x="1706.234375" xlink:href="#ArialMT-98"/>
       <use x="1761.849609" xlink:href="#ArialMT-115"/>
       <use x="1811.849609" xlink:href="#ArialMT-105"/>
       <use x="1834.066406" xlink:href="#ArialMT-116"/>
       <use x="1861.849609" xlink:href="#ArialMT-101"/>
       <use x="1917.464844" xlink:href="#ArialMT-41"/>
      </g>
     </g>
    </g>
    <g id="ytick_15">
     <g id="line2d_21">
      <path clip-path="url(#p0aca1923d7)" d="M 222.648438 134.04 
L 1003.848438 134.04 
" style="fill:none;stroke:#cccccc;stroke-linecap:round;stroke-width:0.8;"/>
     </g>
     <g id="text_21">
      <!-- (Outside India, Olark Chat Conversation) -->
      <g style="fill:#262626;" transform="translate(35.025 137.682969)scale(0.1 -0.1)">
       <use xlink:href="#ArialMT-40"/>
       <use x="33.300781" xlink:href="#ArialMT-79"/>
       <use x="111.083984" xlink:href="#ArialMT-117"/>
       <use x="166.699219" xlink:href="#ArialMT-116"/>
       <use x="194.482422" xlink:href="#ArialMT-115"/>
       <use x="244.482422" xlink:href="#ArialMT-105"/>
       <use x="266.699219" xlink:href="#ArialMT-100"/>
       <use x="322.314453" xlink:href="#ArialMT-101"/>
       <use x="377.929688" xlink:href="#ArialMT-32"/>
       <use x="405.712891" xlink:href="#ArialMT-73"/>
       <use x="433.496094" xlink:href="#ArialMT-110"/>
       <use x="489.111328" xlink:href="#ArialMT-100"/>
       <use x="544.726562" xlink:href="#ArialMT-105"/>
       <use x="566.943359" xlink:href="#ArialMT-97"/>
       <use x="622.558594" xlink:href="#ArialMT-44"/>
       <use x="650.341797" xlink:href="#ArialMT-32"/>
       <use x="678.125" xlink:href="#ArialMT-79"/>
       <use x="755.908203" xlink:href="#ArialMT-108"/>
       <use x="778.125" xlink:href="#ArialMT-97"/>
       <use x="833.740234" xlink:href="#ArialMT-114"/>
       <use x="867.041016" xlink:href="#ArialMT-107"/>
       <use x="917.041016" xlink:href="#ArialMT-32"/>
       <use x="944.824219" xlink:href="#ArialMT-67"/>
       <use x="1017.041016" xlink:href="#ArialMT-104"/>
       <use x="1072.65625" xlink:href="#ArialMT-97"/>
       <use x="1128.271484" xlink:href="#ArialMT-116"/>
       <use x="1156.054688" xlink:href="#ArialMT-32"/>
       <use x="1183.837891" xlink:href="#ArialMT-67"/>
       <use x="1256.054688" xlink:href="#ArialMT-111"/>
       <use x="1311.669922" xlink:href="#ArialMT-110"/>
       <use x="1367.285156" xlink:href="#ArialMT-118"/>
       <use x="1417.285156" xlink:href="#ArialMT-101"/>
       <use x="1472.900391" xlink:href="#ArialMT-114"/>
       <use x="1506.201172" xlink:href="#ArialMT-115"/>
       <use x="1556.201172" xlink:href="#ArialMT-97"/>
       <use x="1611.816406" xlink:href="#ArialMT-116"/>
       <use x="1639.599609" xlink:href="#ArialMT-105"/>
       <use x="1661.816406" xlink:href="#ArialMT-111"/>
       <use x="1717.431641" xlink:href="#ArialMT-110"/>
       <use x="1773.046875" xlink:href="#ArialMT-41"/>
      </g>
     </g>
    </g>
    <g id="ytick_16">
     <g id="line2d_22">
      <path clip-path="url(#p0aca1923d7)" d="M 222.648438 97.8 
L 1003.848438 97.8 
" style="fill:none;stroke:#cccccc;stroke-linecap:round;stroke-width:0.8;"/>
     </g>
     <g id="text_22">
      <!-- (Outside India, Other Last Activity) -->
      <g style="fill:#262626;" transform="translate(63.384375 101.442969)scale(0.1 -0.1)">
       <use xlink:href="#ArialMT-40"/>
       <use x="33.300781" xlink:href="#ArialMT-79"/>
       <use x="111.083984" xlink:href="#ArialMT-117"/>
       <use x="166.699219" xlink:href="#ArialMT-116"/>
       <use x="194.482422" xlink:href="#ArialMT-115"/>
       <use x="244.482422" xlink:href="#ArialMT-105"/>
       <use x="266.699219" xlink:href="#ArialMT-100"/>
       <use x="322.314453" xlink:href="#ArialMT-101"/>
       <use x="377.929688" xlink:href="#ArialMT-32"/>
       <use x="405.712891" xlink:href="#ArialMT-73"/>
       <use x="433.496094" xlink:href="#ArialMT-110"/>
       <use x="489.111328" xlink:href="#ArialMT-100"/>
       <use x="544.726562" xlink:href="#ArialMT-105"/>
       <use x="566.943359" xlink:href="#ArialMT-97"/>
       <use x="622.558594" xlink:href="#ArialMT-44"/>
       <use x="650.341797" xlink:href="#ArialMT-32"/>
       <use x="678.125" xlink:href="#ArialMT-79"/>
       <use x="755.908203" xlink:href="#ArialMT-116"/>
       <use x="783.691406" xlink:href="#ArialMT-104"/>
       <use x="839.306641" xlink:href="#ArialMT-101"/>
       <use x="894.921875" xlink:href="#ArialMT-114"/>
       <use x="928.222656" xlink:href="#ArialMT-32"/>
       <use x="956.005859" xlink:href="#ArialMT-76"/>
       <use x="1011.621094" xlink:href="#ArialMT-97"/>
       <use x="1067.236328" xlink:href="#ArialMT-115"/>
       <use x="1117.236328" xlink:href="#ArialMT-116"/>
       <use x="1145.019531" xlink:href="#ArialMT-32"/>
       <use x="1172.724609" xlink:href="#ArialMT-65"/>
       <use x="1239.423828" xlink:href="#ArialMT-99"/>
       <use x="1289.423828" xlink:href="#ArialMT-116"/>
       <use x="1317.207031" xlink:href="#ArialMT-105"/>
       <use x="1339.423828" xlink:href="#ArialMT-118"/>
       <use x="1389.423828" xlink:href="#ArialMT-105"/>
       <use x="1411.640625" xlink:href="#ArialMT-116"/>
       <use x="1439.423828" xlink:href="#ArialMT-121"/>
       <use x="1489.423828" xlink:href="#ArialMT-41"/>
      </g>
     </g>
    </g>
    <g id="ytick_17">
     <g id="line2d_23">
      <path clip-path="url(#p0aca1923d7)" d="M 222.648438 61.56 
L 1003.848438 61.56 
" style="fill:none;stroke:#cccccc;stroke-linecap:round;stroke-width:0.8;"/>
     </g>
     <g id="text_23">
      <!-- (Outside India, Page Visited on Website) -->
      <g style="fill:#262626;" transform="translate(35.56875 65.202969)scale(0.1 -0.1)">
       <use xlink:href="#ArialMT-40"/>
       <use x="33.300781" xlink:href="#ArialMT-79"/>
       <use x="111.083984" xlink:href="#ArialMT-117"/>
       <use x="166.699219" xlink:href="#ArialMT-116"/>
       <use x="194.482422" xlink:href="#ArialMT-115"/>
       <use x="244.482422" xlink:href="#ArialMT-105"/>
       <use x="266.699219" xlink:href="#ArialMT-100"/>
       <use x="322.314453" xlink:href="#ArialMT-101"/>
       <use x="377.929688" xlink:href="#ArialMT-32"/>
       <use x="405.712891" xlink:href="#ArialMT-73"/>
       <use x="433.496094" xlink:href="#ArialMT-110"/>
       <use x="489.111328" xlink:href="#ArialMT-100"/>
       <use x="544.726562" xlink:href="#ArialMT-105"/>
       <use x="566.943359" xlink:href="#ArialMT-97"/>
       <use x="622.558594" xlink:href="#ArialMT-44"/>
       <use x="650.341797" xlink:href="#ArialMT-32"/>
       <use x="678.125" xlink:href="#ArialMT-80"/>
       <use x="744.824219" xlink:href="#ArialMT-97"/>
       <use x="800.439453" xlink:href="#ArialMT-103"/>
       <use x="856.054688" xlink:href="#ArialMT-101"/>
       <use x="911.669922" xlink:href="#ArialMT-32"/>
       <use x="939.453125" xlink:href="#ArialMT-86"/>
       <use x="1006.136719" xlink:href="#ArialMT-105"/>
       <use x="1028.353516" xlink:href="#ArialMT-115"/>
       <use x="1078.353516" xlink:href="#ArialMT-105"/>
       <use x="1100.570312" xlink:href="#ArialMT-116"/>
       <use x="1128.353516" xlink:href="#ArialMT-101"/>
       <use x="1183.96875" xlink:href="#ArialMT-100"/>
       <use x="1239.583984" xlink:href="#ArialMT-32"/>
       <use x="1267.367188" xlink:href="#ArialMT-111"/>
       <use x="1322.982422" xlink:href="#ArialMT-110"/>
       <use x="1378.597656" xlink:href="#ArialMT-32"/>
       <use x="1406.380859" xlink:href="#ArialMT-87"/>
       <use x="1500.75" xlink:href="#ArialMT-101"/>
       <use x="1556.365234" xlink:href="#ArialMT-98"/>
       <use x="1611.980469" xlink:href="#ArialMT-115"/>
       <use x="1661.980469" xlink:href="#ArialMT-105"/>
       <use x="1684.197266" xlink:href="#ArialMT-116"/>
       <use x="1711.980469" xlink:href="#ArialMT-101"/>
       <use x="1767.595703" xlink:href="#ArialMT-41"/>
      </g>
     </g>
    </g>
    <g id="ytick_18">
     <g id="line2d_24">
      <path clip-path="url(#p0aca1923d7)" d="M 222.648438 25.32 
L 1003.848438 25.32 
" style="fill:none;stroke:#cccccc;stroke-linecap:round;stroke-width:0.8;"/>
     </g>
     <g id="text_24">
      <!-- (Outside India, SMS Sent) -->
      <g style="fill:#262626;" transform="translate(99.492188 28.962969)scale(0.1 -0.1)">
       <use xlink:href="#ArialMT-40"/>
       <use x="33.300781" xlink:href="#ArialMT-79"/>
       <use x="111.083984" xlink:href="#ArialMT-117"/>
       <use x="166.699219" xlink:href="#ArialMT-116"/>
       <use x="194.482422" xlink:href="#ArialMT-115"/>
       <use x="244.482422" xlink:href="#ArialMT-105"/>
       <use x="266.699219" xlink:href="#ArialMT-100"/>
       <use x="322.314453" xlink:href="#ArialMT-101"/>
       <use x="377.929688" xlink:href="#ArialMT-32"/>
       <use x="405.712891" xlink:href="#ArialMT-73"/>
       <use x="433.496094" xlink:href="#ArialMT-110"/>
       <use x="489.111328" xlink:href="#ArialMT-100"/>
       <use x="544.726562" xlink:href="#ArialMT-105"/>
       <use x="566.943359" xlink:href="#ArialMT-97"/>
       <use x="622.558594" xlink:href="#ArialMT-44"/>
       <use x="650.341797" xlink:href="#ArialMT-32"/>
       <use x="678.125" xlink:href="#ArialMT-83"/>
       <use x="744.824219" xlink:href="#ArialMT-77"/>
       <use x="828.125" xlink:href="#ArialMT-83"/>
       <use x="894.824219" xlink:href="#ArialMT-32"/>
       <use x="922.607422" xlink:href="#ArialMT-83"/>
       <use x="989.306641" xlink:href="#ArialMT-101"/>
       <use x="1044.921875" xlink:href="#ArialMT-110"/>
       <use x="1100.537109" xlink:href="#ArialMT-116"/>
       <use x="1128.320312" xlink:href="#ArialMT-41"/>
      </g>
     </g>
    </g>
    <g id="text_25">
     <!-- Country,Last Activity -->
     <g style="fill:#262626;" transform="translate(14.479687 378.920156)rotate(-90)scale(0.1 -0.1)">
      <use xlink:href="#ArialMT-67"/>
      <use x="72.216797" xlink:href="#ArialMT-111"/>
      <use x="127.832031" xlink:href="#ArialMT-117"/>
      <use x="183.447266" xlink:href="#ArialMT-110"/>
      <use x="239.0625" xlink:href="#ArialMT-116"/>
      <use x="266.845703" xlink:href="#ArialMT-114"/>
      <use x="300.146484" xlink:href="#ArialMT-121"/>
      <use x="350.037109" xlink:href="#ArialMT-44"/>
      <use x="377.820312" xlink:href="#ArialMT-76"/>
      <use x="433.435547" xlink:href="#ArialMT-97"/>
      <use x="489.050781" xlink:href="#ArialMT-115"/>
      <use x="539.050781" xlink:href="#ArialMT-116"/>
      <use x="566.833984" xlink:href="#ArialMT-32"/>
      <use x="594.539062" xlink:href="#ArialMT-65"/>
      <use x="661.238281" xlink:href="#ArialMT-99"/>
      <use x="711.238281" xlink:href="#ArialMT-116"/>
      <use x="739.021484" xlink:href="#ArialMT-105"/>
      <use x="761.238281" xlink:href="#ArialMT-118"/>
      <use x="811.238281" xlink:href="#ArialMT-105"/>
      <use x="833.455078" xlink:href="#ArialMT-116"/>
      <use x="861.238281" xlink:href="#ArialMT-121"/>
     </g>
    </g>
   </g>
   <g id="patch_3">
    <path clip-path="url(#p0aca1923d7)" d="M 222.648438 650.46 
L 876.137489 650.46 
L 876.137489 632.34 
L 222.648438 632.34 
z
" style="fill:#1f77b4;stroke:#ffffff;stroke-linejoin:miter;"/>
   </g>
   <g id="patch_4">
    <path clip-path="url(#p0aca1923d7)" d="M 222.648438 614.22 
L 925.741221 614.22 
L 925.741221 596.1 
L 222.648438 596.1 
z
" style="fill:#1f77b4;stroke:#ffffff;stroke-linejoin:miter;"/>
   </g>
   <g id="patch_5">
    <path clip-path="url(#p0aca1923d7)" d="M 222.648438 577.98 
L 766.897465 577.98 
L 766.897465 559.86 
L 222.648438 559.86 
z
" style="fill:#1f77b4;stroke:#ffffff;stroke-linejoin:miter;"/>
   </g>
   <g id="patch_6">
    <path clip-path="url(#p0aca1923d7)" d="M 222.648438 541.74 
L 693.863368 541.74 
L 693.863368 523.62 
L 222.648438 523.62 
z
" style="fill:#1f77b4;stroke:#ffffff;stroke-linejoin:miter;"/>
   </g>
   <g id="patch_7">
    <path clip-path="url(#p0aca1923d7)" d="M 222.648438 505.5 
L 785.675465 505.5 
L 785.675465 487.38 
L 222.648438 487.38 
z
" style="fill:#1f77b4;stroke:#ffffff;stroke-linejoin:miter;"/>
   </g>
   <g id="patch_8">
    <path clip-path="url(#p0aca1923d7)" d="M 222.648438 469.26 
L 901.480554 469.26 
L 901.480554 451.14 
L 222.648438 451.14 
z
" style="fill:#1f77b4;stroke:#ffffff;stroke-linejoin:miter;"/>
   </g>
   <g id="patch_9">
    <path clip-path="url(#p0aca1923d7)" d="M 222.648438 433.02 
L 674.803134 433.02 
L 674.803134 414.9 
L 222.648438 414.9 
z
" style="fill:#1f77b4;stroke:#ffffff;stroke-linejoin:miter;"/>
   </g>
   <g id="patch_10">
    <path clip-path="url(#p0aca1923d7)" d="M 222.648438 396.78 
L 790.310775 396.78 
L 790.310775 378.66 
L 222.648438 378.66 
z
" style="fill:#1f77b4;stroke:#ffffff;stroke-linejoin:miter;"/>
   </g>
   <g id="patch_11">
    <path clip-path="url(#p0aca1923d7)" d="M 222.648438 360.54 
L 495.833735 360.54 
L 495.833735 342.42 
L 222.648438 342.42 
z
" style="fill:#1f77b4;stroke:#ffffff;stroke-linejoin:miter;"/>
   </g>
   <g id="patch_12">
    <path clip-path="url(#p0aca1923d7)" d="M 222.648438 324.3 
L 763.739347 324.3 
L 763.739347 306.18 
L 222.648438 306.18 
z
" style="fill:#1f77b4;stroke:#ffffff;stroke-linejoin:miter;"/>
   </g>
   <g id="patch_13">
    <path clip-path="url(#p0aca1923d7)" d="M 222.648438 288.06 
L 966.648438 288.06 
L 966.648438 269.94 
L 222.648438 269.94 
z
" style="fill:#1f77b4;stroke:#ffffff;stroke-linejoin:miter;"/>
   </g>
   <g id="patch_14">
    <path clip-path="url(#p0aca1923d7)" d="M 222.648438 251.82 
L 718.648438 251.82 
L 718.648438 233.7 
L 222.648438 233.7 
z
" style="fill:#1f77b4;stroke:#ffffff;stroke-linejoin:miter;"/>
   </g>
   <g id="patch_15">
    <path clip-path="url(#p0aca1923d7)" d="M 222.648438 215.58 
L 747.364227 215.58 
L 747.364227 197.46 
L 222.648438 197.46 
z
" style="fill:#1f77b4;stroke:#ffffff;stroke-linejoin:miter;"/>
   </g>
   <g id="patch_16">
    <path clip-path="url(#p0aca1923d7)" d="M 222.648438 179.34 
L 966.648438 179.34 
L 966.648438 161.22 
L 222.648438 161.22 
z
" style="fill:#1f77b4;stroke:#ffffff;stroke-linejoin:miter;"/>
   </g>
   <g id="patch_17">
    <path clip-path="url(#p0aca1923d7)" d="M 222.648438 143.1 
L 966.648438 143.1 
L 966.648438 124.98 
L 222.648438 124.98 
z
" style="fill:#1f77b4;stroke:#ffffff;stroke-linejoin:miter;"/>
   </g>
   <g id="patch_18">
    <path clip-path="url(#p0aca1923d7)" d="M 222.648438 106.86 
L 687.648438 106.86 
L 687.648438 88.74 
L 222.648438 88.74 
z
" style="fill:#1f77b4;stroke:#ffffff;stroke-linejoin:miter;"/>
   </g>
   <g id="patch_19">
    <path clip-path="url(#p0aca1923d7)" d="M 222.648438 70.62 
L 824.934152 70.62 
L 824.934152 52.5 
L 222.648438 52.5 
z
" style="fill:#1f77b4;stroke:#ffffff;stroke-linejoin:miter;"/>
   </g>
   <g id="patch_20">
    <path clip-path="url(#p0aca1923d7)" d="M 222.648438 34.38 
L 642.648438 34.38 
L 642.648438 16.26 
L 222.648438 16.26 
z
" style="fill:#1f77b4;stroke:#ffffff;stroke-linejoin:miter;"/>
   </g>
   <g id="patch_21">
    <path clip-path="url(#p0aca1923d7)" d="M 876.137489 650.46 
L 966.648438 650.46 
L 966.648438 632.34 
L 876.137489 632.34 
z
" style="fill:#ff7f0e;stroke:#ffffff;stroke-linejoin:miter;"/>
   </g>
   <g id="patch_22">
    <path clip-path="url(#p0aca1923d7)" d="M 925.741221 614.22 
L 966.648438 614.22 
L 966.648438 596.1 
L 925.741221 596.1 
z
" style="fill:#ff7f0e;stroke:#ffffff;stroke-linejoin:miter;"/>
   </g>
   <g id="patch_23">
    <path clip-path="url(#p0aca1923d7)" d="M 766.897465 577.98 
L 966.648438 577.98 
L 966.648438 559.86 
L 766.897465 559.86 
z
" style="fill:#ff7f0e;stroke:#ffffff;stroke-linejoin:miter;"/>
   </g>
   <g id="patch_24">
    <path clip-path="url(#p0aca1923d7)" d="M 693.863368 541.74 
L 966.648438 541.74 
L 966.648438 523.62 
L 693.863368 523.62 
z
" style="fill:#ff7f0e;stroke:#ffffff;stroke-linejoin:miter;"/>
   </g>
   <g id="patch_25">
    <path clip-path="url(#p0aca1923d7)" d="M 785.675465 505.5 
L 966.648438 505.5 
L 966.648438 487.38 
L 785.675465 487.38 
z
" style="fill:#ff7f0e;stroke:#ffffff;stroke-linejoin:miter;"/>
   </g>
   <g id="patch_26">
    <path clip-path="url(#p0aca1923d7)" d="M 901.480554 469.26 
L 966.648438 469.26 
L 966.648438 451.14 
L 901.480554 451.14 
z
" style="fill:#ff7f0e;stroke:#ffffff;stroke-linejoin:miter;"/>
   </g>
   <g id="patch_27">
    <path clip-path="url(#p0aca1923d7)" d="M 674.803134 433.02 
L 966.648437 433.02 
L 966.648437 414.9 
L 674.803134 414.9 
z
" style="fill:#ff7f0e;stroke:#ffffff;stroke-linejoin:miter;"/>
   </g>
   <g id="patch_28">
    <path clip-path="url(#p0aca1923d7)" d="M 790.310775 396.78 
L 966.648438 396.78 
L 966.648438 378.66 
L 790.310775 378.66 
z
" style="fill:#ff7f0e;stroke:#ffffff;stroke-linejoin:miter;"/>
   </g>
   <g id="patch_29">
    <path clip-path="url(#p0aca1923d7)" d="M 495.833735 360.54 
L 966.648438 360.54 
L 966.648438 342.42 
L 495.833735 342.42 
z
" style="fill:#ff7f0e;stroke:#ffffff;stroke-linejoin:miter;"/>
   </g>
   <g id="patch_30">
    <path clip-path="url(#p0aca1923d7)" d="M 763.739347 324.3 
L 966.648438 324.3 
L 966.648438 306.18 
L 763.739347 306.18 
z
" style="fill:#ff7f0e;stroke:#ffffff;stroke-linejoin:miter;"/>
   </g>
   <g id="patch_31">
    <path clip-path="url(#p0aca1923d7)" d="M 222.648438 288.06 
L 222.648438 288.06 
L 222.648438 269.94 
L 222.648438 269.94 
z
" style="fill:#ff7f0e;stroke:#ffffff;stroke-linejoin:miter;"/>
   </g>
   <g id="patch_32">
    <path clip-path="url(#p0aca1923d7)" d="M 718.648438 251.82 
L 966.648438 251.82 
L 966.648438 233.7 
L 718.648438 233.7 
z
" style="fill:#ff7f0e;stroke:#ffffff;stroke-linejoin:miter;"/>
   </g>
   <g id="patch_33">
    <path clip-path="url(#p0aca1923d7)" d="M 747.364227 215.58 
L 966.648437 215.58 
L 966.648437 197.46 
L 747.364227 197.46 
z
" style="fill:#ff7f0e;stroke:#ffffff;stroke-linejoin:miter;"/>
   </g>
   <g id="patch_34">
    <path clip-path="url(#p0aca1923d7)" d="M 222.648438 179.34 
L 222.648438 179.34 
L 222.648438 161.22 
L 222.648438 161.22 
z
" style="fill:#ff7f0e;stroke:#ffffff;stroke-linejoin:miter;"/>
   </g>
   <g id="patch_35">
    <path clip-path="url(#p0aca1923d7)" d="M 222.648438 143.1 
L 222.648438 143.1 
L 222.648438 124.98 
L 222.648438 124.98 
z
" style="fill:#ff7f0e;stroke:#ffffff;stroke-linejoin:miter;"/>
   </g>
   <g id="patch_36">
    <path clip-path="url(#p0aca1923d7)" d="M 687.648438 106.86 
L 966.648438 106.86 
L 966.648438 88.74 
L 687.648438 88.74 
z
" style="fill:#ff7f0e;stroke:#ffffff;stroke-linejoin:miter;"/>
   </g>
   <g id="patch_37">
    <path clip-path="url(#p0aca1923d7)" d="M 824.934152 70.62 
L 966.648438 70.62 
L 966.648438 52.5 
L 824.934152 52.5 
z
" style="fill:#ff7f0e;stroke:#ffffff;stroke-linejoin:miter;"/>
   </g>
   <g id="patch_38">
    <path clip-path="url(#p0aca1923d7)" d="M 642.648438 34.38 
L 966.648438 34.38 
L 966.648438 16.26 
L 642.648438 16.26 
z
" style="fill:#ff7f0e;stroke:#ffffff;stroke-linejoin:miter;"/>
   </g>
   <g id="patch_39">
    <path d="M 222.648438 659.52 
L 222.648438 7.2 
" style="fill:none;stroke:#cccccc;stroke-linecap:square;stroke-linejoin:miter;stroke-width:0.8;"/>
   </g>
   <g id="patch_40">
    <path d="M 1003.848438 659.52 
L 1003.848438 7.2 
" style="fill:none;stroke:#cccccc;stroke-linecap:square;stroke-linejoin:miter;stroke-width:0.8;"/>
   </g>
   <g id="patch_41">
    <path d="M 222.648438 659.52 
L 1003.848438 659.52 
" style="fill:none;stroke:#cccccc;stroke-linecap:square;stroke-linejoin:miter;stroke-width:0.8;"/>
   </g>
   <g id="patch_42">
    <path d="M 222.648438 7.2 
L 1003.848438 7.2 
" style="fill:none;stroke:#cccccc;stroke-linecap:square;stroke-linejoin:miter;stroke-width:0.8;"/>
   </g>
   <g id="legend_1">
    <g id="patch_43">
     <path d="M 946.714063 57.635937 
L 996.848438 57.635937 
Q 998.848438 57.635937 998.848438 55.635937 
L 998.848438 14.2 
Q 998.848438 12.2 996.848438 12.2 
L 946.714063 12.2 
Q 944.714063 12.2 944.714063 14.2 
L 944.714063 55.635937 
Q 944.714063 57.635937 946.714063 57.635937 
z
" style="fill:#ffffff;opacity:0.8;stroke:#cccccc;stroke-linejoin:miter;"/>
    </g>
    <g id="text_26">
     <!-- Converted -->
     <g style="fill:#262626;" transform="translate(948.714063 23.357812)scale(0.1 -0.1)">
      <use xlink:href="#ArialMT-67"/>
      <use x="72.216797" xlink:href="#ArialMT-111"/>
      <use x="127.832031" xlink:href="#ArialMT-110"/>
      <use x="183.447266" xlink:href="#ArialMT-118"/>
      <use x="233.447266" xlink:href="#ArialMT-101"/>
      <use x="289.0625" xlink:href="#ArialMT-114"/>
      <use x="322.363281" xlink:href="#ArialMT-116"/>
      <use x="350.146484" xlink:href="#ArialMT-101"/>
      <use x="405.761719" xlink:href="#ArialMT-100"/>
     </g>
    </g>
    <g id="patch_44">
     <path d="M 955.000781 37.503125 
L 975.000781 37.503125 
L 975.000781 30.503125 
L 955.000781 30.503125 
z
" style="fill:#1f77b4;stroke:#ffffff;stroke-linejoin:miter;"/>
    </g>
    <g id="text_27">
     <!-- 0 -->
     <g style="fill:#262626;" transform="translate(983.000781 37.503125)scale(0.1 -0.1)">
      <use xlink:href="#ArialMT-48"/>
     </g>
    </g>
    <g id="patch_45">
     <path d="M 955.000781 51.648438 
L 975.000781 51.648438 
L 975.000781 44.648438 
L 955.000781 44.648438 
z
" style="fill:#ff7f0e;stroke:#ffffff;stroke-linejoin:miter;"/>
    </g>
    <g id="text_28">
     <!-- 1 -->
     <g style="fill:#262626;" transform="translate(983.000781 51.648438)scale(0.1 -0.1)">
      <use xlink:href="#ArialMT-49"/>
     </g>
    </g>
   </g>
  </g>
 </g>
 <defs>
  <clipPath id="p0aca1923d7">
   <rect height="652.32" width="781.2" x="222.648438" y="7.2"/>
  </clipPath>
 </defs>
</svg>
