<?xml version="1.0" encoding="utf-8" standalone="no"?>
<!DOCTYPE svg PUBLIC "-//W3C//DTD SVG 1.1//EN"
  "http://www.w3.org/Graphics/SVG/1.1/DTD/svg11.dtd">
<!-- Created with matplotlib (https://matplotlib.org/) -->
<svg height="330.226875pt" version="1.1" viewBox="0 0 334.395312 330.226875" width="334.395312pt" xmlns="http://www.w3.org/2000/svg" xmlns:xlink="http://www.w3.org/1999/xlink">
 <defs>
  <style type="text/css">
*{stroke-linecap:butt;stroke-linejoin:round;}
  </style>
 </defs>
 <g id="figure_1">
  <g id="patch_1">
   <path d="M 0 330.226875 
L 334.395312 330.226875 
L 334.395312 0 
L 0 0 
z
" style="fill:#ffffff;"/>
  </g>
  <g id="axes_1">
   <g id="patch_2">
    <path d="M 41.245313 293.589375 
L 320.245313 293.589375 
L 320.245313 21.789375 
L 41.245313 21.789375 
z
" style="fill:#ffffff;"/>
   </g>
   <g id="matplotlib.axis_1">
    <g id="xtick_1">
     <g id="line2d_1">
      <path clip-path="url(#ped9b4e1df8)" d="M 41.245313 293.589375 
L 41.245313 21.789375 
" style="fill:none;stroke:#cccccc;stroke-linecap:round;stroke-width:0.8;"/>
     </g>
     <g id="text_1">
      <!-- 0.0 -->
      <defs>
       <path d="M 4.15625 35.296875 
Q 4.15625 48 6.765625 55.734375 
Q 9.375 63.484375 14.515625 67.671875 
Q 19.671875 71.875 27.484375 71.875 
Q 33.25 71.875 37.59375 69.546875 
Q 41.9375 67.234375 44.765625 62.859375 
Q 47.609375 58.5 49.21875 52.21875 
Q 50.828125 45.953125 50.828125 35.296875 
Q 50.828125 22.703125 48.234375 14.96875 
Q 45.65625 7.234375 40.5 3 
Q 35.359375 -1.21875 27.484375 -1.21875 
Q 17.140625 -1.21875 11.234375 6.203125 
Q 4.15625 15.140625 4.15625 35.296875 
z
M 13.1875 35.296875 
Q 13.1875 17.671875 17.3125 11.828125 
Q 21.4375 6 27.484375 6 
Q 33.546875 6 37.671875 11.859375 
Q 41.796875 17.71875 41.796875 35.296875 
Q 41.796875 52.984375 37.671875 58.78125 
Q 33.546875 64.59375 27.390625 64.59375 
Q 21.34375 64.59375 17.71875 59.46875 
Q 13.1875 52.9375 13.1875 35.296875 
z
" id="ArialMT-48"/>
       <path d="M 9.078125 0 
L 9.078125 10.015625 
L 19.09375 10.015625 
L 19.09375 0 
z
" id="ArialMT-46"/>
      </defs>
      <g style="fill:#262626;" transform="translate(34.295313 307.747187)scale(0.1 -0.1)">
       <use xlink:href="#ArialMT-48"/>
       <use x="55.615234" xlink:href="#ArialMT-46"/>
       <use x="83.398438" xlink:href="#ArialMT-48"/>
      </g>
     </g>
    </g>
    <g id="xtick_2">
     <g id="line2d_2">
      <path clip-path="url(#ped9b4e1df8)" d="M 97.045313 293.589375 
L 97.045313 21.789375 
" style="fill:none;stroke:#cccccc;stroke-linecap:round;stroke-width:0.8;"/>
     </g>
     <g id="text_2">
      <!-- 0.2 -->
      <defs>
       <path d="M 50.34375 8.453125 
L 50.34375 0 
L 3.03125 0 
Q 2.9375 3.171875 4.046875 6.109375 
Q 5.859375 10.9375 9.828125 15.625 
Q 13.8125 20.3125 21.34375 26.46875 
Q 33.015625 36.03125 37.109375 41.625 
Q 41.21875 47.21875 41.21875 52.203125 
Q 41.21875 57.421875 37.46875 61 
Q 33.734375 64.59375 27.734375 64.59375 
Q 21.390625 64.59375 17.578125 60.78125 
Q 13.765625 56.984375 13.71875 50.25 
L 4.6875 51.171875 
Q 5.609375 61.28125 11.65625 66.578125 
Q 17.71875 71.875 27.9375 71.875 
Q 38.234375 71.875 44.234375 66.15625 
Q 50.25 60.453125 50.25 52 
Q 50.25 47.703125 48.484375 43.546875 
Q 46.734375 39.40625 42.65625 34.8125 
Q 38.578125 30.21875 29.109375 22.21875 
Q 21.1875 15.578125 18.9375 13.203125 
Q 16.703125 10.84375 15.234375 8.453125 
z
" id="ArialMT-50"/>
      </defs>
      <g style="fill:#262626;" transform="translate(90.095313 307.747187)scale(0.1 -0.1)">
       <use xlink:href="#ArialMT-48"/>
       <use x="55.615234" xlink:href="#ArialMT-46"/>
       <use x="83.398438" xlink:href="#ArialMT-50"/>
      </g>
     </g>
    </g>
    <g id="xtick_3">
     <g id="line2d_3">
      <path clip-path="url(#ped9b4e1df8)" d="M 152.845313 293.589375 
L 152.845313 21.789375 
" style="fill:none;stroke:#cccccc;stroke-linecap:round;stroke-width:0.8;"/>
     </g>
     <g id="text_3">
      <!-- 0.4 -->
      <defs>
       <path d="M 32.328125 0 
L 32.328125 17.140625 
L 1.265625 17.140625 
L 1.265625 25.203125 
L 33.9375 71.578125 
L 41.109375 71.578125 
L 41.109375 25.203125 
L 50.78125 25.203125 
L 50.78125 17.140625 
L 41.109375 17.140625 
L 41.109375 0 
z
M 32.328125 25.203125 
L 32.328125 57.46875 
L 9.90625 25.203125 
z
" id="ArialMT-52"/>
      </defs>
      <g style="fill:#262626;" transform="translate(145.895313 307.747187)scale(0.1 -0.1)">
       <use xlink:href="#ArialMT-48"/>
       <use x="55.615234" xlink:href="#ArialMT-46"/>
       <use x="83.398438" xlink:href="#ArialMT-52"/>
      </g>
     </g>
    </g>
    <g id="xtick_4">
     <g id="line2d_4">
      <path clip-path="url(#ped9b4e1df8)" d="M 208.645313 293.589375 
L 208.645313 21.789375 
" style="fill:none;stroke:#cccccc;stroke-linecap:round;stroke-width:0.8;"/>
     </g>
     <g id="text_4">
      <!-- 0.6 -->
      <defs>
       <path d="M 49.75 54.046875 
L 41.015625 53.375 
Q 39.84375 58.546875 37.703125 60.890625 
Q 34.125 64.65625 28.90625 64.65625 
Q 24.703125 64.65625 21.53125 62.3125 
Q 17.390625 59.28125 14.984375 53.46875 
Q 12.59375 47.65625 12.5 36.921875 
Q 15.671875 41.75 20.265625 44.09375 
Q 24.859375 46.4375 29.890625 46.4375 
Q 38.671875 46.4375 44.84375 39.96875 
Q 51.03125 33.5 51.03125 23.25 
Q 51.03125 16.5 48.125 10.71875 
Q 45.21875 4.9375 40.140625 1.859375 
Q 35.0625 -1.21875 28.609375 -1.21875 
Q 17.625 -1.21875 10.6875 6.859375 
Q 3.765625 14.9375 3.765625 33.5 
Q 3.765625 54.25 11.421875 63.671875 
Q 18.109375 71.875 29.4375 71.875 
Q 37.890625 71.875 43.28125 67.140625 
Q 48.6875 62.40625 49.75 54.046875 
z
M 13.875 23.1875 
Q 13.875 18.65625 15.796875 14.5 
Q 17.71875 10.359375 21.1875 8.171875 
Q 24.65625 6 28.46875 6 
Q 34.03125 6 38.03125 10.484375 
Q 42.046875 14.984375 42.046875 22.703125 
Q 42.046875 30.125 38.078125 34.390625 
Q 34.125 38.671875 28.125 38.671875 
Q 22.171875 38.671875 18.015625 34.390625 
Q 13.875 30.125 13.875 23.1875 
z
" id="ArialMT-54"/>
      </defs>
      <g style="fill:#262626;" transform="translate(201.695313 307.747187)scale(0.1 -0.1)">
       <use xlink:href="#ArialMT-48"/>
       <use x="55.615234" xlink:href="#ArialMT-46"/>
       <use x="83.398438" xlink:href="#ArialMT-54"/>
      </g>
     </g>
    </g>
    <g id="xtick_5">
     <g id="line2d_5">
      <path clip-path="url(#ped9b4e1df8)" d="M 264.445312 293.589375 
L 264.445312 21.789375 
" style="fill:none;stroke:#cccccc;stroke-linecap:round;stroke-width:0.8;"/>
     </g>
     <g id="text_5">
      <!-- 0.8 -->
      <defs>
       <path d="M 17.671875 38.8125 
Q 12.203125 40.828125 9.5625 44.53125 
Q 6.9375 48.25 6.9375 53.421875 
Q 6.9375 61.234375 12.546875 66.546875 
Q 18.171875 71.875 27.484375 71.875 
Q 36.859375 71.875 42.578125 66.421875 
Q 48.296875 60.984375 48.296875 53.171875 
Q 48.296875 48.1875 45.671875 44.5 
Q 43.0625 40.828125 37.75 38.8125 
Q 44.34375 36.671875 47.78125 31.875 
Q 51.21875 27.09375 51.21875 20.453125 
Q 51.21875 11.28125 44.71875 5.03125 
Q 38.234375 -1.21875 27.640625 -1.21875 
Q 17.046875 -1.21875 10.546875 5.046875 
Q 4.046875 11.328125 4.046875 20.703125 
Q 4.046875 27.6875 7.59375 32.390625 
Q 11.140625 37.109375 17.671875 38.8125 
z
M 15.921875 53.71875 
Q 15.921875 48.640625 19.1875 45.40625 
Q 22.46875 42.1875 27.6875 42.1875 
Q 32.765625 42.1875 36.015625 45.375 
Q 39.265625 48.578125 39.265625 53.21875 
Q 39.265625 58.0625 35.90625 61.359375 
Q 32.5625 64.65625 27.59375 64.65625 
Q 22.5625 64.65625 19.234375 61.421875 
Q 15.921875 58.203125 15.921875 53.71875 
z
M 13.09375 20.65625 
Q 13.09375 16.890625 14.875 13.375 
Q 16.65625 9.859375 20.171875 7.921875 
Q 23.6875 6 27.734375 6 
Q 34.03125 6 38.125 10.046875 
Q 42.234375 14.109375 42.234375 20.359375 
Q 42.234375 26.703125 38.015625 30.859375 
Q 33.796875 35.015625 27.4375 35.015625 
Q 21.234375 35.015625 17.15625 30.90625 
Q 13.09375 26.8125 13.09375 20.65625 
z
" id="ArialMT-56"/>
      </defs>
      <g style="fill:#262626;" transform="translate(257.495313 307.747187)scale(0.1 -0.1)">
       <use xlink:href="#ArialMT-48"/>
       <use x="55.615234" xlink:href="#ArialMT-46"/>
       <use x="83.398438" xlink:href="#ArialMT-56"/>
      </g>
     </g>
    </g>
    <g id="xtick_6">
     <g id="line2d_6">
      <path clip-path="url(#ped9b4e1df8)" d="M 320.245313 293.589375 
L 320.245313 21.789375 
" style="fill:none;stroke:#cccccc;stroke-linecap:round;stroke-width:0.8;"/>
     </g>
     <g id="text_6">
      <!-- 1.0 -->
      <defs>
       <path d="M 37.25 0 
L 28.46875 0 
L 28.46875 56 
Q 25.296875 52.984375 20.140625 49.953125 
Q 14.984375 46.921875 10.890625 45.40625 
L 10.890625 53.90625 
Q 18.265625 57.375 23.78125 62.296875 
Q 29.296875 67.234375 31.59375 71.875 
L 37.25 71.875 
z
" id="ArialMT-49"/>
      </defs>
      <g style="fill:#262626;" transform="translate(313.295313 307.747187)scale(0.1 -0.1)">
       <use xlink:href="#ArialMT-49"/>
       <use x="55.615234" xlink:href="#ArialMT-46"/>
       <use x="83.398438" xlink:href="#ArialMT-48"/>
      </g>
     </g>
    </g>
    <g id="text_7">
     <!-- False Positive Rate or [1 - True Negative Rate] -->
     <defs>
      <path d="M 8.203125 0 
L 8.203125 71.578125 
L 56.5 71.578125 
L 56.5 63.140625 
L 17.671875 63.140625 
L 17.671875 40.96875 
L 51.265625 40.96875 
L 51.265625 32.515625 
L 17.671875 32.515625 
L 17.671875 0 
z
" id="ArialMT-70"/>
      <path d="M 40.4375 6.390625 
Q 35.546875 2.25 31.03125 0.53125 
Q 26.515625 -1.171875 21.34375 -1.171875 
Q 12.796875 -1.171875 8.203125 3 
Q 3.609375 7.171875 3.609375 13.671875 
Q 3.609375 17.484375 5.34375 20.625 
Q 7.078125 23.78125 9.890625 25.6875 
Q 12.703125 27.59375 16.21875 28.5625 
Q 18.796875 29.25 24.03125 29.890625 
Q 34.671875 31.15625 39.703125 32.90625 
Q 39.75 34.71875 39.75 35.203125 
Q 39.75 40.578125 37.25 42.78125 
Q 33.890625 45.75 27.25 45.75 
Q 21.046875 45.75 18.09375 43.578125 
Q 15.140625 41.40625 13.71875 35.890625 
L 5.125 37.0625 
Q 6.296875 42.578125 8.984375 45.96875 
Q 11.671875 49.359375 16.75 51.1875 
Q 21.828125 53.03125 28.515625 53.03125 
Q 35.15625 53.03125 39.296875 51.46875 
Q 43.453125 49.90625 45.40625 47.53125 
Q 47.359375 45.171875 48.140625 41.546875 
Q 48.578125 39.3125 48.578125 33.453125 
L 48.578125 21.734375 
Q 48.578125 9.46875 49.140625 6.21875 
Q 49.703125 2.984375 51.375 0 
L 42.1875 0 
Q 40.828125 2.734375 40.4375 6.390625 
z
M 39.703125 26.03125 
Q 34.90625 24.078125 25.34375 22.703125 
Q 19.921875 21.921875 17.671875 20.9375 
Q 15.4375 19.96875 14.203125 18.09375 
Q 12.984375 16.21875 12.984375 13.921875 
Q 12.984375 10.40625 15.640625 8.0625 
Q 18.3125 5.71875 23.4375 5.71875 
Q 28.515625 5.71875 32.46875 7.9375 
Q 36.421875 10.15625 38.28125 14.015625 
Q 39.703125 17 39.703125 22.796875 
z
" id="ArialMT-97"/>
      <path d="M 6.390625 0 
L 6.390625 71.578125 
L 15.1875 71.578125 
L 15.1875 0 
z
" id="ArialMT-108"/>
      <path d="M 3.078125 15.484375 
L 11.765625 16.84375 
Q 12.5 11.625 15.84375 8.84375 
Q 19.1875 6.0625 25.203125 6.0625 
Q 31.25 6.0625 34.171875 8.515625 
Q 37.109375 10.984375 37.109375 14.3125 
Q 37.109375 17.28125 34.515625 19 
Q 32.71875 20.171875 25.53125 21.96875 
Q 15.875 24.421875 12.140625 26.203125 
Q 8.40625 27.984375 6.46875 31.125 
Q 4.546875 34.28125 4.546875 38.09375 
Q 4.546875 41.546875 6.125 44.5 
Q 7.71875 47.46875 10.453125 49.421875 
Q 12.5 50.921875 16.03125 51.96875 
Q 19.578125 53.03125 23.640625 53.03125 
Q 29.734375 53.03125 34.34375 51.265625 
Q 38.96875 49.515625 41.15625 46.5 
Q 43.359375 43.5 44.1875 38.484375 
L 35.59375 37.3125 
Q 35.015625 41.3125 32.203125 43.546875 
Q 29.390625 45.796875 24.265625 45.796875 
Q 18.21875 45.796875 15.625 43.796875 
Q 13.03125 41.796875 13.03125 39.109375 
Q 13.03125 37.40625 14.109375 36.03125 
Q 15.1875 34.625 17.484375 33.6875 
Q 18.796875 33.203125 25.25 31.453125 
Q 34.578125 28.953125 38.25 27.359375 
Q 41.9375 25.78125 44.03125 22.75 
Q 46.140625 19.734375 46.140625 15.234375 
Q 46.140625 10.84375 43.578125 6.953125 
Q 41.015625 3.078125 36.171875 0.953125 
Q 31.34375 -1.171875 25.25 -1.171875 
Q 15.140625 -1.171875 9.84375 3.03125 
Q 4.546875 7.234375 3.078125 15.484375 
z
" id="ArialMT-115"/>
      <path d="M 42.09375 16.703125 
L 51.171875 15.578125 
Q 49.03125 7.625 43.21875 3.21875 
Q 37.40625 -1.171875 28.375 -1.171875 
Q 17 -1.171875 10.328125 5.828125 
Q 3.65625 12.84375 3.65625 25.484375 
Q 3.65625 38.578125 10.390625 45.796875 
Q 17.140625 53.03125 27.875 53.03125 
Q 38.28125 53.03125 44.875 45.953125 
Q 51.46875 38.875 51.46875 26.03125 
Q 51.46875 25.25 51.421875 23.6875 
L 12.75 23.6875 
Q 13.234375 15.140625 17.578125 10.59375 
Q 21.921875 6.0625 28.421875 6.0625 
Q 33.25 6.0625 36.671875 8.59375 
Q 40.09375 11.140625 42.09375 16.703125 
z
M 13.234375 30.90625 
L 42.1875 30.90625 
Q 41.609375 37.453125 38.875 40.71875 
Q 34.671875 45.796875 27.984375 45.796875 
Q 21.921875 45.796875 17.796875 41.75 
Q 13.671875 37.703125 13.234375 30.90625 
z
" id="ArialMT-101"/>
      <path id="ArialMT-32"/>
      <path d="M 7.71875 0 
L 7.71875 71.578125 
L 34.71875 71.578125 
Q 41.84375 71.578125 45.609375 70.90625 
Q 50.875 70.015625 54.4375 67.546875 
Q 58.015625 65.09375 60.1875 60.640625 
Q 62.359375 56.203125 62.359375 50.875 
Q 62.359375 41.75 56.546875 35.421875 
Q 50.734375 29.109375 35.546875 29.109375 
L 17.1875 29.109375 
L 17.1875 0 
z
M 17.1875 37.546875 
L 35.6875 37.546875 
Q 44.875 37.546875 48.734375 40.96875 
Q 52.59375 44.390625 52.59375 50.59375 
Q 52.59375 55.078125 50.3125 58.265625 
Q 48.046875 61.46875 44.34375 62.5 
Q 41.9375 63.140625 35.5 63.140625 
L 17.1875 63.140625 
z
" id="ArialMT-80"/>
      <path d="M 3.328125 25.921875 
Q 3.328125 40.328125 11.328125 47.265625 
Q 18.015625 53.03125 27.640625 53.03125 
Q 38.328125 53.03125 45.109375 46.015625 
Q 51.90625 39.015625 51.90625 26.65625 
Q 51.90625 16.65625 48.90625 10.90625 
Q 45.90625 5.171875 40.15625 2 
Q 34.421875 -1.171875 27.640625 -1.171875 
Q 16.75 -1.171875 10.03125 5.8125 
Q 3.328125 12.796875 3.328125 25.921875 
z
M 12.359375 25.921875 
Q 12.359375 15.96875 16.703125 11.015625 
Q 21.046875 6.0625 27.640625 6.0625 
Q 34.1875 6.0625 38.53125 11.03125 
Q 42.875 16.015625 42.875 26.21875 
Q 42.875 35.84375 38.5 40.796875 
Q 34.125 45.75 27.640625 45.75 
Q 21.046875 45.75 16.703125 40.8125 
Q 12.359375 35.890625 12.359375 25.921875 
z
" id="ArialMT-111"/>
      <path d="M 6.640625 61.46875 
L 6.640625 71.578125 
L 15.4375 71.578125 
L 15.4375 61.46875 
z
M 6.640625 0 
L 6.640625 51.859375 
L 15.4375 51.859375 
L 15.4375 0 
z
" id="ArialMT-105"/>
      <path d="M 25.78125 7.859375 
L 27.046875 0.09375 
Q 23.34375 -0.6875 20.40625 -0.6875 
Q 15.625 -0.6875 12.984375 0.828125 
Q 10.359375 2.34375 9.28125 4.8125 
Q 8.203125 7.28125 8.203125 15.1875 
L 8.203125 45.015625 
L 1.765625 45.015625 
L 1.765625 51.859375 
L 8.203125 51.859375 
L 8.203125 64.703125 
L 16.9375 69.96875 
L 16.9375 51.859375 
L 25.78125 51.859375 
L 25.78125 45.015625 
L 16.9375 45.015625 
L 16.9375 14.703125 
Q 16.9375 10.9375 17.40625 9.859375 
Q 17.875 8.796875 18.921875 8.15625 
Q 19.96875 7.515625 21.921875 7.515625 
Q 23.390625 7.515625 25.78125 7.859375 
z
" id="ArialMT-116"/>
      <path d="M 21 0 
L 1.265625 51.859375 
L 10.546875 51.859375 
L 21.6875 20.796875 
Q 23.484375 15.765625 25 10.359375 
Q 26.171875 14.453125 28.265625 20.21875 
L 39.796875 51.859375 
L 48.828125 51.859375 
L 29.203125 0 
z
" id="ArialMT-118"/>
      <path d="M 7.859375 0 
L 7.859375 71.578125 
L 39.59375 71.578125 
Q 49.171875 71.578125 54.140625 69.640625 
Q 59.125 67.71875 62.109375 62.828125 
Q 65.09375 57.953125 65.09375 52.046875 
Q 65.09375 44.4375 60.15625 39.203125 
Q 55.21875 33.984375 44.921875 32.5625 
Q 48.6875 30.765625 50.640625 29 
Q 54.78125 25.203125 58.5 19.484375 
L 70.953125 0 
L 59.03125 0 
L 49.5625 14.890625 
Q 45.40625 21.34375 42.71875 24.75 
Q 40.046875 28.171875 37.921875 29.53125 
Q 35.796875 30.90625 33.59375 31.453125 
Q 31.984375 31.78125 28.328125 31.78125 
L 17.328125 31.78125 
L 17.328125 0 
z
M 17.328125 39.984375 
L 37.703125 39.984375 
Q 44.1875 39.984375 47.84375 41.328125 
Q 51.515625 42.671875 53.421875 45.625 
Q 55.328125 48.578125 55.328125 52.046875 
Q 55.328125 57.125 51.640625 60.390625 
Q 47.953125 63.671875 39.984375 63.671875 
L 17.328125 63.671875 
z
" id="ArialMT-82"/>
      <path d="M 6.5 0 
L 6.5 51.859375 
L 14.40625 51.859375 
L 14.40625 44 
Q 17.4375 49.515625 20 51.265625 
Q 22.5625 53.03125 25.640625 53.03125 
Q 30.078125 53.03125 34.671875 50.203125 
L 31.640625 42.046875 
Q 28.421875 43.953125 25.203125 43.953125 
Q 22.3125 43.953125 20.015625 42.21875 
Q 17.71875 40.484375 16.75 37.40625 
Q 15.28125 32.71875 15.28125 27.15625 
L 15.28125 0 
z
" id="ArialMT-114"/>
      <path d="M 6.78125 -19.875 
L 6.78125 71.578125 
L 26.171875 71.578125 
L 26.171875 64.3125 
L 15.578125 64.3125 
L 15.578125 -12.59375 
L 26.171875 -12.59375 
L 26.171875 -19.875 
z
" id="ArialMT-91"/>
      <path d="M 3.171875 21.484375 
L 3.171875 30.328125 
L 30.171875 30.328125 
L 30.171875 21.484375 
z
" id="ArialMT-45"/>
      <path d="M 25.921875 0 
L 25.921875 63.140625 
L 2.34375 63.140625 
L 2.34375 71.578125 
L 59.078125 71.578125 
L 59.078125 63.140625 
L 35.40625 63.140625 
L 35.40625 0 
z
" id="ArialMT-84"/>
      <path d="M 40.578125 0 
L 40.578125 7.625 
Q 34.515625 -1.171875 24.125 -1.171875 
Q 19.53125 -1.171875 15.546875 0.578125 
Q 11.578125 2.34375 9.640625 5 
Q 7.71875 7.671875 6.9375 11.53125 
Q 6.390625 14.109375 6.390625 19.734375 
L 6.390625 51.859375 
L 15.1875 51.859375 
L 15.1875 23.09375 
Q 15.1875 16.21875 15.71875 13.8125 
Q 16.546875 10.359375 19.234375 8.375 
Q 21.921875 6.390625 25.875 6.390625 
Q 29.828125 6.390625 33.296875 8.421875 
Q 36.765625 10.453125 38.203125 13.9375 
Q 39.65625 17.4375 39.65625 24.078125 
L 39.65625 51.859375 
L 48.4375 51.859375 
L 48.4375 0 
z
" id="ArialMT-117"/>
      <path d="M 7.625 0 
L 7.625 71.578125 
L 17.328125 71.578125 
L 54.9375 15.375 
L 54.9375 71.578125 
L 64.015625 71.578125 
L 64.015625 0 
L 54.296875 0 
L 16.703125 56.25 
L 16.703125 0 
z
" id="ArialMT-78"/>
      <path d="M 4.984375 -4.296875 
L 13.53125 -5.5625 
Q 14.0625 -9.515625 16.5 -11.328125 
Q 19.78125 -13.765625 25.4375 -13.765625 
Q 31.546875 -13.765625 34.859375 -11.328125 
Q 38.1875 -8.890625 39.359375 -4.5 
Q 40.046875 -1.8125 39.984375 6.78125 
Q 34.234375 0 25.640625 0 
Q 14.9375 0 9.078125 7.71875 
Q 3.21875 15.4375 3.21875 26.21875 
Q 3.21875 33.640625 5.90625 39.90625 
Q 8.59375 46.1875 13.6875 49.609375 
Q 18.796875 53.03125 25.6875 53.03125 
Q 34.859375 53.03125 40.828125 45.609375 
L 40.828125 51.859375 
L 48.921875 51.859375 
L 48.921875 7.03125 
Q 48.921875 -5.078125 46.453125 -10.125 
Q 44 -15.1875 38.640625 -18.109375 
Q 33.296875 -21.046875 25.484375 -21.046875 
Q 16.21875 -21.046875 10.5 -16.875 
Q 4.78125 -12.703125 4.984375 -4.296875 
z
M 12.25 26.859375 
Q 12.25 16.65625 16.296875 11.96875 
Q 20.359375 7.28125 26.46875 7.28125 
Q 32.515625 7.28125 36.609375 11.9375 
Q 40.71875 16.609375 40.71875 26.5625 
Q 40.71875 36.078125 36.5 40.90625 
Q 32.28125 45.75 26.3125 45.75 
Q 20.453125 45.75 16.34375 40.984375 
Q 12.25 36.234375 12.25 26.859375 
z
" id="ArialMT-103"/>
      <path d="M 21.296875 -19.875 
L 1.90625 -19.875 
L 1.90625 -12.59375 
L 12.5 -12.59375 
L 12.5 64.3125 
L 1.90625 64.3125 
L 1.90625 71.578125 
L 21.296875 71.578125 
z
" id="ArialMT-93"/>
     </defs>
     <g style="fill:#262626;" transform="translate(77.1 320.922187)scale(0.1 -0.1)">
      <use xlink:href="#ArialMT-70"/>
      <use x="61.083984" xlink:href="#ArialMT-97"/>
      <use x="116.699219" xlink:href="#ArialMT-108"/>
      <use x="138.916016" xlink:href="#ArialMT-115"/>
      <use x="188.916016" xlink:href="#ArialMT-101"/>
      <use x="244.53125" xlink:href="#ArialMT-32"/>
      <use x="272.314453" xlink:href="#ArialMT-80"/>
      <use x="339.013672" xlink:href="#ArialMT-111"/>
      <use x="394.628906" xlink:href="#ArialMT-115"/>
      <use x="444.628906" xlink:href="#ArialMT-105"/>
      <use x="466.845703" xlink:href="#ArialMT-116"/>
      <use x="494.628906" xlink:href="#ArialMT-105"/>
      <use x="516.845703" xlink:href="#ArialMT-118"/>
      <use x="566.845703" xlink:href="#ArialMT-101"/>
      <use x="622.460938" xlink:href="#ArialMT-32"/>
      <use x="650.244141" xlink:href="#ArialMT-82"/>
      <use x="722.460938" xlink:href="#ArialMT-97"/>
      <use x="778.076172" xlink:href="#ArialMT-116"/>
      <use x="805.859375" xlink:href="#ArialMT-101"/>
      <use x="861.474609" xlink:href="#ArialMT-32"/>
      <use x="889.257812" xlink:href="#ArialMT-111"/>
      <use x="944.873047" xlink:href="#ArialMT-114"/>
      <use x="978.173828" xlink:href="#ArialMT-32"/>
      <use x="1005.957031" xlink:href="#ArialMT-91"/>
      <use x="1033.740234" xlink:href="#ArialMT-49"/>
      <use x="1089.355469" xlink:href="#ArialMT-32"/>
      <use x="1117.138672" xlink:href="#ArialMT-45"/>
      <use x="1150.439453" xlink:href="#ArialMT-32"/>
      <use x="1178.207031" xlink:href="#ArialMT-84"/>
      <use x="1239.244141" xlink:href="#ArialMT-114"/>
      <use x="1272.544922" xlink:href="#ArialMT-117"/>
      <use x="1328.160156" xlink:href="#ArialMT-101"/>
      <use x="1383.775391" xlink:href="#ArialMT-32"/>
      <use x="1411.558594" xlink:href="#ArialMT-78"/>
      <use x="1483.775391" xlink:href="#ArialMT-101"/>
      <use x="1539.390625" xlink:href="#ArialMT-103"/>
      <use x="1595.005859" xlink:href="#ArialMT-97"/>
      <use x="1650.621094" xlink:href="#ArialMT-116"/>
      <use x="1678.404297" xlink:href="#ArialMT-105"/>
      <use x="1700.621094" xlink:href="#ArialMT-118"/>
      <use x="1750.621094" xlink:href="#ArialMT-101"/>
      <use x="1806.236328" xlink:href="#ArialMT-32"/>
      <use x="1834.019531" xlink:href="#ArialMT-82"/>
      <use x="1906.236328" xlink:href="#ArialMT-97"/>
      <use x="1961.851562" xlink:href="#ArialMT-116"/>
      <use x="1989.634766" xlink:href="#ArialMT-101"/>
      <use x="2045.25" xlink:href="#ArialMT-93"/>
     </g>
    </g>
   </g>
   <g id="matplotlib.axis_2">
    <g id="ytick_1">
     <g id="line2d_7">
      <path clip-path="url(#ped9b4e1df8)" d="M 41.245313 293.589375 
L 320.245313 293.589375 
" style="fill:none;stroke:#cccccc;stroke-linecap:round;stroke-width:0.8;"/>
     </g>
     <g id="text_8">
      <!-- 0.0 -->
      <g style="fill:#262626;" transform="translate(20.345313 297.168281)scale(0.1 -0.1)">
       <use xlink:href="#ArialMT-48"/>
       <use x="55.615234" xlink:href="#ArialMT-46"/>
       <use x="83.398438" xlink:href="#ArialMT-48"/>
      </g>
     </g>
    </g>
    <g id="ytick_2">
     <g id="line2d_8">
      <path clip-path="url(#ped9b4e1df8)" d="M 41.245313 241.817946 
L 320.245313 241.817946 
" style="fill:none;stroke:#cccccc;stroke-linecap:round;stroke-width:0.8;"/>
     </g>
     <g id="text_9">
      <!-- 0.2 -->
      <g style="fill:#262626;" transform="translate(20.345313 245.396853)scale(0.1 -0.1)">
       <use xlink:href="#ArialMT-48"/>
       <use x="55.615234" xlink:href="#ArialMT-46"/>
       <use x="83.398438" xlink:href="#ArialMT-50"/>
      </g>
     </g>
    </g>
    <g id="ytick_3">
     <g id="line2d_9">
      <path clip-path="url(#ped9b4e1df8)" d="M 41.245313 190.046518 
L 320.245313 190.046518 
" style="fill:none;stroke:#cccccc;stroke-linecap:round;stroke-width:0.8;"/>
     </g>
     <g id="text_10">
      <!-- 0.4 -->
      <g style="fill:#262626;" transform="translate(20.345313 193.625424)scale(0.1 -0.1)">
       <use xlink:href="#ArialMT-48"/>
       <use x="55.615234" xlink:href="#ArialMT-46"/>
       <use x="83.398438" xlink:href="#ArialMT-52"/>
      </g>
     </g>
    </g>
    <g id="ytick_4">
     <g id="line2d_10">
      <path clip-path="url(#ped9b4e1df8)" d="M 41.245313 138.275089 
L 320.245313 138.275089 
" style="fill:none;stroke:#cccccc;stroke-linecap:round;stroke-width:0.8;"/>
     </g>
     <g id="text_11">
      <!-- 0.6 -->
      <g style="fill:#262626;" transform="translate(20.345313 141.853996)scale(0.1 -0.1)">
       <use xlink:href="#ArialMT-48"/>
       <use x="55.615234" xlink:href="#ArialMT-46"/>
       <use x="83.398438" xlink:href="#ArialMT-54"/>
      </g>
     </g>
    </g>
    <g id="ytick_5">
     <g id="line2d_11">
      <path clip-path="url(#ped9b4e1df8)" d="M 41.245313 86.503661 
L 320.245313 86.503661 
" style="fill:none;stroke:#cccccc;stroke-linecap:round;stroke-width:0.8;"/>
     </g>
     <g id="text_12">
      <!-- 0.8 -->
      <g style="fill:#262626;" transform="translate(20.345313 90.082567)scale(0.1 -0.1)">
       <use xlink:href="#ArialMT-48"/>
       <use x="55.615234" xlink:href="#ArialMT-46"/>
       <use x="83.398438" xlink:href="#ArialMT-56"/>
      </g>
     </g>
    </g>
    <g id="ytick_6">
     <g id="line2d_12">
      <path clip-path="url(#ped9b4e1df8)" d="M 41.245313 34.732232 
L 320.245313 34.732232 
" style="fill:none;stroke:#cccccc;stroke-linecap:round;stroke-width:0.8;"/>
     </g>
     <g id="text_13">
      <!-- 1.0 -->
      <g style="fill:#262626;" transform="translate(20.345313 38.311138)scale(0.1 -0.1)">
       <use xlink:href="#ArialMT-49"/>
       <use x="55.615234" xlink:href="#ArialMT-46"/>
       <use x="83.398438" xlink:href="#ArialMT-48"/>
      </g>
     </g>
    </g>
    <g id="text_14">
     <!-- True Positive Rate -->
     <g style="fill:#262626;" transform="translate(14.357813 198.812812)rotate(-90)scale(0.1 -0.1)">
      <use xlink:href="#ArialMT-84"/>
      <use x="61.037109" xlink:href="#ArialMT-114"/>
      <use x="94.337891" xlink:href="#ArialMT-117"/>
      <use x="149.953125" xlink:href="#ArialMT-101"/>
      <use x="205.568359" xlink:href="#ArialMT-32"/>
      <use x="233.351562" xlink:href="#ArialMT-80"/>
      <use x="300.050781" xlink:href="#ArialMT-111"/>
      <use x="355.666016" xlink:href="#ArialMT-115"/>
      <use x="405.666016" xlink:href="#ArialMT-105"/>
      <use x="427.882812" xlink:href="#ArialMT-116"/>
      <use x="455.666016" xlink:href="#ArialMT-105"/>
      <use x="477.882812" xlink:href="#ArialMT-118"/>
      <use x="527.882812" xlink:href="#ArialMT-101"/>
      <use x="583.498047" xlink:href="#ArialMT-32"/>
      <use x="611.28125" xlink:href="#ArialMT-82"/>
      <use x="683.498047" xlink:href="#ArialMT-97"/>
      <use x="739.113281" xlink:href="#ArialMT-116"/>
      <use x="766.896484" xlink:href="#ArialMT-101"/>
     </g>
    </g>
   </g>
   <g id="line2d_13">
    <path clip-path="url(#ped9b4e1df8)" d="M 41.245313 293.589375 
L 41.31654 280.603231 
L 41.601452 267.833522 
L 41.67268 267.833522 
L 41.743908 260.258271 
L 41.815136 260.258271 
L 41.815136 260.150053 
L 41.886364 254.089853 
L 42.171276 247.272127 
L 42.456188 246.08173 
L 42.527416 243.484502 
L 42.669872 242.726977 
L 42.669872 242.294105 
L 42.7411 242.294105 
L 42.954784 241.861234 
L 43.026012 240.995491 
L 43.09724 240.995491 
L 43.09724 240.887273 
L 43.168468 239.155787 
L 43.239696 239.155787 
L 43.239696 239.047569 
L 43.310924 235.801033 
L 43.382152 235.801033 
L 43.382152 235.692815 
L 43.45338 231.688754 
L 43.595836 231.688754 
L 43.595836 231.580536 
L 43.595836 231.255882 
L 43.667064 231.255882 
L 43.738292 231.255882 
L 43.738292 231.147665 
L 43.80952 229.199743 
L 43.880748 229.199743 
L 43.880748 229.091525 
L 43.951976 228.766871 
L 45.091623 222.814889 
L 45.162851 222.814889 
L 45.162851 222.706671 
L 45.234079 218.919045 
L 45.305307 218.919045 
L 45.305307 218.810827 
L 45.376535 217.187559 
L 45.447763 217.187559 
L 45.447763 217.079342 
L 45.518991 215.780727 
L 45.661447 215.780727 
L 45.661447 215.672509 
L 45.661447 213.724588 
L 46.017587 207.664387 
L 46.088815 207.447951 
L 46.088815 207.231515 
L 46.160043 207.231515 
L 46.231271 207.231515 
L 46.231271 207.123298 
L 46.302499 206.798644 
L 46.373727 206.798644 
L 46.373727 206.690426 
L 46.444955 206.149337 
L 46.516183 206.149337 
L 46.516183 206.041119 
L 46.587411 205.283594 
L 46.658639 205.283594 
L 46.658639 205.175376 
L 46.729867 204.093197 
L 46.801095 203.876762 
L 46.801095 202.578147 
L 46.943551 202.578147 
L 46.943551 202.469929 
L 47.014779 202.361711 
L 47.086007 201.712404 
L 47.299691 201.712404 
L 47.299691 201.604186 
L 47.299691 200.738443 
L 47.584603 199.331611 
L 47.655831 198.465868 
L 47.798287 198.465868 
L 47.798287 198.35765 
L 47.869515 198.249432 
L 47.940743 198.249432 
L 47.940743 198.141214 
L 48.011971 197.600125 
L 48.154427 197.491907 
L 48.154427 197.275472 
L 48.368111 197.059036 
L 48.439339 195.868639 
L 48.510567 195.868639 
L 48.510567 195.760421 
L 48.581795 194.678243 
L 48.72425 194.678243 
L 48.72425 194.570025 
L 48.72425 193.596064 
L 48.795478 193.596064 
L 48.866706 193.596064 
L 48.866706 193.487846 
L 48.866706 193.163192 
L 48.937934 193.163192 
L 49.151618 192.730321 
L 49.222846 191.648142 
L 49.294074 191.648142 
L 49.294074 191.539924 
L 49.294074 191.431707 
L 49.507758 191.323489 
L 49.578986 189.375567 
L 49.650214 189.375567 
L 49.650214 189.267349 
L 49.721442 189.050913 
L 49.935126 188.942696 
L 49.935126 188.618042 
L 50.006354 188.618042 
L 50.077582 188.618042 
L 50.077582 188.509824 
L 50.14881 187.102992 
L 50.220038 187.102992 
L 50.220038 186.994774 
L 50.291266 186.778338 
L 50.362494 186.778338 
L 50.362494 186.67012 
L 50.433722 186.345467 
L 50.576178 186.237249 
L 50.576178 186.129031 
L 50.647406 186.129031 
L 50.718634 186.129031 
L 50.718634 186.020813 
L 50.789862 185.263288 
L 50.86109 185.263288 
L 50.932318 181.58388 
L 51.003546 181.58388 
L 51.003546 181.475663 
L 51.003546 181.259227 
L 51.074774 181.259227 
L 51.21723 181.042791 
L 51.21723 180.501702 
L 51.288458 180.501702 
L 51.359686 180.285266 
L 51.430914 179.311305 
L 51.502142 179.09487 
L 51.502142 178.878434 
L 51.57337 178.878434 
L 51.644598 178.878434 
L 51.644598 178.770216 
L 51.644598 178.120909 
L 51.715826 178.120909 
L 51.787054 178.120909 
L 51.787054 178.012691 
L 51.858282 177.255166 
L 52.143194 177.146948 
L 52.285649 177.03873 
L 52.428105 177.03873 
L 52.428105 176.930512 
L 52.428105 176.714076 
L 52.499333 176.714076 
L 52.570561 176.714076 
L 52.570561 176.605859 
L 52.641789 174.225065 
L 52.855473 174.116848 
L 52.926701 173.683976 
L 52.997929 171.303183 
L 53.354069 171.194965 
L 53.354069 170.978529 
L 53.852665 168.273083 
L 54.137577 168.056647 
L 54.208805 167.190904 
L 54.280033 167.082686 
L 54.351261 166.649815 
L 54.422489 166.649815 
L 54.422489 166.541597 
L 54.422489 166.325161 
L 54.493717 166.325161 
L 54.707401 166.325161 
L 54.707401 166.216943 
L 54.778629 164.810111 
L 54.849857 164.810111 
L 54.849857 164.701893 
L 54.921085 164.485457 
L 55.205997 164.377239 
L 55.277225 163.295061 
L 55.348453 163.295061 
L 55.348453 163.186843 
L 55.348453 162.104664 
L 55.419681 162.104664 
L 55.775821 161.996446 
L 55.847049 161.78001 
L 55.918277 161.78001 
L 55.918277 161.671793 
L 55.989504 160.80605 
L 56.13196 160.80605 
L 56.13196 160.697832 
L 56.203188 160.26496 
L 56.345644 160.26496 
L 56.345644 160.156742 
L 56.345644 159.832089 
L 56.416872 159.832089 
L 56.4881 159.615653 
L 56.4881 159.507435 
L 56.559328 159.507435 
L 56.630556 159.507435 
L 56.630556 159.399217 
L 56.701784 158.858128 
L 56.773012 158.858128 
L 56.773012 158.74991 
L 56.84424 158.317039 
L 56.986696 158.208821 
L 56.986696 158.100603 
L 57.057924 158.100603 
L 57.129152 158.100603 
L 57.129152 157.992385 
L 57.20038 157.23486 
L 57.342836 157.126642 
L 57.342836 156.801988 
L 57.414064 156.801988 
L 57.55652 156.801988 
L 57.55652 156.693771 
L 57.627748 156.369117 
L 57.698976 156.369117 
L 57.698976 156.260899 
L 57.698976 155.828028 
L 57.770204 155.828028 
L 57.841432 155.611592 
L 57.91266 154.20476 
L 57.983888 153.988324 
L 57.983888 153.230799 
L 58.055116 153.230799 
L 58.197572 153.230799 
L 58.197572 153.122581 
L 58.340028 152.797927 
L 58.340028 152.14862 
L 58.411256 152.14862 
L 58.696168 152.040402 
L 58.696168 150.63357 
L 58.767396 150.63357 
L 58.838624 150.63357 
L 58.838624 150.525352 
L 58.909852 149.984263 
L 59.123536 149.984263 
L 59.123536 149.876045 
L 59.194764 149.551391 
L 59.408448 149.443173 
L 59.479676 148.685648 
L 59.550904 148.685648 
L 59.550904 148.57743 
L 59.622131 148.469213 
L 59.622131 148.144559 
L 59.693359 148.144559 
L 59.978271 148.036341 
L 60.049499 147.278816 
L 60.191955 147.278816 
L 60.191955 147.170598 
L 60.263183 146.304855 
L 60.405639 146.196637 
L 60.476867 145.439112 
L 60.548095 145.222676 
L 60.619323 144.356934 
L 60.690551 144.356934 
L 60.690551 144.248716 
L 60.761779 143.924062 
L 60.833007 143.924062 
L 60.833007 143.815844 
L 61.046691 143.382973 
L 61.117919 142.300794 
L 61.331603 142.300794 
L 61.331603 142.192576 
L 61.402831 141.218615 
L 61.545287 141.110397 
L 61.616515 140.028219 
L 61.830199 139.920001 
L 61.901427 139.270694 
L 62.115111 139.162476 
L 62.186339 138.729604 
L 65.32037 129.098214 
L 65.67651 128.989996 
L 65.67651 128.016035 
L 65.747738 128.016035 
L 65.961422 127.907817 
L 66.03265 127.583164 
L 66.175106 127.474946 
L 66.246334 127.474946 
L 66.246334 127.366728 
L 66.317562 127.150292 
L 66.460018 127.042074 
L 66.531246 126.825639 
L 66.74493 126.717421 
L 66.74493 126.609203 
L 66.816158 126.609203 
L 67.101069 126.500985 
L 67.101069 125.851678 
L 67.172297 125.851678 
L 67.314753 125.74346 
L 67.314753 125.635242 
L 67.385981 125.635242 
L 67.457209 125.635242 
L 67.457209 125.527024 
L 67.457209 125.418806 
L 67.528437 125.418806 
L 67.599665 125.418806 
L 67.599665 125.310589 
L 67.670893 125.202371 
L 67.742121 124.22841 
L 67.813349 124.22841 
L 67.813349 124.120192 
L 67.813349 122.71336 
L 67.884577 122.71336 
L 68.169489 122.605142 
L 68.169489 122.388706 
L 68.240717 122.388706 
L 68.311945 122.388706 
L 68.311945 122.280488 
L 68.311945 122.17227 
L 68.383173 122.17227 
L 68.596857 122.064052 
L 68.668085 121.631181 
L 69.024225 121.522963 
L 69.095453 120.873656 
L 69.380365 120.873656 
L 69.380365 120.765438 
L 69.451593 120.007913 
L 69.522821 120.007913 
L 69.522821 119.899695 
L 69.594049 119.466824 
L 69.665277 119.466824 
L 69.665277 119.358606 
L 69.665277 119.14217 
L 70.235101 117.086031 
L 70.520013 116.977813 
L 70.591241 116.328505 
L 70.733696 116.220288 
L 70.876152 116.220288 
L 70.876152 116.11207 
L 70.876152 116.003852 
L 70.94738 116.003852 
L 71.018608 116.003852 
L 71.018608 115.895634 
L 71.089836 114.921673 
L 71.161064 114.921673 
L 71.161064 114.813455 
L 71.232292 114.59702 
L 71.30352 113.947712 
L 71.588432 113.839494 
L 71.588432 113.623059 
L 71.65966 113.623059 
L 71.730888 113.623059 
L 71.730888 113.514841 
L 71.802116 113.081969 
L 72.158256 112.973751 
L 72.229484 112.757316 
L 72.585624 112.757316 
L 72.656852 112.324444 
L 72.72808 112.324444 
L 72.72808 112.216226 
L 72.799308 111.566919 
L 72.941764 111.458701 
L 72.941764 111.350483 
L 73.155448 111.242266 
L 73.226676 111.134048 
L 73.369132 111.134048 
L 73.369132 111.02583 
L 73.44036 110.701176 
L 73.511588 110.701176 
L 73.511588 110.592958 
L 73.654044 110.376523 
L 73.725272 109.618998 
L 73.867728 109.51078 
L 74.15264 109.402562 
L 74.223868 109.077908 
L 74.366323 109.077908 
L 74.366323 108.96969 
L 74.437551 108.212165 
L 74.508779 108.212165 
L 74.508779 107.99573 
L 74.580007 107.99573 
L 74.722463 107.99573 
L 74.722463 107.887512 
L 74.722463 107.671076 
L 74.793691 107.671076 
L 74.864919 107.45464 
L 74.936147 107.129987 
L 75.149831 107.021769 
L 75.221059 106.805333 
L 75.363515 106.588897 
L 75.434743 106.047808 
L 75.505971 106.047808 
L 75.505971 105.93959 
L 75.505971 105.723154 
L 75.577199 105.723154 
L 75.790883 105.614936 
L 75.790883 105.073847 
L 75.862111 105.073847 
L 76.147023 104.965629 
L 76.574391 103.667015 
L 76.716847 103.667015 
L 76.716847 103.558797 
L 76.716847 103.125925 
L 76.788075 103.125925 
L 76.930531 103.017708 
L 76.930531 102.90949 
L 77.001759 102.90949 
L 77.215443 102.801272 
L 77.286671 102.476618 
L 77.571583 102.3684 
L 77.642811 102.043747 
L 77.714039 102.043747 
L 77.714039 101.935529 
L 77.785267 101.610875 
L 78.070178 101.502657 
L 78.141406 100.85335 
L 78.426318 100.85335 
L 78.426318 100.745132 
L 78.782458 99.554736 
L 78.853686 99.554736 
L 78.853686 99.446518 
L 78.924914 99.013646 
L 79.281054 98.905429 
L 79.352282 98.688993 
L 79.42351 98.688993 
L 79.42351 98.580775 
L 79.42351 98.256121 
L 79.494738 98.256121 
L 79.637194 98.147903 
L 79.637194 98.039686 
L 79.708422 98.039686 
L 80.064562 98.039686 
L 80.064562 97.931468 
L 80.420702 97.498596 
L 80.49193 97.498596 
L 80.49193 97.390378 
L 80.634386 97.173943 
L 80.705614 96.632853 
L 80.919298 96.524635 
L 81.275438 96.199982 
L 81.346666 95.875328 
L 81.417894 95.875328 
L 81.417894 95.76711 
L 81.417894 95.550675 
L 81.489122 95.550675 
L 81.916489 95.550675 
L 81.916489 95.442457 
L 81.987717 95.009585 
L 82.058945 95.009585 
L 82.058945 94.901367 
L 82.058945 94.576714 
L 82.130173 94.576714 
L 82.343857 94.468496 
L 82.415085 94.143842 
L 82.699997 94.143842 
L 82.699997 94.035624 
L 82.771225 93.710971 
L 82.984909 93.602753 
L 82.984909 93.494535 
L 83.056137 93.494535 
L 83.269821 93.386317 
L 83.269821 93.169881 
L 83.341049 93.169881 
L 83.625961 92.628792 
L 84.195785 92.520574 
L 84.267013 92.195921 
L 84.765609 92.087703 
L 84.765609 91.871267 
L 84.836837 91.871267 
L 85.050521 91.763049 
L 85.121749 91.438396 
L 85.691572 91.330178 
L 85.7628 90.897306 
L 85.834028 90.897306 
L 85.834028 90.789088 
L 85.834028 90.68087 
L 86.190168 90.572653 
L 86.190168 90.356217 
L 86.261396 90.356217 
L 86.546308 90.356217 
L 86.546308 90.247999 
L 86.617536 90.031563 
L 87.329816 89.923345 
L 87.329816 89.815128 
L 87.5435 89.815128 
L 87.5435 89.70691 
L 87.614728 89.274038 
L 87.828412 89.16582 
L 88.042096 88.949385 
L 88.540692 88.841167 
L 88.61192 88.516513 
L 89.252971 88.408295 
L 89.324199 87.975424 
L 89.395427 87.975424 
L 89.395427 87.867206 
L 89.609111 87.542552 
L 90.036479 87.326117 
L 90.178935 87.326117 
L 90.178935 87.217899 
L 90.178935 87.109681 
L 90.250163 87.109681 
L 90.463847 87.001463 
L 91.532267 86.13572 
L 91.532267 85.811066 
L 91.603495 85.811066 
L 91.959635 85.702848 
L 91.959635 85.486413 
L 92.030863 85.486413 
L 92.244547 85.378195 
L 92.315775 85.269977 
L 92.387003 85.269977 
L 92.387003 85.161759 
L 92.529459 85.053541 
L 92.671914 85.053541 
L 92.671914 84.945323 
L 92.671914 84.837106 
L 92.743142 84.837106 
L 92.956826 84.728888 
L 92.956826 84.62067 
L 93.384194 84.62067 
L 93.384194 84.512452 
L 93.811562 84.07958 
L 94.310158 83.430273 
L 94.381386 83.430273 
L 94.381386 83.322055 
L 94.381386 82.997402 
L 94.452614 82.997402 
L 94.523842 82.997402 
L 94.523842 82.889184 
L 94.523842 82.780966 
L 94.59507 82.780966 
L 94.737526 82.780966 
L 94.737526 82.672748 
L 94.808754 82.456312 
L 95.449806 82.348095 
L 95.521034 82.131659 
L 95.66349 82.023441 
L 95.66349 81.698787 
L 95.734718 81.698787 
L 96.589453 81.590569 
L 96.589453 81.482352 
L 96.660681 81.482352 
L 97.230505 81.374134 
L 97.301733 81.157698 
L 97.301733 81.04948 
L 97.372961 81.04948 
L 97.515417 80.941262 
L 97.515417 80.833044 
L 97.586645 80.833044 
L 97.800329 80.833044 
L 97.800329 80.724827 
L 97.871557 80.616609 
L 98.583837 80.508391 
L 98.583837 80.291955 
L 98.655065 80.291955 
L 98.868749 80.183737 
L 98.868749 80.075519 
L 98.939977 80.075519 
L 99.011205 79.967301 
L 99.296117 79.859084 
L 99.296117 79.642648 
L 99.367345 79.642648 
L 99.509801 79.642648 
L 99.509801 79.53443 
L 99.509801 79.317994 
L 99.794713 79.209776 
L 99.865941 79.209776 
L 108.199614 71.526308 
L 108.413298 71.526308 
L 108.413298 71.41809 
L 108.484526 70.985218 
L 108.840666 70.877 
L 108.911894 70.335911 
L 109.481718 70.227693 
L 109.481718 70.119475 
L 109.552946 70.119475 
L 109.980314 70.011257 
L 110.051542 69.794822 
L 110.12277 69.794822 
L 110.193998 69.253732 
L 110.47891 69.145515 
L 110.47891 69.037297 
L 110.550138 69.037297 
L 110.692594 68.929079 
L 110.692594 68.712643 
L 110.763822 68.712643 
L 110.977506 68.604425 
L 110.977506 68.496207 
L 111.048733 68.496207 
L 111.974697 68.387989 
L 113.612941 65.141453 
L 113.897853 65.033235 
L 113.897853 64.8168 
L 113.969081 64.8168 
L 114.325221 64.708582 
L 114.325221 64.600364 
L 114.396449 64.600364 
L 114.895044 64.600364 
L 114.895044 64.492146 
L 114.966272 64.167493 
L 115.536096 64.059275 
L 115.536096 63.842839 
L 115.607324 63.842839 
L 115.963464 63.734621 
L 115.963464 63.626403 
L 116.034692 63.626403 
L 116.604516 63.518185 
L 116.604516 63.409967 
L 116.675744 63.409967 
L 117.245568 63.30175 
L 117.316796 62.977096 
L 118.24276 62.868878 
L 118.24276 62.76066 
L 118.313988 62.76066 
L 118.883811 62.652442 
L 118.955039 62.436007 
L 119.596091 62.327789 
L 119.596091 62.219571 
L 119.667319 62.219571 
L 119.952231 62.219571 
L 120.237143 61.353828 
L 120.237143 61.24561 
L 120.308371 61.24561 
L 120.735739 61.137392 
L 120.735739 61.029174 
L 120.806967 61.029174 
L 121.091879 61.029174 
L 121.091879 60.920956 
L 121.163107 60.704521 
L 121.376791 60.596303 
L 121.376791 60.488085 
L 121.448019 60.488085 
L 121.875387 60.379867 
L 121.875387 60.271649 
L 122.160298 59.838778 
L 123.015034 59.73056 
L 123.015034 59.514124 
L 123.086262 59.514124 
L 123.584858 59.405906 
L 123.584858 59.297688 
L 123.656086 59.297688 
L 123.940998 59.189471 
L 124.22591 59.081253 
L 125.29433 58.973035 
L 125.29433 58.864817 
L 125.365558 58.864817 
L 125.864153 58.756599 
L 125.935381 58.431945 
L 126.505205 58.323728 
L 126.505205 58.21551 
L 126.576433 58.21551 
L 126.790117 58.107292 
L 126.790117 57.890856 
L 126.861345 57.890856 
L 127.075029 57.782638 
L 127.075029 57.67442 
L 127.146257 57.67442 
L 127.573625 57.566203 
L 127.573625 57.457985 
L 127.644853 57.457985 
L 127.858537 57.349767 
L 127.858537 57.241549 
L 129.140641 57.133331 
L 129.140641 56.916895 
L 129.211869 56.916895 
L 129.781692 56.916895 
L 129.781692 56.808677 
L 129.781692 56.70046 
L 129.85292 56.70046 
L 130.422744 56.592242 
L 130.422744 56.484024 
L 130.493972 56.484024 
L 131.206252 56.375806 
L 132.060988 56.051152 
L 132.3459 55.942934 
L 132.3459 55.726499 
L 132.417128 55.726499 
L 133.556775 55.618281 
L 133.699231 55.510063 
L 134.340283 55.401845 
L 134.340283 55.293627 
L 134.411511 55.293627 
L 134.625195 55.293627 
L 136.405895 54.752538 
L 136.619579 54.64432 
L 137.759226 54.536102 
L 137.759226 54.427884 
L 137.830454 54.427884 
L 138.756418 54.319666 
L 138.827646 53.886795 
L 139.255014 53.886795 
L 139.255014 53.778577 
L 139.255014 53.670359 
L 139.539926 53.562141 
L 139.539926 53.453923 
L 139.611154 53.453923 
L 139.896066 53.453923 
L 139.896066 53.345706 
L 139.896066 53.237488 
L 139.967294 53.237488 
L 140.822029 53.12927 
L 140.822029 53.021052 
L 140.893257 53.021052 
L 141.961677 52.912834 
L 142.389045 52.804616 
L 143.243781 52.696398 
L 143.315009 52.263527 
L 143.742377 52.155309 
L 143.742377 52.047091 
L 143.813605 52.047091 
L 143.956061 51.938873 
L 144.597112 51.722438 
L 145.095708 51.61422 
L 145.238164 51.397784 
L 145.523076 51.289566 
L 145.523076 51.181348 
L 145.594304 51.181348 
L 146.021672 51.07313 
L 146.164128 50.964913 
L 146.733952 50.856695 
L 147.588688 50.640259 
L 147.659916 50.640259 
L 147.659916 50.532041 
L 147.802371 50.423823 
L 148.799563 50.315605 
L 148.799563 50.207387 
L 148.870791 50.207387 
L 151.71991 50.09917 
L 151.791138 49.990952 
L 152.645874 49.882734 
L 152.645874 49.774516 
L 152.717102 49.774516 
L 154.141662 49.666298 
L 154.141662 49.55808 
L 154.21289 49.55808 
L 155.210081 49.449862 
L 155.281309 49.233427 
L 155.779905 49.125209 
L 155.922361 48.908773 
L 157.346921 48.800555 
L 157.489377 48.692337 
L 158.415341 48.584119 
L 158.557797 48.475902 
L 160.338496 48.367684 
L 160.338496 48.259466 
L 161.193232 48.151248 
L 161.193232 48.04303 
L 161.26446 48.04303 
L 162.047968 47.934812 
L 162.33288 47.826594 
L 164.042351 47.718376 
L 164.042351 47.610159 
L 164.113579 47.610159 
L 164.968315 47.501941 
L 164.968315 47.393723 
L 165.039543 47.393723 
L 165.466911 47.285505 
L 165.466911 47.177287 
L 165.538139 47.177287 
L 165.823051 47.177287 
L 165.823051 46.960851 
L 165.894279 46.960851 
L 166.036735 46.852633 
L 166.677786 46.744416 
L 166.749014 46.52798 
L 166.820242 46.52798 
L 167.176382 46.311544 
L 167.60375 46.203326 
L 167.888662 46.095108 
L 168.743398 45.986891 
L 168.743398 45.878673 
L 168.814626 45.878673 
L 169.954273 45.770455 
L 169.954273 45.662237 
L 170.025501 45.662237 
L 172.091113 45.554019 
L 172.233569 45.445801 
L 173.301989 45.337583 
L 173.5869 45.121148 
L 174.726548 45.121148 
L 174.726548 45.01293 
L 174.726548 44.904712 
L 174.797776 44.904712 
L 175.01146 44.796494 
L 175.01146 44.688276 
L 175.082688 44.688276 
L 177.077071 44.688276 
L 177.077071 44.47184 
L 177.148299 44.47184 
L 178.074263 44.363622 
L 178.216719 44.255405 
L 179.000227 44.147187 
L 179.000227 44.038969 
L 179.071455 44.038969 
L 179.783735 43.930751 
L 179.783735 43.822533 
L 179.854963 43.822533 
L 180.211103 43.714315 
L 180.282331 43.49788 
L 180.99461 43.389662 
L 180.99461 43.281444 
L 181.065838 43.281444 
L 193.174595 42.307483 
L 194.314243 42.199265 
L 194.741611 42.091047 
L 195.738802 41.982829 
L 195.738802 41.874612 
L 195.81003 41.874612 
L 197.305818 41.766394 
L 197.377046 41.549958 
L 199.300201 41.44174 
L 199.371429 41.333522 
L 202.291777 41.225304 
L 202.291777 41.008869 
L 202.363005 41.008869 
L 203.004056 40.900651 
L 203.004056 40.792433 
L 203.075284 40.792433 
L 211.551414 40.034908 
L 211.551414 39.92669 
L 211.622642 39.92669 
L 216.038777 39.818472 
L 216.181233 39.710254 
L 219.030352 39.602036 
L 219.600176 39.493818 
L 220.52614 39.385601 
L 220.597368 39.169165 
L 220.88228 39.169165 
L 220.88228 39.060947 
L 220.88228 38.952729 
L 220.953508 38.952729 
L 224.229995 38.844511 
L 224.229995 38.736293 
L 224.301223 38.736293 
L 228.28999 38.628075 
L 228.28999 38.41164 
L 228.361218 38.41164 
L 229.857005 38.41164 
L 229.857005 38.303422 
L 229.999461 38.195204 
L 234.914192 38.086986 
L 234.914192 37.978768 
L 234.98542 37.978768 
L 241.039798 37.87055 
L 241.039798 37.762332 
L 241.111026 37.762332 
L 241.609622 37.654115 
L 241.609622 37.545897 
L 241.68085 37.545897 
L 244.957337 37.437679 
L 244.957337 37.329461 
L 245.028565 37.329461 
L 246.096985 37.221243 
L 246.239441 37.113025 
L 255.712762 37.004807 
L 255.712762 36.788372 
L 255.78399 36.788372 
L 256.923638 36.680154 
L 256.923638 36.571936 
L 256.994866 36.571936 
L 258.490653 36.463718 
L 258.490653 36.3555 
L 258.561881 36.3555 
L 259.274161 36.3555 
L 259.274161 36.139064 
L 259.345389 36.139064 
L 262.336964 36.030847 
L 262.408192 35.922629 
L 264.901172 35.814411 
L 264.901172 35.706193 
L 264.9724 35.706193 
L 266.966783 35.597975 
L 266.966783 35.489757 
L 267.038011 35.489757 
L 271.66783 35.489757 
L 297.666043 35.056886 
L 305.85726 34.948668 
L 307.9941 34.84045 
L 320.245313 34.732232 
L 320.245313 34.732232 
" style="fill:none;stroke:#1f77b4;stroke-linecap:round;stroke-width:1.5;"/>
   </g>
   <g id="line2d_14">
    <path clip-path="url(#ped9b4e1df8)" d="M 41.245313 293.589375 
L 320.245313 34.732232 
" style="fill:none;stroke:#000000;stroke-dasharray:5.55,2.4;stroke-dashoffset:0;stroke-width:1.5;"/>
   </g>
   <g id="patch_3">
    <path d="M 41.245313 293.589375 
L 41.245313 21.789375 
" style="fill:none;stroke:#cccccc;stroke-linecap:square;stroke-linejoin:miter;stroke-width:0.8;"/>
   </g>
   <g id="patch_4">
    <path d="M 320.245313 293.589375 
L 320.245313 21.789375 
" style="fill:none;stroke:#cccccc;stroke-linecap:square;stroke-linejoin:miter;stroke-width:0.8;"/>
   </g>
   <g id="patch_5">
    <path d="M 41.245313 293.589375 
L 320.245313 293.589375 
" style="fill:none;stroke:#cccccc;stroke-linecap:square;stroke-linejoin:miter;stroke-width:0.8;"/>
   </g>
   <g id="patch_6">
    <path d="M 41.245313 21.789375 
L 320.245313 21.789375 
" style="fill:none;stroke:#cccccc;stroke-linecap:square;stroke-linejoin:miter;stroke-width:0.8;"/>
   </g>
   <g id="text_15">
    <!-- Receiver operating characteristic -->
    <defs>
     <path d="M 40.4375 19 
L 49.078125 17.875 
Q 47.65625 8.9375 41.8125 3.875 
Q 35.984375 -1.171875 27.484375 -1.171875 
Q 16.84375 -1.171875 10.375 5.78125 
Q 3.90625 12.75 3.90625 25.734375 
Q 3.90625 34.125 6.6875 40.421875 
Q 9.46875 46.734375 15.15625 49.875 
Q 20.84375 53.03125 27.546875 53.03125 
Q 35.984375 53.03125 41.359375 48.75 
Q 46.734375 44.484375 48.25 36.625 
L 39.703125 35.296875 
Q 38.484375 40.53125 35.375 43.15625 
Q 32.28125 45.796875 27.875 45.796875 
Q 21.234375 45.796875 17.078125 41.03125 
Q 12.9375 36.28125 12.9375 25.984375 
Q 12.9375 15.53125 16.9375 10.796875 
Q 20.953125 6.0625 27.390625 6.0625 
Q 32.5625 6.0625 36.03125 9.234375 
Q 39.5 12.40625 40.4375 19 
z
" id="ArialMT-99"/>
     <path d="M 6.59375 -19.875 
L 6.59375 51.859375 
L 14.59375 51.859375 
L 14.59375 45.125 
Q 17.4375 49.078125 21 51.046875 
Q 24.5625 53.03125 29.640625 53.03125 
Q 36.28125 53.03125 41.359375 49.609375 
Q 46.4375 46.1875 49.015625 39.953125 
Q 51.609375 33.734375 51.609375 26.3125 
Q 51.609375 18.359375 48.75 11.984375 
Q 45.90625 5.609375 40.453125 2.21875 
Q 35.015625 -1.171875 29 -1.171875 
Q 24.609375 -1.171875 21.109375 0.6875 
Q 17.625 2.546875 15.375 5.375 
L 15.375 -19.875 
z
M 14.546875 25.640625 
Q 14.546875 15.625 18.59375 10.84375 
Q 22.65625 6.0625 28.421875 6.0625 
Q 34.28125 6.0625 38.453125 11.015625 
Q 42.625 15.96875 42.625 26.375 
Q 42.625 36.28125 38.546875 41.203125 
Q 34.46875 46.140625 28.8125 46.140625 
Q 23.1875 46.140625 18.859375 40.890625 
Q 14.546875 35.640625 14.546875 25.640625 
z
" id="ArialMT-112"/>
     <path d="M 6.59375 0 
L 6.59375 51.859375 
L 14.5 51.859375 
L 14.5 44.484375 
Q 20.21875 53.03125 31 53.03125 
Q 35.6875 53.03125 39.625 51.34375 
Q 43.5625 49.65625 45.515625 46.921875 
Q 47.46875 44.1875 48.25 40.4375 
Q 48.734375 37.984375 48.734375 31.890625 
L 48.734375 0 
L 39.9375 0 
L 39.9375 31.546875 
Q 39.9375 36.921875 38.90625 39.578125 
Q 37.890625 42.234375 35.28125 43.8125 
Q 32.671875 45.40625 29.15625 45.40625 
Q 23.53125 45.40625 19.453125 41.84375 
Q 15.375 38.28125 15.375 28.328125 
L 15.375 0 
z
" id="ArialMT-110"/>
     <path d="M 6.59375 0 
L 6.59375 71.578125 
L 15.375 71.578125 
L 15.375 45.90625 
Q 21.53125 53.03125 30.90625 53.03125 
Q 36.671875 53.03125 40.921875 50.75 
Q 45.171875 48.484375 47 44.484375 
Q 48.828125 40.484375 48.828125 32.859375 
L 48.828125 0 
L 40.046875 0 
L 40.046875 32.859375 
Q 40.046875 39.453125 37.1875 42.453125 
Q 34.328125 45.453125 29.109375 45.453125 
Q 25.203125 45.453125 21.75 43.421875 
Q 18.3125 41.40625 16.84375 37.9375 
Q 15.375 34.46875 15.375 28.375 
L 15.375 0 
z
" id="ArialMT-104"/>
    </defs>
    <g style="fill:#262626;" transform="translate(93.37875 15.789375)scale(0.12 -0.12)">
     <use xlink:href="#ArialMT-82"/>
     <use x="72.216797" xlink:href="#ArialMT-101"/>
     <use x="127.832031" xlink:href="#ArialMT-99"/>
     <use x="177.832031" xlink:href="#ArialMT-101"/>
     <use x="233.447266" xlink:href="#ArialMT-105"/>
     <use x="255.664062" xlink:href="#ArialMT-118"/>
     <use x="305.664062" xlink:href="#ArialMT-101"/>
     <use x="361.279297" xlink:href="#ArialMT-114"/>
     <use x="394.580078" xlink:href="#ArialMT-32"/>
     <use x="422.363281" xlink:href="#ArialMT-111"/>
     <use x="477.978516" xlink:href="#ArialMT-112"/>
     <use x="533.59375" xlink:href="#ArialMT-101"/>
     <use x="589.208984" xlink:href="#ArialMT-114"/>
     <use x="622.509766" xlink:href="#ArialMT-97"/>
     <use x="678.125" xlink:href="#ArialMT-116"/>
     <use x="705.908203" xlink:href="#ArialMT-105"/>
     <use x="728.125" xlink:href="#ArialMT-110"/>
     <use x="783.740234" xlink:href="#ArialMT-103"/>
     <use x="839.355469" xlink:href="#ArialMT-32"/>
     <use x="867.138672" xlink:href="#ArialMT-99"/>
     <use x="917.138672" xlink:href="#ArialMT-104"/>
     <use x="972.753906" xlink:href="#ArialMT-97"/>
     <use x="1028.369141" xlink:href="#ArialMT-114"/>
     <use x="1061.669922" xlink:href="#ArialMT-97"/>
     <use x="1117.285156" xlink:href="#ArialMT-99"/>
     <use x="1167.285156" xlink:href="#ArialMT-116"/>
     <use x="1195.068359" xlink:href="#ArialMT-101"/>
     <use x="1250.683594" xlink:href="#ArialMT-114"/>
     <use x="1283.984375" xlink:href="#ArialMT-105"/>
     <use x="1306.201172" xlink:href="#ArialMT-115"/>
     <use x="1356.201172" xlink:href="#ArialMT-116"/>
     <use x="1383.984375" xlink:href="#ArialMT-105"/>
     <use x="1406.201172" xlink:href="#ArialMT-99"/>
    </g>
   </g>
   <g id="legend_1">
    <g id="patch_7">
     <path d="M 171.485938 288.589375 
L 313.245313 288.589375 
Q 315.245313 288.589375 315.245313 286.589375 
L 315.245313 273.19875 
Q 315.245313 271.19875 313.245313 271.19875 
L 171.485938 271.19875 
Q 169.485938 271.19875 169.485938 273.19875 
L 169.485938 286.589375 
Q 169.485938 288.589375 171.485938 288.589375 
z
" style="fill:#ffffff;opacity:0.8;stroke:#cccccc;stroke-linejoin:miter;"/>
    </g>
    <g id="line2d_15">
     <path d="M 173.485938 278.984687 
L 193.485938 278.984687 
" style="fill:none;stroke:#1f77b4;stroke-linecap:round;stroke-width:1.5;"/>
    </g>
    <g id="line2d_16"/>
    <g id="text_16">
     <!-- ROC curve (area = 0.89) -->
     <defs>
      <path d="M 4.828125 34.859375 
Q 4.828125 52.6875 14.390625 62.765625 
Q 23.96875 72.859375 39.109375 72.859375 
Q 49.03125 72.859375 56.984375 68.109375 
Q 64.9375 63.375 69.109375 54.90625 
Q 73.296875 46.4375 73.296875 35.6875 
Q 73.296875 24.8125 68.890625 16.21875 
Q 64.5 7.625 56.4375 3.203125 
Q 48.390625 -1.21875 39.0625 -1.21875 
Q 28.953125 -1.21875 20.984375 3.65625 
Q 13.03125 8.546875 8.921875 16.984375 
Q 4.828125 25.4375 4.828125 34.859375 
z
M 14.59375 34.71875 
Q 14.59375 21.78125 21.546875 14.328125 
Q 28.515625 6.890625 39.015625 6.890625 
Q 49.703125 6.890625 56.609375 14.40625 
Q 63.53125 21.921875 63.53125 35.75 
Q 63.53125 44.484375 60.578125 51 
Q 57.625 57.515625 51.921875 61.109375 
Q 46.234375 64.703125 39.15625 64.703125 
Q 29.109375 64.703125 21.84375 57.78125 
Q 14.59375 50.875 14.59375 34.71875 
z
" id="ArialMT-79"/>
      <path d="M 58.796875 25.09375 
L 68.265625 22.703125 
Q 65.28125 11.03125 57.546875 4.90625 
Q 49.8125 -1.21875 38.625 -1.21875 
Q 27.046875 -1.21875 19.796875 3.484375 
Q 12.546875 8.203125 8.765625 17.140625 
Q 4.984375 26.078125 4.984375 36.328125 
Q 4.984375 47.515625 9.25 55.828125 
Q 13.53125 64.15625 21.40625 68.46875 
Q 29.296875 72.796875 38.765625 72.796875 
Q 49.515625 72.796875 56.828125 67.328125 
Q 64.15625 61.859375 67.046875 51.953125 
L 57.71875 49.75 
Q 55.21875 57.5625 50.484375 61.125 
Q 45.75 64.703125 38.578125 64.703125 
Q 30.328125 64.703125 24.78125 60.734375 
Q 19.234375 56.78125 16.984375 50.109375 
Q 14.75 43.453125 14.75 36.375 
Q 14.75 27.25 17.40625 20.4375 
Q 20.0625 13.625 25.671875 10.25 
Q 31.296875 6.890625 37.84375 6.890625 
Q 45.796875 6.890625 51.3125 11.46875 
Q 56.84375 16.0625 58.796875 25.09375 
z
" id="ArialMT-67"/>
      <path d="M 23.390625 -21.046875 
Q 16.109375 -11.859375 11.078125 0.4375 
Q 6.0625 12.75 6.0625 25.921875 
Q 6.0625 37.546875 9.8125 48.1875 
Q 14.203125 60.546875 23.390625 72.796875 
L 29.6875 72.796875 
Q 23.78125 62.640625 21.875 58.296875 
Q 18.890625 51.5625 17.1875 44.234375 
Q 15.09375 35.109375 15.09375 25.875 
Q 15.09375 2.390625 29.6875 -21.046875 
z
" id="ArialMT-40"/>
      <path d="M 52.828125 42.09375 
L 5.5625 42.09375 
L 5.5625 50.296875 
L 52.828125 50.296875 
z
M 52.828125 20.359375 
L 5.5625 20.359375 
L 5.5625 28.5625 
L 52.828125 28.5625 
z
" id="ArialMT-61"/>
      <path d="M 5.46875 16.546875 
L 13.921875 17.328125 
Q 14.984375 11.375 18.015625 8.6875 
Q 21.046875 6 25.78125 6 
Q 29.828125 6 32.875 7.859375 
Q 35.9375 9.71875 37.890625 12.8125 
Q 39.84375 15.921875 41.15625 21.1875 
Q 42.484375 26.46875 42.484375 31.9375 
Q 42.484375 32.515625 42.4375 33.6875 
Q 39.796875 29.5 35.234375 26.875 
Q 30.671875 24.265625 25.34375 24.265625 
Q 16.453125 24.265625 10.296875 30.703125 
Q 4.15625 37.15625 4.15625 47.703125 
Q 4.15625 58.59375 10.578125 65.234375 
Q 17 71.875 26.65625 71.875 
Q 33.640625 71.875 39.421875 68.109375 
Q 45.21875 64.359375 48.21875 57.390625 
Q 51.21875 50.4375 51.21875 37.25 
Q 51.21875 23.53125 48.234375 15.40625 
Q 45.265625 7.28125 39.375 3.03125 
Q 33.5 -1.21875 25.59375 -1.21875 
Q 17.1875 -1.21875 11.859375 3.4375 
Q 6.546875 8.109375 5.46875 16.546875 
z
M 41.453125 48.140625 
Q 41.453125 55.71875 37.421875 60.15625 
Q 33.40625 64.59375 27.734375 64.59375 
Q 21.875 64.59375 17.53125 59.8125 
Q 13.1875 55.03125 13.1875 47.40625 
Q 13.1875 40.578125 17.3125 36.296875 
Q 21.4375 32.03125 27.484375 32.03125 
Q 33.59375 32.03125 37.515625 36.296875 
Q 41.453125 40.578125 41.453125 48.140625 
z
" id="ArialMT-57"/>
      <path d="M 12.359375 -21.046875 
L 6.0625 -21.046875 
Q 20.65625 2.390625 20.65625 25.875 
Q 20.65625 35.0625 18.5625 44.09375 
Q 16.890625 51.421875 13.921875 58.15625 
Q 12.015625 62.546875 6.0625 72.796875 
L 12.359375 72.796875 
Q 21.53125 60.546875 25.921875 48.1875 
Q 29.6875 37.546875 29.6875 25.921875 
Q 29.6875 12.75 24.625 0.4375 
Q 19.578125 -11.859375 12.359375 -21.046875 
z
" id="ArialMT-41"/>
     </defs>
     <g style="fill:#262626;" transform="translate(201.485938 282.484687)scale(0.1 -0.1)">
      <use xlink:href="#ArialMT-82"/>
      <use x="72.216797" xlink:href="#ArialMT-79"/>
      <use x="150" xlink:href="#ArialMT-67"/>
      <use x="222.216797" xlink:href="#ArialMT-32"/>
      <use x="250" xlink:href="#ArialMT-99"/>
      <use x="300" xlink:href="#ArialMT-117"/>
      <use x="355.615234" xlink:href="#ArialMT-114"/>
      <use x="388.916016" xlink:href="#ArialMT-118"/>
      <use x="438.916016" xlink:href="#ArialMT-101"/>
      <use x="494.53125" xlink:href="#ArialMT-32"/>
      <use x="522.314453" xlink:href="#ArialMT-40"/>
      <use x="555.615234" xlink:href="#ArialMT-97"/>
      <use x="611.230469" xlink:href="#ArialMT-114"/>
      <use x="644.53125" xlink:href="#ArialMT-101"/>
      <use x="700.146484" xlink:href="#ArialMT-97"/>
      <use x="755.761719" xlink:href="#ArialMT-32"/>
      <use x="783.544922" xlink:href="#ArialMT-61"/>
      <use x="841.943359" xlink:href="#ArialMT-32"/>
      <use x="869.726562" xlink:href="#ArialMT-48"/>
      <use x="925.341797" xlink:href="#ArialMT-46"/>
      <use x="953.125" xlink:href="#ArialMT-56"/>
      <use x="1008.740234" xlink:href="#ArialMT-57"/>
      <use x="1064.355469" xlink:href="#ArialMT-41"/>
     </g>
    </g>
   </g>
  </g>
 </g>
 <defs>
  <clipPath id="ped9b4e1df8">
   <rect height="271.8" width="279" x="41.245313" y="21.789375"/>
  </clipPath>
 </defs>
</svg>
