<svg width="604" height="228" viewBox="0 0 604 228" fill="none" xmlns="http://www.w3.org/2000/svg">
<rect width="604" height="228" fill="white"/>
<rect width="163" height="168" transform="translate(37 30)" fill="white"/>
<rect x="37" y="30" width="163" height="168" fill="#C4C4C4"/>
<path d="M122.976 131.152V166H112.464V131.152L72.144 65.2H83.52L118.08 121.792L152.64 65.2H163.296L122.976 131.152Z" fill="black" fill-opacity="0.65"/>
<line x1="69" y1="44" x2="167.005" y2="44" stroke="black" stroke-width="8"/>
<path d="M282.528 90.256V166H272.736V152.176C270.048 156.784 266.352 160.384 261.648 162.976C256.944 165.472 251.568 166.72 245.52 166.72C235.632 166.72 227.808 163.984 222.048 158.512C216.384 152.944 213.552 144.832 213.552 134.176V90.256H223.776V133.168C223.776 141.136 225.744 147.184 229.68 151.312C233.616 155.44 239.232 157.504 246.528 157.504C254.496 157.504 260.784 155.104 265.392 150.304C270 145.408 272.304 138.64 272.304 130V90.256H282.528ZM381.29 90.256V156.784C381.29 169.648 378.122 179.152 371.786 185.296C365.546 191.536 356.09 194.656 343.418 194.656C336.41 194.656 329.738 193.6 323.402 191.488C317.162 189.472 312.074 186.64 308.138 182.992L313.322 175.216C316.97 178.48 321.386 181.024 326.57 182.848C331.85 184.672 337.37 185.584 343.13 185.584C352.73 185.584 359.786 183.328 364.298 178.816C368.81 174.4 371.066 167.488 371.066 158.08V148.432C367.898 153.232 363.722 156.88 358.538 159.376C353.45 161.872 347.786 163.12 341.546 163.12C334.442 163.12 327.962 161.584 322.106 158.512C316.346 155.344 311.786 150.976 308.426 145.408C305.162 139.744 303.53 133.36 303.53 126.256C303.53 119.152 305.162 112.816 308.426 107.248C311.786 101.68 316.346 97.36 322.106 94.288C327.866 91.216 334.346 89.68 341.546 89.68C347.978 89.68 353.786 90.976 358.97 93.568C364.154 96.16 368.33 99.904 371.498 104.8V90.256H381.29ZM342.554 154.048C348.026 154.048 352.97 152.896 357.386 150.592C361.802 148.192 365.21 144.88 367.61 140.656C370.106 136.432 371.354 131.632 371.354 126.256C371.354 120.88 370.106 116.128 367.61 112C365.21 107.776 361.802 104.512 357.386 102.208C353.066 99.808 348.122 98.608 342.554 98.608C337.082 98.608 332.138 99.76 327.722 102.064C323.402 104.368 319.994 107.632 317.498 111.856C315.098 116.08 313.898 120.88 313.898 126.256C313.898 131.632 315.098 136.432 317.498 140.656C319.994 144.88 323.402 148.192 327.722 150.592C332.138 152.896 337.082 154.048 342.554 154.048ZM475.833 131.296H412.473C413.049 139.168 416.073 145.552 421.545 150.448C427.017 155.248 433.929 157.648 442.281 157.648C446.985 157.648 451.305 156.832 455.241 155.2C459.177 153.472 462.585 150.976 465.465 147.712L471.225 154.336C467.865 158.368 463.641 161.44 458.553 163.552C453.561 165.664 448.041 166.72 441.993 166.72C434.217 166.72 427.305 165.088 421.257 161.824C415.305 158.464 410.649 153.856 407.289 148C403.929 142.144 402.249 135.52 402.249 128.128C402.249 120.736 403.833 114.112 407.001 108.256C410.265 102.4 414.681 97.84 420.249 94.576C425.913 91.312 432.249 89.68 439.257 89.68C446.265 89.68 452.553 91.312 458.121 94.576C463.689 97.84 468.057 102.4 471.225 108.256C474.393 114.016 475.977 120.64 475.977 128.128L475.833 131.296ZM439.257 98.464C431.961 98.464 425.817 100.816 420.825 105.52C415.929 110.128 413.145 116.176 412.473 123.664H466.185C465.513 116.176 462.681 110.128 457.689 105.52C452.793 100.816 446.649 98.464 439.257 98.464ZM535.379 89.68C544.883 89.68 552.419 92.464 557.987 98.032C563.651 103.504 566.483 111.52 566.483 122.08V166H556.259V123.088C556.259 115.216 554.291 109.216 550.355 105.088C546.419 100.96 540.803 98.896 533.507 98.896C525.347 98.896 518.867 101.344 514.067 106.24C509.363 111.04 507.011 117.712 507.011 126.256V166H496.787V90.256H506.579V104.224C509.363 99.616 513.203 96.064 518.099 93.568C523.091 90.976 528.851 89.68 535.379 89.68Z" fill="black"/>
</svg>
